<?xml version="1.0" encoding="UTF-8" standalone="no"?>
<svg
   xmlns:dc="http://purl.org/dc/elements/1.1/"
   xmlns:cc="http://creativecommons.org/ns#"
   xmlns:rdf="http://www.w3.org/1999/02/22-rdf-syntax-ns#"
   xmlns:svg="http://www.w3.org/2000/svg"
   xmlns="http://www.w3.org/2000/svg"
   xmlns:sodipodi="http://sodipodi.sourceforge.net/DTD/sodipodi-0.dtd"
   xmlns:inkscape="http://www.inkscape.org/namespaces/inkscape"
   width="400"
   height="250"
   viewBox="0 0 105.83333 66.145835"
   version="1.1"
   id="svg1498"
   inkscape:version="1.0.1 (3bc2e813f5, 2020-09-07)"
   sodipodi:docname="altglas.svg"
   inkscape:export-filename="C:\Users\User\Abstand Decke.png"
   inkscape:export-xdpi="96"
   inkscape:export-ydpi="96">
  <defs
     id="defs1492">
    <rect
       x="-31.617708"
       y="54.504167"
       width="37.438542"
       height="32.808333"
       id="rect1051" />
    <marker
       style="overflow:visible"
       id="marker2227"
       refX="0"
       refY="0"
       orient="auto"
       inkscape:stockid="Arrow1Mend"
       inkscape:isstock="true">
      <path
         transform="matrix(-0.4,0,0,-0.4,-4,0)"
         style="fill:#000000;fill-opacity:1;fill-rule:evenodd;stroke:#000000;stroke-width:1pt;stroke-opacity:1"
         d="M 0,0 5,-5 -12.5,0 5,5 Z"
         id="path2225" />
    </marker>
    <marker
       style="overflow:visible"
       id="marker2217"
       refX="0"
       refY="0"
       orient="auto"
       inkscape:stockid="Arrow1Mstart"
       inkscape:isstock="true">
      <path
         transform="matrix(0.4,0,0,0.4,4,0)"
         style="fill:#000000;fill-opacity:1;fill-rule:evenodd;stroke:#000000;stroke-width:1pt;stroke-opacity:1"
         d="M 0,0 5,-5 -12.5,0 5,5 Z"
         id="path2215" />
    </marker>
    <marker
       style="overflow:visible"
       id="Arrow1Mend"
       refX="0"
       refY="0"
       orient="auto"
       inkscape:stockid="Arrow1Mend"
       inkscape:isstock="true"
       inkscape:collect="always">
      <path
         transform="matrix(-0.4,0,0,-0.4,-4,0)"
         style="fill:#000000;fill-opacity:1;fill-rule:evenodd;stroke:#000000;stroke-width:1pt;stroke-opacity:1"
         d="M 0,0 5,-5 -12.5,0 5,5 Z"
         id="path1167" />
    </marker>
    <marker
       style="overflow:visible"
       id="Arrow1Mstart"
       refX="0"
       refY="0"
       orient="auto"
       inkscape:stockid="Arrow1Mstart"
       inkscape:isstock="true"
       inkscape:collect="always">
      <path
         transform="matrix(0.4,0,0,0.4,4,0)"
         style="fill:#000000;fill-opacity:1;fill-rule:evenodd;stroke:#000000;stroke-width:1pt;stroke-opacity:1"
         d="M 0,0 5,-5 -12.5,0 5,5 Z"
         id="path1164" />
    </marker>
    <rect
       x="23.623512"
       y="-30.994047"
       width="36.474701"
       height="14.552083"
       id="rect2118" />
    <rect
       x="23.623512"
       y="-30.994047"
       width="36.474701"
       height="14.552083"
       id="rect2213" />
  </defs>
  <sodipodi:namedview
     id="base"
     pagecolor="#ffffff"
     bordercolor="#666666"
     borderopacity="1.0"
     inkscape:pageopacity="0.0"
     inkscape:pageshadow="2"
     inkscape:zoom="2"
     inkscape:cx="136.54028"
     inkscape:cy="182.516"
     inkscape:document-units="mm"
     inkscape:current-layer="layer1"
     inkscape:document-rotation="0"
     showgrid="false"
     units="px"
     inkscape:window-width="1920"
     inkscape:window-height="1001"
     inkscape:window-x="-9"
     inkscape:window-y="-9"
     inkscape:window-maximized="1" />
  <metadata
     id="metadata1495">
    <rdf:RDF>
      <cc:Work
         rdf:about="">
        <dc:format>image/svg+xml</dc:format>
        <dc:type
           rdf:resource="http://purl.org/dc/dcmitype/StillImage" />
        <dc:title></dc:title>
      </cc:Work>
    </rdf:RDF>
  </metadata>
  <g
     inkscape:label="Ebene 1"
     inkscape:groupmode="layer"
     id="layer1">
    <path
       style="fill:#003399;fill-opacity:1;stroke:#000000;stroke-width:0.529167;stroke-linecap:round;stroke-linejoin:round;stroke-miterlimit:4;stroke-dasharray:none;stroke-opacity:1"
       d="m 81.116301,60.437169 2.605879,-32.072462 0.868624,-1.670434 0.734991,-0.400905 2.939966,-1.804069 5.211754,0.200452 1.33635,1.202713 1.00226,1.135896 0.334087,1.069078 0.601355,1.002262 1.069078,31.471109 z"
       id="path1048" />
    <ellipse
       style="fill:#ffdb9d;stroke:#000000;stroke-width:0.529167;stroke-miterlimit:4;stroke-dasharray:none"
       id="ellipse1134"
       cx="90.537483"
       cy="19.685324"
       rx="8.6852827"
       ry="8.3233967" />
    <path
       style="fill:#990000;stroke:#000000;stroke-width:0.529167;stroke-linecap:butt;stroke-linejoin:round;stroke-miterlimit:4;stroke-dasharray:none;stroke-opacity:1"
       d="M 23.666716,60.239799 21.889374,31.708776 21.328108,30.96042 20.205576,30.024978 18.521778,29.183079 13.470384,28.52827 13.002662,28.99599 12.160763,29.931435 11.693042,30.96042 11.22532,32.831308 9.3544333,48.920935 8.6996229,60.333343 Z"
       id="path1011" />
    <ellipse
       style="fill:#ffdb9d;stroke:#000000;stroke-width:0.529167;stroke-miterlimit:4;stroke-dasharray:none"
       id="ellipse2078"
       cx="-16.413311"
       cy="21.326101"
       rx="8.6852827"
       ry="8.3233967"
       transform="scale(-1,1)" />
    <text
       xml:space="preserve"
       id="text2116"
       style="font-style:normal;font-weight:normal;font-size:12.672px;line-height:1.25;font-family:sans-serif;white-space:pre;shape-inside:url(#rect2118);fill:#000000;fill-opacity:1;stroke:none;stroke-width:0.594;stroke-miterlimit:4;stroke-dasharray:none;"
       transform="matrix(0.89085354,0,0,0.89085354,17.646089,30.182705)"><tspan
         x="23.623047"
         y="-19.782391"><tspan
           style="font-size:12.672px;stroke-width:0.594;stroke-miterlimit:4;stroke-dasharray:none">1,5m</tspan></tspan></text>
    <path
       style="fill:none;stroke:#000000;stroke-width:0.79375;stroke-linecap:butt;stroke-linejoin:miter;stroke-miterlimit:4;stroke-dasharray:none;stroke-opacity:1;marker-start:url(#Arrow1Mstart);marker-end:url(#Arrow1Mend)"
       d="M 31.18357,15.61985 H 75.386094"
       id="path2122"
       sodipodi:nodetypes="cc" />
    <rect
       style="fill:#666666;fill-opacity:1;stroke:#000000;stroke-width:0.529167;stroke-linecap:round;stroke-linejoin:round;stroke-miterlimit:4;stroke-dasharray:none;stroke-opacity:1"
       id="rect958"
       width="38.496876"
       height="5.8208332"
       x="34.792709"
       y="54.636459" />
    <rect
       style="fill:#eeeeee;fill-opacity:1;stroke:#000000;stroke-width:0.529167;stroke-linecap:round;stroke-linejoin:round"
       id="rect943"
       width="44.714584"
       height="29.897917"
       x="31.617706"
       y="28.045834" />
    <path
       style="fill:#eeeeee;fill-opacity:1;stroke:#000000;stroke-width:0.529167;stroke-linecap:round;stroke-linejoin:round;stroke-miterlimit:4;stroke-dasharray:none;stroke-opacity:1"
       d="m 31.617707,28.045833 6.350005,-7.937498 16.007286,-1.190626 16.404175,1.190626 5.953117,7.937498 H 31.617707"
       id="path952" />
    <rect
       style="fill:#eeeeee;fill-opacity:1;stroke:#000000;stroke-width:0.529167;stroke-linecap:round;stroke-linejoin:round;stroke-miterlimit:4;stroke-dasharray:none"
       id="rect949"
       width="32.411457"
       height="7.9374986"
       x="37.967712"
       y="20.108335" />
    <circle
       style="fill:#00000f;fill-opacity:1;stroke:#006600;stroke-width:1.05833;stroke-linecap:round;stroke-linejoin:round;stroke-miterlimit:4;stroke-dasharray:none"
       id="path954"
       cx="45.177605"
       cy="24.14323"
       r="2.8016682" />
    <circle
       style="fill:#00000f;fill-opacity:1;stroke:#996600;stroke-width:1.05833;stroke-linecap:round;stroke-linejoin:round;stroke-miterlimit:4;stroke-dasharray:none"
       id="circle956"
       cx="62.110954"
       cy="24.14323"
       r="2.8016682" />
    <path
       style="fill:#009900;stroke:#000000;stroke-width:0.529167;stroke-linecap:butt;stroke-linejoin:round;stroke-miterlimit:4;stroke-dasharray:none;stroke-opacity:1"
       d="m 32.945975,60.799443 v -5.435164 l 0.143032,-0.47677 0.572123,-0.6198 0.476769,-0.28606 0.238383,-0.286062 0.238385,-2.717582 1.287276,-0.04767 0.190707,2.765259 0.143032,0.286062 0.381415,0.238385 0.381416,0.333738 0.238384,0.476768 -0.04767,5.768904 z"
       id="path964" />
    <path
       style="fill:#009900;stroke:#000000;stroke-width:0.529167;stroke-linecap:butt;stroke-linejoin:round;stroke-miterlimit:4;stroke-dasharray:none;stroke-opacity:1"
       d="m 38.762555,60.84712 -0.04767,-7.532948 0.190707,-0.476768 0.572123,-0.667477 v -2.240814 h 1.096568 v 2.240814 l 0.333739,0.333739 0.190708,0.286061 0.345326,1.368026 -0.0146,6.64169 z"
       id="path966"
       sodipodi:nodetypes="cccccccccccc" />
    <path
       style="fill:#006600;stroke:#000000;stroke-width:0.529167;stroke-linecap:butt;stroke-linejoin:round;stroke-miterlimit:4;stroke-dasharray:none;stroke-opacity:1"
       d="m 36.140343,60.799443 h 3.337382 l 0.04767,-5.149103 -0.09536,-0.238385 -0.572122,-0.619799 -0.143033,-1.477984 -1.525661,-0.04767 -0.07851,1.489055 -0.207563,0.370343 -0.476768,0.381415 c -0.381423,0.572131 0,0 -0.381423,0.572131 z"
       id="path969"
       sodipodi:nodetypes="cccccccccccc" />
    <path
       style="fill:#996600;stroke:#000000;stroke-width:0.529167;stroke-linecap:butt;stroke-linejoin:round;stroke-miterlimit:4;stroke-dasharray:none;stroke-opacity:1"
       d="m 23.91525,14.341629 0.561266,1.590254 -2.993418,-0.841899 -1.403165,1.777342 -3.741774,0.280633 -2.899874,4.022407 -0.427631,3.671756 L 8.7610679,31.273155 7.2643587,29.776444 7.6385361,26.87657 6.796637,26.502393 5.7676494,22.854164 6.796637,20.702644 6.516004,18.551124 7.1708144,16.025427 8.480435,14.060996 l 1.0289878,-0.09354 1.0289882,-1.870887 1.216076,0.09355 1.870887,-2.057976 1.028987,0.65481 3.554685,-0.841899 0.841899,0.935444 2.15152,-0.8419 0.65481,0.467722 v 1.216077 l 1.028988,0.467722 v 0.65481 z"
       id="path1007" />
    <path
       style="fill:#b4e2ff;stroke:#000000;stroke-width:0.529167;stroke-linecap:butt;stroke-linejoin:round;stroke-miterlimit:4;stroke-dasharray:none;stroke-opacity:1"
       d="m 18.521778,21.605988 7.390002,1.683798 -3.190687,4.756048 -5.457031,-2.94349 z"
       id="path1009" />
    <path
       style="fill:#b4e2ff;stroke:#000000;stroke-width:0.529167;stroke-linecap:butt;stroke-linejoin:round;stroke-miterlimit:4;stroke-dasharray:none;stroke-opacity:1"
       d="m 88.154093,20.018487 -7.390002,1.683798 3.190687,4.756048 5.457031,-2.94349 z"
       id="path1013" />
    <path
       style="fill:#cccccc;fill-opacity:1;stroke:#000000;stroke-width:0.529167;stroke-linecap:round;stroke-linejoin:round;stroke-miterlimit:4;stroke-dasharray:none;stroke-opacity:1"
       d="m 82.946874,11.443229 0.132292,1.852084 3.902604,0.396875 0.727604,0.595313 1.653646,0.330729 0.06615,0.727604 0.859895,0.264583 0.198438,0.79375 1.719792,1.190625 0.396875,0.992188 0.727604,0.330729 0.727604,0.727604 0.06615,1.455209 -0.264584,0.992187 0.859896,1.256771 0.79375,1.322917 1.455208,1.521354 0.926042,-0.132292 0.992188,-0.661458 0.330729,-0.859896 v -1.322917 l 0.529166,-1.124479 0.06615,-1.124479 0.661457,-1.389063 v -1.918229 l -0.46302,-0.727604 -0.595312,-0.595312 v -0.859896 l -0.595312,-0.992188 -0.79375,-1.190625 -0.79375,-0.132291 -0.529167,-1.058334 H 95.646874 L 94.257811,10.583334 93.067186,10.054167 92.405728,10.384896 90.355207,9.6572917 90.024478,9.921875 H 88.503124 L 87.676301,9.2934896 86.320312,9.4588542 84.534374,10.31875 Z"
       id="path1023"
       sodipodi:nodetypes="ccccccccccccccccccccccccccccccccccccccccccc" />
  </g>
</svg>
