<?xml version="1.0" encoding="UTF-8" standalone="no"?>
<svg
   xmlns:dc="http://purl.org/dc/elements/1.1/"
   xmlns:cc="http://creativecommons.org/ns#"
   xmlns:rdf="http://www.w3.org/1999/02/22-rdf-syntax-ns#"
   xmlns:svg="http://www.w3.org/2000/svg"
   xmlns="http://www.w3.org/2000/svg"
   xmlns:sodipodi="http://sodipodi.sourceforge.net/DTD/sodipodi-0.dtd"
   xmlns:inkscape="http://www.inkscape.org/namespaces/inkscape"
   width="400"
   height="250"
   viewBox="0 0 105.83333 66.145835"
   version="1.1"
   id="svg1498"
   inkscape:version="1.0.1 (3bc2e813f5, 2020-09-07)"
   sodipodi:docname="Abstand Decke.svg"
   inkscape:export-filename="C:\Users\User\Abstand Decke.png"
   inkscape:export-xdpi="96"
   inkscape:export-ydpi="96">
  <defs
     id="defs1492">
    <marker
       style="overflow:visible"
       id="marker2227"
       refX="0"
       refY="0"
       orient="auto"
       inkscape:stockid="Arrow1Mend"
       inkscape:isstock="true">
      <path
         transform="matrix(-0.4,0,0,-0.4,-4,0)"
         style="fill:#000000;fill-opacity:1;fill-rule:evenodd;stroke:#000000;stroke-width:1pt;stroke-opacity:1"
         d="M 0,0 5,-5 -12.5,0 5,5 Z"
         id="path2225" />
    </marker>
    <marker
       style="overflow:visible"
       id="marker2217"
       refX="0"
       refY="0"
       orient="auto"
       inkscape:stockid="Arrow1Mstart"
       inkscape:isstock="true">
      <path
         transform="matrix(0.4,0,0,0.4,4,0)"
         style="fill:#000000;fill-opacity:1;fill-rule:evenodd;stroke:#000000;stroke-width:1pt;stroke-opacity:1"
         d="M 0,0 5,-5 -12.5,0 5,5 Z"
         id="path2215" />
    </marker>
    <marker
       style="overflow:visible"
       id="Arrow1Mend"
       refX="0"
       refY="0"
       orient="auto"
       inkscape:stockid="Arrow1Mend"
       inkscape:isstock="true"
       inkscape:collect="always">
      <path
         transform="matrix(-0.4,0,0,-0.4,-4,0)"
         style="fill:#000000;fill-opacity:1;fill-rule:evenodd;stroke:#000000;stroke-width:1pt;stroke-opacity:1"
         d="M 0,0 5,-5 -12.5,0 5,5 Z"
         id="path1167" />
    </marker>
    <marker
       style="overflow:visible"
       id="Arrow1Mstart"
       refX="0"
       refY="0"
       orient="auto"
       inkscape:stockid="Arrow1Mstart"
       inkscape:isstock="true"
       inkscape:collect="always">
      <path
         transform="matrix(0.4,0,0,0.4,4,0)"
         style="fill:#000000;fill-opacity:1;fill-rule:evenodd;stroke:#000000;stroke-width:1pt;stroke-opacity:1"
         d="M 0,0 5,-5 -12.5,0 5,5 Z"
         id="path1164" />
    </marker>
    <rect
       x="23.623512"
       y="-30.994047"
       width="36.474701"
       height="14.552083"
       id="rect2118" />
    <rect
       x="23.623512"
       y="-30.994047"
       width="36.474701"
       height="14.552083"
       id="rect2213" />
  </defs>
  <sodipodi:namedview
     id="base"
     pagecolor="#ffffff"
     bordercolor="#666666"
     borderopacity="1.0"
     inkscape:pageopacity="0.0"
     inkscape:pageshadow="2"
     inkscape:zoom="0.98994949"
     inkscape:cx="239.12063"
     inkscape:cy="65.782115"
     inkscape:document-units="mm"
     inkscape:current-layer="layer1"
     inkscape:document-rotation="0"
     showgrid="false"
     units="px"
     inkscape:window-width="1920"
     inkscape:window-height="1001"
     inkscape:window-x="-9"
     inkscape:window-y="-9"
     inkscape:window-maximized="1" />
  <metadata
     id="metadata1495">
    <rdf:RDF>
      <cc:Work
         rdf:about="">
        <dc:format>image/svg+xml</dc:format>
        <dc:type
           rdf:resource="http://purl.org/dc/dcmitype/StillImage" />
        <dc:title></dc:title>
      </cc:Work>
    </rdf:RDF>
  </metadata>
  <g
     inkscape:label="Ebene 1"
     inkscape:groupmode="layer"
     id="layer1">
    <path
       style="fill:#0066cc;stroke:#000000;stroke-width:0.529167;stroke-linecap:butt;stroke-linejoin:round;stroke-miterlimit:4;stroke-dasharray:none;stroke-opacity:1"
       d="m 6.9651246,64.021128 3.7417724,-28.464204 1.336348,-1.469982 1.469982,-0.801809 2.271791,-1.469982 h 2.004522 l 2.939964,1.202713 1.870887,2.53906 0.400904,3.340868 0.668174,24.989703 z"
       id="path2076" />
    <ellipse
       style="fill:#ffdb9d;stroke:#000000;stroke-width:0.529167;stroke-miterlimit:4;stroke-dasharray:none"
       id="ellipse1134"
       cx="17.61367"
       cy="24.266075"
       rx="8.9506483"
       ry="8.5777054" />
    <path
       style="fill:#006600;stroke:#000000;stroke-width:0.529167;stroke-linecap:butt;stroke-linejoin:miter;stroke-miterlimit:4;stroke-dasharray:none;stroke-opacity:1"
       d="m 67.657738,63.575601 2.456844,-28.159225 1.700893,-1.511904 1.322917,-0.755953 2.078868,-0.94494 2.456847,-1.133929 h 0.94494 l 3.023809,1.322917 2.078869,1.889881 0.755951,2.456845 0.377979,26.269346 z"
       id="path2082" />
    <ellipse
       style="fill:#ffdb9d;stroke:#000000;stroke-width:0.529167;stroke-miterlimit:4;stroke-dasharray:none"
       id="ellipse2078"
       cx="76.880394"
       cy="24.266075"
       rx="8.9506483"
       ry="8.5777054" />
    <path
       style="fill:#996600;stroke:#000000;stroke-width:0.529167;stroke-linecap:butt;stroke-linejoin:miter;stroke-miterlimit:4;stroke-dasharray:none;stroke-opacity:1"
       d="m 8.5989582,31.353132 1.6063988,-1.133928 0.94494,-2.078869 0.472471,-3.590774 2.078869,-2.362351 2.645833,-2.645835 3.118304,-0.944941 1.511904,-0.566965 0.944941,0.09449 h 3.212797 l -1.133928,-2.078866 -1.417411,0.377977 -2.551339,-1.984376 -3.118304,0.850446 h -5.102678 l -1.700893,2.267859 -2.6458333,2.929317 v 2.07887 l -0.9449405,2.740327 1.8898809,2.645834 -1.1339285,1.889881 z"
       id="path2096" />
    <path
       style="fill:#b4e2ff;stroke:#000000;stroke-width:0.529167;stroke-linecap:butt;stroke-linejoin:miter;stroke-miterlimit:4;stroke-dasharray:none;stroke-opacity:1"
       d="m 15.780506,27.478877 2.362351,-2.55134 8.693452,2.267857 -1.511904,2.645834 -1.889881,1.984375 z"
       id="path2098" />
    <path
       style="fill:#990000;fill-opacity:1;stroke:#000000;stroke-width:0.529167;stroke-linecap:butt;stroke-linejoin:miter;stroke-miterlimit:4;stroke-dasharray:none;stroke-opacity:1"
       d="m 71.626488,27.006406 -3.023811,2.740328 -1.41741,-3.118304 0.188989,-1.700893 -1.13393,-1.889881 1.889881,-4.346728 2.267858,-1.6064 3.307292,-1.984376 h 2.55134 l 5.19717,-0.850447 1.417413,1.13393 1.984375,1.417411 0.188986,1.322917 -0.283482,0.850447 -3.874254,-0.377976 h -5.197173 l -2.078869,3.118305 -1.606399,1.700894 z"
       id="path2100" />
    <path
       style="fill:#b4e2ff;stroke:#000000;stroke-width:0.529167;stroke-linecap:butt;stroke-linejoin:miter;stroke-miterlimit:4;stroke-dasharray:none;stroke-opacity:1"
       d="m 75.576377,27.478877 2.362351,-2.55134 8.693452,2.267857 -1.511904,2.645834 -1.889881,1.984375 z"
       id="path2112" />
    <g
       id="g2179"
       transform="translate(0,12.170835)">
      <text
         xml:space="preserve"
         id="text2116"
         style="font-style:normal;font-weight:normal;font-size:7.05556px;line-height:1.25;font-family:sans-serif;white-space:pre;shape-inside:url(#rect2118);fill:#000000;fill-opacity:1;stroke:none;"
         transform="translate(12.85119,34.962798)"><tspan
           x="23.623047"
           y="-24.751624"><tspan
             style="font-size:7.05556px">1,5m</tspan></tspan></text>
      <path
         style="fill:none;stroke:#000000;stroke-width:0.529167;stroke-linecap:butt;stroke-linejoin:miter;stroke-miterlimit:4;stroke-dasharray:none;stroke-opacity:1;marker-start:url(#Arrow1Mstart);marker-end:url(#Arrow1Mend)"
         d="M 29.765625,12.37872 H 61.988093"
         id="path2122" />
    </g>
    <path
       style="fill:none;stroke:#000000;stroke-width:0.264583px;stroke-linecap:butt;stroke-linejoin:miter;stroke-opacity:1"
       d="M 24.054257,7.092713 H 77.705495"
       id="path3369"
       sodipodi:nodetypes="cc" />
    <path
       style="fill:none;stroke:#000000;stroke-width:0.264583px;stroke-linecap:butt;stroke-linejoin:miter;stroke-opacity:1"
       d="M 18.048363,3.6663699 31.088541,10.847918"
       id="path3371" />
    <path
       style="fill:none;stroke:#000000;stroke-width:0.264583px;stroke-linecap:butt;stroke-linejoin:miter;stroke-opacity:1"
       d="m 39.498511,3.6663698 2.834822,6.9925592"
       id="path3373"
       sodipodi:nodetypes="cc" />
    <path
       style="fill:none;stroke:#000000;stroke-width:0.264583px;stroke-linecap:butt;stroke-linejoin:miter;stroke-opacity:1"
       d="M 18.048363,3.6663701 80.981398,3.4773816"
       id="path3375"
       sodipodi:nodetypes="cc" />
    <path
       style="fill:none;stroke:#000000;stroke-width:0.264583px;stroke-linecap:butt;stroke-linejoin:miter;stroke-opacity:1"
       d="M 31.088541,10.847918 H 74.272322"
       id="path3377"
       sodipodi:nodetypes="cc" />
    <path
       style="fill:none;stroke:#000000;stroke-width:0.264583px;stroke-linecap:butt;stroke-linejoin:miter;stroke-opacity:1"
       d="M 62.177083,3.3828875 58.491815,10.753423"
       id="path3379" />
    <path
       style="fill:none;stroke:#000000;stroke-width:0.264583px;stroke-linecap:butt;stroke-linejoin:miter;stroke-opacity:1"
       d="M 80.981398,3.4773816 74.272322,10.847918"
       id="path3381" />
  </g>
</svg>
