<?xml version="1.0" encoding="UTF-8" standalone="no"?>
<svg
   xmlns:dc="http://purl.org/dc/elements/1.1/"
   xmlns:cc="http://creativecommons.org/ns#"
   xmlns:rdf="http://www.w3.org/1999/02/22-rdf-syntax-ns#"
   xmlns:svg="http://www.w3.org/2000/svg"
   xmlns="http://www.w3.org/2000/svg"
   xmlns:sodipodi="http://sodipodi.sourceforge.net/DTD/sodipodi-0.dtd"
   xmlns:inkscape="http://www.inkscape.org/namespaces/inkscape"
   width="400"
   height="250"
   viewBox="0 0 105.83333 66.145835"
   version="1.1"
   id="svg1498"
   inkscape:version="1.0.1 (3bc2e813f5, 2020-09-07)"
   sodipodi:docname="drum.svg"
   inkscape:export-filename="C:\Users\User\Abstand Decke.png"
   inkscape:export-xdpi="96"
   inkscape:export-ydpi="96">
  <defs
     id="defs1492">
    <marker
       style="overflow:visible"
       id="marker2227"
       refX="0"
       refY="0"
       orient="auto"
       inkscape:stockid="Arrow1Mend"
       inkscape:isstock="true">
      <path
         transform="matrix(-0.4,0,0,-0.4,-4,0)"
         style="fill:#000000;fill-opacity:1;fill-rule:evenodd;stroke:#000000;stroke-width:1pt;stroke-opacity:1"
         d="M 0,0 5,-5 -12.5,0 5,5 Z"
         id="path2225" />
    </marker>
    <marker
       style="overflow:visible"
       id="marker2217"
       refX="0"
       refY="0"
       orient="auto"
       inkscape:stockid="Arrow1Mstart"
       inkscape:isstock="true">
      <path
         transform="matrix(0.4,0,0,0.4,4,0)"
         style="fill:#000000;fill-opacity:1;fill-rule:evenodd;stroke:#000000;stroke-width:1pt;stroke-opacity:1"
         d="M 0,0 5,-5 -12.5,0 5,5 Z"
         id="path2215" />
    </marker>
    <marker
       style="overflow:visible"
       id="Arrow1Mend"
       refX="0"
       refY="0"
       orient="auto"
       inkscape:stockid="Arrow1Mend"
       inkscape:isstock="true"
       inkscape:collect="always">
      <path
         transform="matrix(-0.4,0,0,-0.4,-4,0)"
         style="fill:#000000;fill-opacity:1;fill-rule:evenodd;stroke:#000000;stroke-width:1pt;stroke-opacity:1"
         d="M 0,0 5,-5 -12.5,0 5,5 Z"
         id="path1167" />
    </marker>
    <marker
       style="overflow:visible"
       id="Arrow1Mstart"
       refX="0"
       refY="0"
       orient="auto"
       inkscape:stockid="Arrow1Mstart"
       inkscape:isstock="true"
       inkscape:collect="always">
      <path
         transform="matrix(0.4,0,0,0.4,4,0)"
         style="fill:#000000;fill-opacity:1;fill-rule:evenodd;stroke:#000000;stroke-width:1pt;stroke-opacity:1"
         d="M 0,0 5,-5 -12.5,0 5,5 Z"
         id="path1164" />
    </marker>
    <rect
       x="23.623512"
       y="-30.994047"
       width="36.474701"
       height="14.552083"
       id="rect2118" />
    <rect
       x="23.623512"
       y="-30.994047"
       width="36.474701"
       height="14.552083"
       id="rect2213" />
  </defs>
  <sodipodi:namedview
     id="base"
     pagecolor="#ffffff"
     bordercolor="#666666"
     borderopacity="1.0"
     inkscape:pageopacity="0.0"
     inkscape:pageshadow="2"
     inkscape:zoom="0.70710678"
     inkscape:cx="197.89401"
     inkscape:cy="99.517658"
     inkscape:document-units="mm"
     inkscape:current-layer="layer1"
     inkscape:document-rotation="0"
     showgrid="false"
     units="px"
     inkscape:window-width="1920"
     inkscape:window-height="1001"
     inkscape:window-x="-9"
     inkscape:window-y="-9"
     inkscape:window-maximized="1" />
  <metadata
     id="metadata1495">
    <rdf:RDF>
      <cc:Work
         rdf:about="">
        <dc:format>image/svg+xml</dc:format>
        <dc:type
           rdf:resource="http://purl.org/dc/dcmitype/StillImage" />
        <dc:title></dc:title>
      </cc:Work>
    </rdf:RDF>
  </metadata>
  <g
     inkscape:label="Ebene 1"
     inkscape:groupmode="layer"
     id="layer1">
    <path
       style="fill:#222222;stroke:#000000;stroke-width:0.52916667;stroke-linecap:round;stroke-linejoin:round;stroke-opacity:1;fill-opacity:1;stroke-miterlimit:4;stroke-dasharray:none"
       d="m 79.245414,58.398391 2.605879,-32.072343 0.868624,-1.670434 0.734991,-0.400905 2.939966,-1.804069 5.211754,0.200452 1.33635,1.202713 1.00226,1.135896 0.334087,1.069078 0.601355,1.002262 1.069078,31.470985 z"
       id="path1048" />
    <ellipse
       style="fill:#ffdb9d;stroke:#000000;stroke-width:0.529167;stroke-miterlimit:4;stroke-dasharray:none"
       id="ellipse1134"
       cx="88.105331"
       cy="15.77576"
       rx="8.6852827"
       ry="8.3233967" />
    <path
       style="fill:#111111;stroke:#000000;stroke-width:0.52916667;stroke-linecap:butt;stroke-linejoin:round;stroke-opacity:1;stroke-miterlimit:4;stroke-dasharray:none;fill-opacity:1"
       d="m 6.5481032,58.131122 18.5752318,0.267269 -2.004521,-31.67144 -0.400905,-1.202711 -2.004521,-2.004522 -1.469982,-0.400904 -4.409947,-1.469983 -3.474504,0.935444 -1.336348,1.069078 -0.9354431,1.202713 -0.8018086,2.539061 z"
       id="path995" />
    <ellipse
       style="fill:#ffdb9d;stroke:#000000;stroke-width:0.529167;stroke-miterlimit:4;stroke-dasharray:none"
       id="ellipse2078"
       cx="-16.039133"
       cy="15.54565"
       rx="8.6852827"
       ry="8.3233967"
       transform="scale(-1,1)" />
    <path
       style="fill:none;stroke:#000000;stroke-width:0.52916667;stroke-linecap:butt;stroke-linejoin:miter;stroke-miterlimit:4;stroke-dasharray:none;stroke-opacity:1"
       d="M 54.131032,57.388833 C 50.99455,54.173938 50.99455,54.173938 50.99455,54.173938"
       id="path933" />
    <path
       style="fill:none;stroke:#000000;stroke-width:0.52916667;stroke-linecap:butt;stroke-linejoin:miter;stroke-miterlimit:4;stroke-dasharray:none;stroke-opacity:1"
       d="m 38.260429,57.388833 c 3.136482,-3.214895 3.136482,-3.214895 3.136482,-3.214895"
       id="path931" />
    <path
       style="fill:#999999;stroke:#888888;stroke-width:0.52916667;stroke-linecap:butt;stroke-linejoin:round;stroke-opacity:1;stroke-miterlimit:4;stroke-dasharray:none;fill-opacity:1"
       d="m 43.750743,49.420385 3.685267,-21.544642 0.661458,-0.566962 1.133931,-0.944942 2.173361,-1.417411 2.078871,0.09449 2.078868,0.850447 1.606399,3.118304 1.133928,5.953125 1.417412,14.74107 z"
       id="path1065" />
    <g
       id="g949"
       transform="matrix(0.82093827,0.12101098,-0.12101098,0.82093827,15.719291,8.3878973)"
       style="stroke-width:0.6376968;stroke-miterlimit:4;stroke-dasharray:none">
      <path
         id="ellipse937"
         style="fill:#333366;stroke:#000000;stroke-width:2.41019265;stroke-linecap:round;stroke-linejoin:round;stroke-miterlimit:4;stroke-dasharray:none;stroke-opacity:1"
         d="m 133.41016,79.214844 a 17.500001,5.7142859 0 0 0 -17.06641,4.71289 h -0.62891 v 14.28711 h 35.35743 v -13.28711 -1 h -0.27149 a 17.500001,5.7142859 0 0 0 -17.22851,-4.71289 17.500001,5.7142859 0 0 0 -0.16211,0 z"
         transform="scale(0.26458333)" />
      <ellipse
         style="fill:#cccccc;stroke:#000000;stroke-width:0.6376968;stroke-linecap:round;stroke-linejoin:round;stroke-miterlimit:4;stroke-dasharray:none;stroke-opacity:1"
         id="path935"
         cx="35.340775"
         cy="26.174852"
         rx="4.6302085"
         ry="1.5119048" />
    </g>
    <g
       id="g955"
       transform="matrix(0.8294451,0.02457895,-0.02457895,0.8294451,22.874556,12.293377)"
       style="stroke-width:0.6376968;stroke-miterlimit:4;stroke-dasharray:none">
      <path
         id="path951"
         style="fill:#333366;stroke:#000000;stroke-width:2.41019266;stroke-linecap:round;stroke-linejoin:round;stroke-miterlimit:4;stroke-dasharray:none;stroke-opacity:1"
         d="m 133.41016,79.214844 a 17.500001,5.7142859 0 0 0 -17.06641,4.71289 h -0.62891 v 14.28711 h 35.35743 v -13.28711 -1 h -0.27149 a 17.500001,5.7142859 0 0 0 -17.22851,-4.71289 17.500001,5.7142859 0 0 0 -0.16211,0 z"
         transform="scale(0.26458333)" />
      <ellipse
         style="fill:#cccccc;stroke:#000000;stroke-width:0.6376968;stroke-linecap:round;stroke-linejoin:round;stroke-miterlimit:4;stroke-dasharray:none;stroke-opacity:1"
         id="ellipse953"
         cx="35.340775"
         cy="26.174852"
         rx="4.6302085"
         ry="1.5119048" />
    </g>
    <path
       style="fill:none;stroke:#000000;stroke-width:0.52916667;stroke-linecap:butt;stroke-linejoin:miter;stroke-miterlimit:4;stroke-dasharray:none;stroke-opacity:1"
       d="m 67.116056,31.669687 -0.07841,18.348414"
       id="path984" />
    <path
       id="ellipse959"
       style="fill:#333366;stroke:#000000;stroke-width:0.52916667;stroke-linecap:round;stroke-linejoin:round;stroke-miterlimit:4;stroke-dasharray:none;stroke-opacity:1"
       d="m 55.476248,42.97145 1.474264,13.602999 0.07503,-0.0081 a 0.50967819,8.5861171 83.814545 0 0 8.549809,-0.461207 0.50967819,8.5861171 83.814545 0 0 8.450103,-1.381208 l 0.03623,-0.0039 -0.0051,-0.04647 a 0.50967819,8.5861171 83.814545 0 0 -2.77e-4,-0.0026 L 72.587425,41.116977 Z" />
    <ellipse
       style="fill:#cccccc;fill-opacity:1;stroke:#000000;stroke-width:0.52916667;stroke-linecap:round;stroke-linejoin:round;stroke-miterlimit:4;stroke-dasharray:none;stroke-opacity:1"
       id="path957"
       cx="59.148453"
       cy="48.722157"
       rx="8.5861177"
       ry="0.50967818"
       transform="rotate(-6.1854545)" />
    <circle
       style="fill:#cccccc;stroke:#000000;stroke-width:0.52916667;stroke-linecap:round;stroke-linejoin:round;stroke-miterlimit:4;stroke-dasharray:none;stroke-opacity:1"
       id="path905"
       cx="46.336864"
       cy="46.25433"
       r="11.526568" />
    <ellipse
       style="fill:#cccccc;fill-opacity:1;stroke:#000000;stroke-width:0.52916667;stroke-linecap:round;stroke-linejoin:round;stroke-miterlimit:4;stroke-dasharray:none;stroke-opacity:1"
       id="path968"
       cx="-38.288937"
       cy="25.248329"
       rx="5.41043"
       ry="0.58809024"
       transform="matrix(-0.99558916,-0.09382013,-0.09382013,0.99558916,0,0)" />
    <path
       style="fill:none;stroke:#000000;stroke-width:0.52916667;stroke-linecap:butt;stroke-linejoin:miter;stroke-miterlimit:4;stroke-dasharray:none;stroke-opacity:1"
       d="m 35.829656,28.846854 -4.391073,5.567255"
       id="path970"
       sodipodi:nodetypes="cc" />
    <path
       style="fill:none;stroke:#000000;stroke-width:0.52916667;stroke-linecap:butt;stroke-linejoin:miter;stroke-miterlimit:4;stroke-dasharray:none;stroke-opacity:1"
       d="m 31.595408,31.748099 0.156823,23.131549 2.27395,2.901245"
       id="path972" />
    <path
       style="fill:none;stroke:#000000;stroke-width:0.52916667;stroke-linecap:butt;stroke-linejoin:miter;stroke-miterlimit:4;stroke-dasharray:none;stroke-opacity:1"
       d="M 31.752231,54.879648 29.635107,57.70248"
       id="path974" />
    <path
       style="fill:none;stroke:#000000;stroke-width:0.52916667;stroke-linecap:butt;stroke-linejoin:miter;stroke-miterlimit:4;stroke-dasharray:none;stroke-opacity:1"
       d="m 70.879834,48.76351 0.392059,8.782147"
       id="path976" />
    <ellipse
       style="fill:#cccccc;fill-opacity:1;stroke:#000000;stroke-width:0.52916667;stroke-linecap:round;stroke-linejoin:round;stroke-miterlimit:4;stroke-dasharray:none;stroke-opacity:1"
       id="path978"
       cx="67.194473"
       cy="30.963978"
       rx="4.6263094"
       ry="0.62729627" />
    <ellipse
       style="fill:#cccccc;fill-opacity:1;stroke:#000000;stroke-width:0.52916667;stroke-linecap:round;stroke-linejoin:round;stroke-miterlimit:4;stroke-dasharray:none;stroke-opacity:1"
       id="ellipse980"
       cx="67.194473"
       cy="30.085762"
       rx="4.6263094"
       ry="0.62729627" />
    <path
       style="fill:none;stroke:#000000;stroke-width:0.52916667;stroke-linecap:butt;stroke-linejoin:miter;stroke-miterlimit:4;stroke-dasharray:none;stroke-opacity:1"
       d="M 67.116056,30.023035 V 27.592262"
       id="path982" />
    <g
       id="g993"
       transform="translate(0,3.1750001)">
      <path
         style="fill:#ff3300;stroke:#000000;stroke-width:0.529167;stroke-linecap:butt;stroke-linejoin:miter;stroke-miterlimit:4;stroke-dasharray:none;stroke-opacity:1"
         d="M 11.816573,35.971127 1.7668729,39.382493 7.8520077,40.488883 5.7314316,47.219416 14.12155,37.261915 V 36.063326 L 13.291757,35.878928 Z"
         id="path986" />
      <path
         style="fill:#996600;stroke:#000000;stroke-width:0.529167;stroke-linecap:butt;stroke-linejoin:miter;stroke-miterlimit:4;stroke-dasharray:none;stroke-opacity:1"
         d="m 11.401676,36.847018 14.014258,-11.01779 0.875893,1.060289 -14.336958,11.386587 z"
         id="path989" />
    </g>
    <path
       style="fill:#ffffff;fill-opacity:1;stroke:#000000;stroke-width:0.529167;stroke-linecap:round;stroke-linejoin:round;stroke-miterlimit:4;stroke-dasharray:none;stroke-opacity:1"
       d="m 10.441592,28.017486 0.917363,-5.433211 -2.1930285,-2.362549 -0.1889882,-4.204985 0.3307292,-2.787574 1.9371285,-3.3072921 3.212797,-1.2284226 3.307292,-0.6142114 0.708705,0.9449406 1.322917,0.283482 1.039434,0.9449405 1.322917,1.322917 0.897693,1.511905 -0.188988,2.882068 0.425223,2.173363 -0.04725,2.126116 -1.322916,1.370164 -1.810588,1.245816 1.007388,5.416015 1.086682,-0.992187 0.377976,1.322916 1.322917,-2.976563 0.283482,1.795386 0.803199,-4.44122 0.566965,1.653646 0.47247,-6.000372 1.039435,2.031622 L 25.040922,9.9691218 24.473958,10.677827 23.103794,7.7012648 21.969866,7.3232885 20.930431,5.3861607 19.229538,5.3389135 17.859375,4.5829614 15.544271,5.4806548 13.937872,5.4334076 12.898437,6.3783482 10.961309,6.1421131 9.874628,7.0870534 8.6934523,7.1343006 8.031994,9.1186756 7.2760416,8.7879464 6.8980655,9.6383926 7.0398065,10.725074 6.0948659,12.520461 v 1.27567 l -0.4724701,4.015997 0.6614583,0.09449 -0.3307292,5.480654 -0.6614583,1.842634 0.9921875,-0.188988 v 2.220609 l 0.8031993,-1.700891 0.1417413,2.07887 1.0394344,-2.031623 0.017126,1.78724 1.4475314,-1.598252 z"
       id="path1011"
       sodipodi:nodetypes="cccccccccccccccccccccccccccccccccccccccccccccccccccccccccc" />
    <path
       style="fill:#deffff;stroke:#000000;stroke-width:0.525882;stroke-linecap:butt;stroke-linejoin:miter;stroke-miterlimit:4;stroke-dasharray:none;stroke-opacity:1"
       d="m 82.518765,29.996699 1.22827,-1.070155 0.511376,1.665287 0.03414,-0.130259 -1.502084,5.731394 -1.194141,0.939893 -0.579643,-1.404766 z"
       id="path1013" />
    <path
       style="fill:#deffff;stroke:#000000;stroke-width:0.525882;stroke-linecap:butt;stroke-linejoin:miter;stroke-miterlimit:4;stroke-dasharray:none;stroke-opacity:1"
       d="m 84.023878,30.391159 1.22827,-1.070155 0.511376,1.665287 0.03414,-0.130259 -1.502083,5.731394 -1.194142,0.939893 -0.579643,-1.404766 z"
       id="path1015" />
    <path
       style="fill:#deffff;stroke:#000000;stroke-width:0.525882;stroke-linecap:butt;stroke-linejoin:miter;stroke-miterlimit:4;stroke-dasharray:none;stroke-opacity:1"
       d="m 85.528991,30.785619 1.22827,-1.070155 0.511376,1.665287 0.03414,-0.130259 -1.502084,5.731394 -1.194141,0.939893 -0.579643,-1.404766 z"
       id="path1017" />
    <path
       style="fill:#deffff;stroke:#000000;stroke-width:0.525882;stroke-linecap:butt;stroke-linejoin:miter;stroke-miterlimit:4;stroke-dasharray:none;stroke-opacity:1"
       d="m 87.034103,31.180078 1.228271,-1.070154 0.511376,1.665287 0.03414,-0.130259 -1.502084,5.731394 -1.194141,0.939893 -0.579643,-1.404766 z"
       id="path1019" />
    <path
       style="fill:#deffff;stroke:#000000;stroke-width:0.525882;stroke-linecap:butt;stroke-linejoin:miter;stroke-miterlimit:4;stroke-dasharray:none;stroke-opacity:1"
       d="m 88.539216,31.574538 1.22827,-1.070154 0.511376,1.665287 0.03414,-0.130259 -1.502084,5.731394 -1.194141,0.939893 -0.579643,-1.404766 z"
       id="path1021" />
    <path
       style="fill:#deffff;stroke:#000000;stroke-width:0.525882;stroke-linecap:butt;stroke-linejoin:miter;stroke-miterlimit:4;stroke-dasharray:none;stroke-opacity:1"
       d="m 90.044329,31.968998 1.22827,-1.070154 0.511376,1.665287 0.03414,-0.130259 -1.502083,5.731394 -1.194142,0.939893 -0.579643,-1.404767 z"
       id="path1023" />
    <path
       style="fill:#deffff;stroke:#000000;stroke-width:0.525882;stroke-linecap:butt;stroke-linejoin:miter;stroke-miterlimit:4;stroke-dasharray:none;stroke-opacity:1"
       d="m 90.044329,31.968998 1.22827,-1.070154 0.511376,1.665287 0.03414,-0.130259 -1.502083,5.731394 -1.194142,0.939893 -0.579643,-1.404767 z"
       id="path1025" />
    <rect
       style="fill:#ff3300;fill-opacity:1;stroke:#000000;stroke-width:0.525882;stroke-linecap:round;stroke-linejoin:round;stroke-miterlimit:4;stroke-dasharray:none;stroke-opacity:1"
       id="rect1031"
       width="3.3399291"
       height="9.2240829"
       x="97.146309"
       y="6.2788491"
       transform="rotate(14.685787)" />
    <rect
       style="fill:#ff3300;fill-opacity:1;stroke:#000000;stroke-width:0.525882;stroke-linecap:round;stroke-linejoin:round;stroke-miterlimit:4;stroke-dasharray:none;stroke-opacity:1"
       id="rect1033"
       width="3.3399291"
       height="9.2240829"
       x="84.180229"
       y="6.2788491"
       transform="rotate(14.685787)" />
    <path
       style="fill:#996600;stroke:#000000;stroke-width:0.52916667;stroke-linecap:butt;stroke-linejoin:miter;stroke-opacity:1;stroke-miterlimit:4;stroke-dasharray:none"
       d="m 81.075891,23.151041 -0.188986,-6.425595 1.322917,-5.764137 2.456844,-1.6063984 4.630208,-0.5669642 5.102677,2.9293156 1.228424,3.023809 v 2.740328 l -0.377976,5.669642 0.944941,-0.94494 1.039434,0.755952 0.472469,-2.834821 1.511906,-3.02381 L 98.74628,13.796131 97.801339,10.866815 95.911457,8.9769343 95.249999,7.8430058 92.982141,6.6145832 91.470238,5.2916666 89.296874,5.7641368 84.28869,6.2366072 l -1.984375,0.9449403 -2.645833,1.2284226 -0.661459,3.1183039 -1.795388,3.307291 0.472472,1.606399 -0.09449,2.929316 1.41741,1.700892 0.850445,1.511905 z"
       id="path1059" />
    <ellipse
       style="fill:#ffefd0;stroke:#888888;stroke-width:0.459298;stroke-miterlimit:4;stroke-dasharray:none;fill-opacity:1;stroke-opacity:1"
       id="ellipse1061"
       cx="52.055317"
       cy="19.366533"
       rx="7.5385065"
       ry="7.2244029" />
    <path
       style="fill:#cc8888;stroke:#888888;stroke-width:0.52916667;stroke-linecap:round;stroke-linejoin:round;stroke-opacity:1;stroke-miterlimit:4;stroke-dasharray:none;fill-opacity:1"
       d="m 49.231399,26.363839 -1.795389,1.511904 -0.196122,1.54395 -0.982216,-0.04677 v -1.730568 l -0.654809,0.280633 -0.140316,-1.403164 -0.935445,0.608036 -1.356392,-4.77076 0.140316,-6.969053 1.683798,-2.432153 0.654809,-0.04677 1.964434,-1.262849 4.77076,-1.028987 2.899873,0.561266 2.057977,1.028988 2.104747,1.075759 0.841899,1.683798 1.075759,1.73057 -0.374177,2.057976 0.748356,1.870887 -0.233863,4.723988 -0.935442,2.57247 -0.280633,2.712786 -0.608039,1.964431 -0.654809,1.028986 -0.841899,-0.04677 -1.015678,-4.572748 -1.606399,-3.118303 1.826951,-1.944016 0.888669,-2.993418 v -3.507913 l -0.561266,-0.888671 -2.011204,-2.198292 -1.917657,-0.467721 -2.432153,-0.374178 -2.057974,0.233861 -1.075762,0.42095 -0.561266,1.449937 -1.824114,2.572469 -0.04677,1.262848 0.701582,2.104748 -0.233863,1.637026 v 0.841899 l 1.590255,1.356393 1.383472,0.966552"
       id="path1067" />
    <text
       xml:space="preserve"
       id="text2116"
       style="font-style:normal;font-weight:normal;font-size:12.672px;line-height:1.25;font-family:sans-serif;white-space:pre;shape-inside:url(#rect2118);fill:#000000;fill-opacity:1;stroke:none;stroke-width:0.594;stroke-miterlimit:4;stroke-dasharray:none;"
       transform="matrix(0.89085354,0,0,0.89085354,15.775202,33.008351)"><tspan
         x="23.623047"
         y="-19.782391"><tspan
           style="font-size:12.672px;stroke-width:0.594;stroke-miterlimit:4;stroke-dasharray:none">1,5m</tspan></tspan></text>
    <path
       style="fill:none;stroke:#000000;stroke-width:0.79375;stroke-linecap:butt;stroke-linejoin:miter;stroke-miterlimit:4;stroke-dasharray:none;stroke-opacity:1;marker-start:url(#Arrow1Mstart);marker-end:url(#Arrow1Mend)"
       d="M 29.312683,18.445496 H 73.515207"
       id="path2122"
       sodipodi:nodetypes="cc" />
  </g>
</svg>
