<?xml version="1.0" encoding="UTF-8" standalone="no"?>
<svg
   xmlns:dc="http://purl.org/dc/elements/1.1/"
   xmlns:cc="http://creativecommons.org/ns#"
   xmlns:rdf="http://www.w3.org/1999/02/22-rdf-syntax-ns#"
   xmlns:svg="http://www.w3.org/2000/svg"
   xmlns="http://www.w3.org/2000/svg"
   xmlns:sodipodi="http://sodipodi.sourceforge.net/DTD/sodipodi-0.dtd"
   xmlns:inkscape="http://www.inkscape.org/namespaces/inkscape"
   width="400"
   height="250"
   viewBox="0 0 105.83333 66.145835"
   version="1.1"
   id="svg1498"
   inkscape:version="1.0.1 (3bc2e813f5, 2020-09-07)"
   sodipodi:docname="Abstand Dude.svg"
   inkscape:export-filename="C:\Users\User\Abstand Dude.png"
   inkscape:export-xdpi="96"
   inkscape:export-ydpi="96">
  <defs
     id="defs1492">
    <marker
       style="overflow:visible"
       id="marker2227"
       refX="0"
       refY="0"
       orient="auto"
       inkscape:stockid="Arrow1Mend"
       inkscape:isstock="true">
      <path
         transform="matrix(-0.4,0,0,-0.4,-4,0)"
         style="fill:#000000;fill-opacity:1;fill-rule:evenodd;stroke:#000000;stroke-width:1pt;stroke-opacity:1"
         d="M 0,0 5,-5 -12.5,0 5,5 Z"
         id="path2225" />
    </marker>
    <marker
       style="overflow:visible"
       id="marker2217"
       refX="0"
       refY="0"
       orient="auto"
       inkscape:stockid="Arrow1Mstart"
       inkscape:isstock="true">
      <path
         transform="matrix(0.4,0,0,0.4,4,0)"
         style="fill:#000000;fill-opacity:1;fill-rule:evenodd;stroke:#000000;stroke-width:1pt;stroke-opacity:1"
         d="M 0,0 5,-5 -12.5,0 5,5 Z"
         id="path2215" />
    </marker>
    <marker
       style="overflow:visible"
       id="Arrow1Mend"
       refX="0"
       refY="0"
       orient="auto"
       inkscape:stockid="Arrow1Mend"
       inkscape:isstock="true"
       inkscape:collect="always">
      <path
         transform="matrix(-0.4,0,0,-0.4,-4,0)"
         style="fill:#000000;fill-opacity:1;fill-rule:evenodd;stroke:#000000;stroke-width:1pt;stroke-opacity:1"
         d="M 0,0 5,-5 -12.5,0 5,5 Z"
         id="path1167" />
    </marker>
    <marker
       style="overflow:visible"
       id="Arrow1Mstart"
       refX="0"
       refY="0"
       orient="auto"
       inkscape:stockid="Arrow1Mstart"
       inkscape:isstock="true"
       inkscape:collect="always">
      <path
         transform="matrix(0.4,0,0,0.4,4,0)"
         style="fill:#000000;fill-opacity:1;fill-rule:evenodd;stroke:#000000;stroke-width:1pt;stroke-opacity:1"
         d="M 0,0 5,-5 -12.5,0 5,5 Z"
         id="path1164" />
    </marker>
    <rect
       x="23.623512"
       y="-30.994047"
       width="36.474701"
       height="14.552083"
       id="rect2118" />
    <rect
       x="23.623512"
       y="-30.994047"
       width="36.474701"
       height="14.552083"
       id="rect2213" />
  </defs>
  <sodipodi:namedview
     id="base"
     pagecolor="#ffffff"
     bordercolor="#666666"
     borderopacity="1.0"
     inkscape:pageopacity="0.0"
     inkscape:pageshadow="2"
     inkscape:zoom="2"
     inkscape:cx="268.83767"
     inkscape:cy="145.24996"
     inkscape:document-units="mm"
     inkscape:current-layer="layer1"
     inkscape:document-rotation="0"
     showgrid="false"
     units="px"
     inkscape:window-width="1920"
     inkscape:window-height="1001"
     inkscape:window-x="-9"
     inkscape:window-y="-9"
     inkscape:window-maximized="1" />
  <metadata
     id="metadata1495">
    <rdf:RDF>
      <cc:Work
         rdf:about="">
        <dc:format>image/svg+xml</dc:format>
        <dc:type
           rdf:resource="http://purl.org/dc/dcmitype/StillImage" />
        <dc:title></dc:title>
      </cc:Work>
    </rdf:RDF>
  </metadata>
  <g
     inkscape:label="Ebene 1"
     inkscape:groupmode="layer"
     id="layer1">
    <ellipse
       style="fill:#ffdb9d;stroke:#000000;stroke-width:0.529167;stroke-miterlimit:4;stroke-dasharray:none"
       id="ellipse1134"
       cx="22.852154"
       cy="23.704809"
       rx="8.9506483"
       ry="8.5777054" />
    <path
       style="fill:#ffffff;fill-opacity:1;stroke:#000000;stroke-width:0.529167;stroke-linecap:butt;stroke-linejoin:miter;stroke-miterlimit:4;stroke-dasharray:none;stroke-opacity:1"
       d="m 74.484425,52.152934 2.004521,-17.439337 0.737674,-1.354248 1.74814,-1.606399 6.99256,-0.236234 1.417411,1.511904 0.708705,1.984375 1.558535,17.540843 z"
       id="path3425-9" />
    <ellipse
       style="fill:#ffdb9d;stroke:#000000;stroke-width:0.529167;stroke-miterlimit:4;stroke-dasharray:none"
       id="ellipse2078"
       cx="82.118874"
       cy="23.704809"
       rx="8.9506483"
       ry="8.5777054" />
    <g
       id="g2179"
       transform="translate(6.2968161,11.609569)">
      <text
         xml:space="preserve"
         id="text2116"
         style="font-style:normal;font-weight:normal;font-size:7.05556px;line-height:1.25;font-family:sans-serif;white-space:pre;shape-inside:url(#rect2118);fill:#000000;fill-opacity:1;stroke:none;"
         transform="translate(12.85119,34.962798)"><tspan
           x="23.623047"
           y="-24.751624"><tspan
             style="font-size:7.05556px">1,5m</tspan></tspan></text>
      <path
         style="fill:none;stroke:#000000;stroke-width:0.529167;stroke-linecap:butt;stroke-linejoin:miter;stroke-miterlimit:4;stroke-dasharray:none;stroke-opacity:1;marker-start:url(#Arrow1Mstart);marker-end:url(#Arrow1Mend)"
         d="M 29.765625,12.37872 H 61.988093"
         id="path2122" />
    </g>
    <path
       style="fill:#cc9900;stroke:#000000;stroke-width:0.529167;stroke-linecap:butt;stroke-linejoin:round;stroke-miterlimit:4;stroke-dasharray:none;stroke-opacity:1"
       d="m 19.671037,25.096608 2.739513,0.400905 4.242904,-0.200452 -0.100226,-0.501131 -3.507913,-0.668174 -3.340869,0.367496 z"
       id="path3421" />
    <path
       style="fill:#cc9900;stroke:#000000;stroke-width:0.529167;stroke-linecap:butt;stroke-linejoin:round;stroke-miterlimit:4;stroke-dasharray:none;stroke-opacity:1"
       d="m 15.194272,34.651494 0.26727,-6.080381 -1.570208,-3.942226 0.601356,-3.942226 1.904296,-2.004521 3.407686,-1.904295 2.906556,-0.300679 3.57473,0.167044 2.572469,0.968852 1.403165,1.804069 1.069079,2.505652 0.400903,2.605878 -0.200451,1.570209 -0.567948,1.369756 -0.26727,0.935442 -0.100226,6.447877 1.03567,-0.634764 0.634766,0.501131 0.434311,-0.668173 0.367495,-0.701585 0.300681,-2.23838 0.334086,-2.739515 0.03341,-4.109268 -0.601358,-6.314242 -1.369756,-3.0736 -0.734991,-0.968852 -0.567948,0.334087 -1.302939,-0.935443 -2.873147,-0.501131 -2.204973,-0.7684 -2.204974,0.200452 h -2.338609 l -2.271791,0.567948 -1.80407,0.634765 -1.002261,1.670435 -0.868626,1.102487 -0.701582,0.167043 -1.369756,3.775182 0.03341,5.980157 0.601356,3.374276 -0.100226,1.870887 0.334087,-0.334086 -0.300678,3.240643 0.902034,-0.267269 1.102487,0.501129 0.434313,-0.501129 z"
       id="path3423" />
    <path
       style="fill:#ffffff;fill-opacity:1;stroke:#000000;stroke-width:0.529167;stroke-linecap:butt;stroke-linejoin:miter;stroke-miterlimit:4;stroke-dasharray:none;stroke-opacity:1"
       d="m 15.394725,51.021752 2.004521,-17.439336 0.737674,-1.354248 1.74814,-1.606399 6.99256,-0.236234 1.417411,1.511904 0.708705,1.984375 1.558535,17.540842 z"
       id="path3425" />
    <path
       style="fill:#333366;stroke:#000000;stroke-width:0.529167;stroke-linecap:butt;stroke-linejoin:miter;stroke-miterlimit:4;stroke-dasharray:none;stroke-opacity:1"
       d="M 15.394725,51.021752 13.837441,62.277275 31.035358,62.560757 30.562271,51.422656 Z"
       id="path3431" />
    <path
       style="fill:#ff794b;stroke:#000000;stroke-width:0.529167;stroke-linecap:butt;stroke-linejoin:miter;stroke-miterlimit:4;stroke-dasharray:none;stroke-opacity:1"
       d="m 18.608641,55.979603 0.227179,-24.602161 -1.169304,0.100227 -1.03567,0.968851 -0.701582,1.703843 -0.434313,3.407688 -1.832252,18.61486 z"
       id="path3427"
       sodipodi:nodetypes="cccccccc" />
    <path
       style="fill:#cc9900;stroke:#000000;stroke-width:0.529167;stroke-linecap:butt;stroke-linejoin:round;stroke-miterlimit:4;stroke-dasharray:none;stroke-opacity:1"
       d="m 19.470585,26.432957 -0.200452,6.280832 1.603617,0.534541 2.338609,0.200451 2.071338,-0.267269 1.737252,-0.668174 -0.200452,-5.946748 h -0.534539 l -0.334087,2.138156 -0.400904,0.935445 -1.5368,0.801809 h -2.004521 l -0.801809,-0.267271 -0.668174,-0.46772 -0.534539,-1.737254 -0.200452,-1.46998 z"
       id="path3419" />
    <path
       style="fill:#ff794b;stroke:#000000;stroke-width:0.529167;stroke-linecap:butt;stroke-linejoin:miter;stroke-miterlimit:4;stroke-dasharray:none;stroke-opacity:1"
       d="m 29.535757,32.44652 4.52341,6.868703 1.606399,-2.456847 1.842635,2.834823 -1.937128,2.50409 -0.897695,0.425225 h -0.755951 l -1.086684,-0.330729 -0.897691,-0.755954 -1.133929,-1.795386 -1.606399,-1.937128 0.343033,-5.356797"
       id="path3439" />
    <path
       style="fill:#ff794b;stroke:#000000;stroke-width:0.529167;stroke-linecap:butt;stroke-linejoin:miter;stroke-miterlimit:4;stroke-dasharray:none;stroke-opacity:1"
       d="m 27.277329,56.026375 0.05345,-24.648933 1.169304,0.100227 1.03567,0.968851 0.701582,1.703843 0.434313,3.407688 1.270987,18.801948 z"
       id="path3429"
       sodipodi:nodetypes="cccccccc" />
    <path
       style="fill:none;stroke:#000000;stroke-width:0.529167;stroke-linecap:butt;stroke-linejoin:miter;stroke-miterlimit:4;stroke-dasharray:none;stroke-opacity:1"
       d="m 35.57107,35.582707 -0.09449,5.575148 h 5.008184 l 0.09449,-5.669642 z"
       id="path3433"
       sodipodi:nodetypes="ccccc" />
    <path
       style="fill:#ffedce;fill-opacity:1;stroke:#000000;stroke-width:0.264583px;stroke-linecap:butt;stroke-linejoin:miter;stroke-opacity:1"
       d="m 35.665566,36.858376 4.819194,-0.04725 3e-6,4.346725 h -5.008184 z"
       id="path3435" />
    <path
       style="fill:#cc9900;stroke:#000000;stroke-width:0.529167;stroke-linecap:butt;stroke-linejoin:miter;stroke-miterlimit:4;stroke-dasharray:none;stroke-opacity:1"
       d="m 78.025746,47.007996 -0.100226,-14.499373 -1.169304,0.100227 -1.03567,0.968851 -0.701582,1.703843 -0.434313,3.407688 -0.429087,8.371755 z"
       id="path3427-0" />
    <path
       style="fill:#cc9900;stroke:#000000;stroke-width:0.529167;stroke-linecap:butt;stroke-linejoin:miter;stroke-miterlimit:4;stroke-dasharray:none;stroke-opacity:1"
       d="m 86.320257,47.007996 0.100226,-14.499373 1.169304,0.100227 1.03567,0.968851 0.701582,1.703843 0.434313,3.407688 0.429088,8.371755 z"
       id="path3429-1" />
    <path
       style="fill:#558855;fill-opacity:1;stroke:#000000;stroke-width:0.529167;stroke-linecap:butt;stroke-linejoin:miter;stroke-miterlimit:4;stroke-dasharray:none;stroke-opacity:1"
       d="M 74.484425,52.152934 72.927141,63.408457 90.125058,63.691939 89.651971,52.553838 Z"
       id="path3431-0" />
    <path
       style="fill:none;stroke:#000000;stroke-width:0.529167;stroke-linecap:butt;stroke-linejoin:miter;stroke-miterlimit:4;stroke-dasharray:none;stroke-opacity:1"
       d="m 80.644732,21.796025 c 3.704167,0 3.241146,-0.06614 3.241146,-0.06614"
       id="path3498" />
    <ellipse
       style="fill:#ff9933;fill-opacity:1;stroke:#000000;stroke-width:0.529167;stroke-linecap:round;stroke-linejoin:round;stroke-miterlimit:4;stroke-dasharray:none;stroke-opacity:1"
       id="path3492"
       ry="2.4804688"
       rx="2.811198"
       cy="22.75514"
       cx="78.759575" />
    <ellipse
       style="fill:#ff9933;fill-opacity:1;stroke:#000000;stroke-width:0.529167;stroke-linecap:round;stroke-linejoin:round;stroke-miterlimit:4;stroke-dasharray:none;stroke-opacity:1"
       id="ellipse3496"
       cx="85.638748"
       cy="22.75514"
       rx="2.811198"
       ry="2.4804688" />
    <path
       style="fill:#996600;stroke:#000000;stroke-width:0.529167;stroke-linecap:butt;stroke-linejoin:round;stroke-miterlimit:4;stroke-dasharray:none;stroke-opacity:1"
       d="m 72.508795,21.994463 0.992187,-0.198438 1.785938,-2.976562 3.373437,-2.447396 4.564063,-0.595312 2.778124,0.46302 2.182813,1.653646 0.661458,1.190625 1.190625,1.984375 0.330729,0.727604 1.455209,0.198438 -0.463021,-1.918229 -1.058333,-1.852084 -1.455209,-1.785937 -2.579687,-1.521354 -1.852083,-0.79375 H 80.51244 l -4.365625,1.852083 -1.918229,1.653646 -1.190625,2.315104 z"
       id="path3500" />
    <path
       style="fill:#996600;stroke:#000000;stroke-width:0.529167;stroke-linecap:butt;stroke-linejoin:round;stroke-miterlimit:4;stroke-dasharray:none;stroke-opacity:1"
       d="m 76.411399,30.791859 1.09008,1.013214 1.333008,0.561265 1.449938,0.327406 1.800728,0.11693 2.315223,-0.210473 0.724969,-0.280633 1.824114,-0.841899 0.912056,-0.537882 -0.07016,-0.491106 -0.420949,-0.42095 -0.724969,0.30402 -1.379779,0.818512 -1.216078,0.280633 -1.496708,0.257247 -1.145918,-0.140317 -1.637027,-0.23386 -1.543482,-0.608039 -0.888669,-0.397563 -0.631425,-0.420949 z"
       id="path3502" />
    <path
       style="fill:#996600;stroke:#000000;stroke-width:0.529167;stroke-linecap:butt;stroke-linejoin:round;stroke-miterlimit:4;stroke-dasharray:none;stroke-opacity:1"
       d="m 79.11512,29.156487 0.631426,-2.081363 0.444333,-0.46772 0.397566,-0.233863 0.654809,-0.163703 0.631425,-0.140316 0.514493,-0.02339 0.631423,0.11693 0.327406,0.02339 0.467723,0.11693 0.280633,0.140316 0.304019,0.257247 0.09354,0.140316 0.374177,0.514493 0.04677,0.280633 0.210476,0.514495 0.07016,0.327404 0.07016,0.327406 c 0,0 0,-0.04677 0,0.187089 0,0.23386 0,0.397563 0,0.397563 l -0.467722,0.02339 -0.280633,-0.608039 -0.257246,-0.467722 -0.163703,-0.584653 -0.514493,-0.397562 -0.350793,-0.187087 -0.304019,-0.07016 -0.584653,-0.04677 -0.514493,-0.02339 h -0.561266 l -0.537879,0.23386 -0.327406,0.374176 -0.210476,0.30402 -0.11693,0.187089 -0.397563,0.77174 -0.280633,0.491109 z"
       id="path3504" />
    <path
       style="fill:#ffccff;stroke:#6666cc;stroke-width:0.529167;stroke-linecap:butt;stroke-linejoin:miter;stroke-miterlimit:4;stroke-dasharray:none;stroke-opacity:1"
       d="M 33.488871,63.703691 69.50344,63.984324 63.423059,60.897362 38.259634,60.616729 Z"
       id="path3506" />
  </g>
</svg>
