<?xml version="1.0" encoding="UTF-8" standalone="no"?>
<svg
   xmlns:dc="http://purl.org/dc/elements/1.1/"
   xmlns:cc="http://creativecommons.org/ns#"
   xmlns:rdf="http://www.w3.org/1999/02/22-rdf-syntax-ns#"
   xmlns:svg="http://www.w3.org/2000/svg"
   xmlns="http://www.w3.org/2000/svg"
   xmlns:sodipodi="http://sodipodi.sourceforge.net/DTD/sodipodi-0.dtd"
   xmlns:inkscape="http://www.inkscape.org/namespaces/inkscape"
   width="400"
   height="250"
   viewBox="0 0 105.83333 66.145835"
   version="1.1"
   id="svg1498"
   inkscape:version="1.0.1 (3bc2e813f5, 2020-09-07)"
   sodipodi:docname="fahrrad.svg"
   inkscape:export-filename="C:\Users\User\Abstand Decke.png"
   inkscape:export-xdpi="96"
   inkscape:export-ydpi="96">
  <defs
     id="defs1492">
    <marker
       style="overflow:visible"
       id="marker2227"
       refX="0"
       refY="0"
       orient="auto"
       inkscape:stockid="Arrow1Mend"
       inkscape:isstock="true">
      <path
         transform="matrix(-0.4,0,0,-0.4,-4,0)"
         style="fill:#000000;fill-opacity:1;fill-rule:evenodd;stroke:#000000;stroke-width:1pt;stroke-opacity:1"
         d="M 0,0 5,-5 -12.5,0 5,5 Z"
         id="path2225" />
    </marker>
    <marker
       style="overflow:visible"
       id="marker2217"
       refX="0"
       refY="0"
       orient="auto"
       inkscape:stockid="Arrow1Mstart"
       inkscape:isstock="true">
      <path
         transform="matrix(0.4,0,0,0.4,4,0)"
         style="fill:#000000;fill-opacity:1;fill-rule:evenodd;stroke:#000000;stroke-width:1pt;stroke-opacity:1"
         d="M 0,0 5,-5 -12.5,0 5,5 Z"
         id="path2215" />
    </marker>
    <marker
       style="overflow:visible"
       id="Arrow1Mend"
       refX="0"
       refY="0"
       orient="auto"
       inkscape:stockid="Arrow1Mend"
       inkscape:isstock="true"
       inkscape:collect="always">
      <path
         transform="matrix(-0.4,0,0,-0.4,-4,0)"
         style="fill:#000000;fill-opacity:1;fill-rule:evenodd;stroke:#000000;stroke-width:1pt;stroke-opacity:1"
         d="M 0,0 5,-5 -12.5,0 5,5 Z"
         id="path1167" />
    </marker>
    <marker
       style="overflow:visible"
       id="Arrow1Mstart"
       refX="0"
       refY="0"
       orient="auto"
       inkscape:stockid="Arrow1Mstart"
       inkscape:isstock="true"
       inkscape:collect="always">
      <path
         transform="matrix(0.4,0,0,0.4,4,0)"
         style="fill:#000000;fill-opacity:1;fill-rule:evenodd;stroke:#000000;stroke-width:1pt;stroke-opacity:1"
         d="M 0,0 5,-5 -12.5,0 5,5 Z"
         id="path1164" />
    </marker>
    <rect
       x="23.623512"
       y="-30.994047"
       width="36.474701"
       height="14.552083"
       id="rect2118" />
    <rect
       x="23.623512"
       y="-30.994047"
       width="36.474701"
       height="14.552083"
       id="rect2213" />
  </defs>
  <sodipodi:namedview
     id="base"
     pagecolor="#ffffff"
     bordercolor="#666666"
     borderopacity="1.0"
     inkscape:pageopacity="0.0"
     inkscape:pageshadow="2"
     inkscape:zoom="1.4"
     inkscape:cx="130.00564"
     inkscape:cy="81.807831"
     inkscape:document-units="mm"
     inkscape:current-layer="layer1"
     inkscape:document-rotation="0"
     showgrid="false"
     units="px"
     inkscape:window-width="1920"
     inkscape:window-height="1001"
     inkscape:window-x="-9"
     inkscape:window-y="-9"
     inkscape:window-maximized="1" />
  <metadata
     id="metadata1495">
    <rdf:RDF>
      <cc:Work
         rdf:about="">
        <dc:format>image/svg+xml</dc:format>
        <dc:type
           rdf:resource="http://purl.org/dc/dcmitype/StillImage" />
        <dc:title></dc:title>
      </cc:Work>
    </rdf:RDF>
  </metadata>
  <g
     inkscape:label="Ebene 1"
     inkscape:groupmode="layer"
     id="layer1">
    <circle
       style="fill:none;stroke:#000000;stroke-width:1.32292;stroke-linecap:round;stroke-linejoin:round;stroke-miterlimit:4;stroke-dasharray:none;stroke-opacity:1"
       id="path1008"
       cx="34.165169"
       cy="48.92342"
       r="10.490329" />
    <path
       style="fill:#0066cc;stroke:#000000;stroke-width:0.529167;stroke-linecap:butt;stroke-linejoin:round;stroke-miterlimit:4;stroke-dasharray:none;stroke-opacity:1"
       d="m 9.5299893,61.122562 3.7417717,-28.46424 1.336347,-1.469979 1.469981,-0.801809 2.271791,-1.469982 h 2.004522 l 2.939964,1.202713 1.870887,2.539057 0.400904,3.34089 0.668174,24.98971 z"
       id="path2076" />
    <ellipse
       style="fill:#ffdb9d;stroke:#000000;stroke-width:0.529167;stroke-miterlimit:4;stroke-dasharray:none"
       id="ellipse1134"
       cx="20.178534"
       cy="21.367479"
       rx="8.9506483"
       ry="8.5777054" />
    <path
       style="fill:#006600;stroke:#000000;stroke-width:0.529167;stroke-linecap:butt;stroke-linejoin:miter;stroke-miterlimit:4;stroke-dasharray:none;stroke-opacity:1"
       d="M 99.055876,60.448281 96.599025,32.021786 94.898134,30.509882 93.575217,29.753929 91.496349,28.808989 89.039502,27.67506 h -0.94494 l -3.023809,1.322917 -2.078869,1.889881 -0.755951,2.456845 -0.912518,27.204788 z"
       id="path2082"
       sodipodi:nodetypes="cccccccccccc" />
    <ellipse
       style="fill:#ffdb9d;stroke:#000000;stroke-width:0.529167;stroke-miterlimit:4;stroke-dasharray:none"
       id="ellipse2078"
       cx="-89.833221"
       cy="20.871485"
       rx="8.9506483"
       ry="8.5777054"
       transform="scale(-1,1)" />
    <path
       style="fill:#996600;stroke:#000000;stroke-width:0.529167;stroke-linecap:butt;stroke-linejoin:miter;stroke-miterlimit:4;stroke-dasharray:none;stroke-opacity:1"
       d="m 11.163822,28.454533 1.606399,-1.133928 0.944939,-2.078869 0.472471,-3.590774 2.078868,-2.362351 2.645833,-2.645835 3.118304,-0.944941 1.511904,-0.566965 0.944941,0.09449 h 3.212797 L 26.56635,13.146494 25.148939,13.524471 22.5976,11.540095 19.479296,12.390541 h -5.102677 l -1.700892,2.267859 -2.645833,2.929317 v 2.07887 l -0.9449404,2.740327 1.8898804,2.645834 -1.1339277,1.889881 z"
       id="path2096" />
    <path
       style="fill:#990000;fill-opacity:1;stroke:#000000;stroke-width:0.529167;stroke-linecap:butt;stroke-linejoin:miter;stroke-miterlimit:4;stroke-dasharray:none;stroke-opacity:1"
       d="m 95.087121,23.611816 3.023821,2.740328 1.417411,-3.118304 -0.188997,-1.700893 1.133934,-1.889881 -1.889881,-4.346728 -2.267864,-1.606401 -3.307293,-1.984377 h -2.55134 l -5.19717,-0.850448 -1.417413,1.133931 -1.984375,1.417412 -0.188986,1.322917 0.283482,0.850448 3.874254,-0.377976 h 5.197173 l 2.078869,3.118305 1.606399,1.700894 z"
       id="path2100" />
    <path
       style="fill:#b4e2ff;stroke:#000000;stroke-width:0.529167;stroke-linecap:butt;stroke-linejoin:miter;stroke-miterlimit:4;stroke-dasharray:none;stroke-opacity:1"
       d="m 91.137232,24.084287 -2.362351,-2.55134 -8.693452,2.267857 1.511904,2.645834 1.889881,1.984375 z"
       id="path2112" />
    <text
       xml:space="preserve"
       id="text2116"
       style="font-style:normal;font-weight:normal;font-size:9.87778px;line-height:1.25;font-family:sans-serif;white-space:pre;shape-inside:url(#rect2118);fill:#000000;fill-opacity:1;stroke:none;"
       transform="translate(17.132875,41.686171)"><tspan
         x="23.623047"
         y="-22.25462"><tspan
           style="font-size:9.87778px">1,5m</tspan></tspan></text>
    <path
       style="fill:none;stroke:#000000;stroke-width:0.529167;stroke-linecap:butt;stroke-linejoin:miter;stroke-miterlimit:4;stroke-dasharray:none;stroke-opacity:1;marker-start:url(#Arrow1Mstart);marker-end:url(#Arrow1Mend)"
       d="M 31.390731,22.491313 H 78.045752"
       id="path2122"
       sodipodi:nodetypes="cc" />
    <circle
       style="fill:none;stroke:#000000;stroke-width:1.32292;stroke-linecap:round;stroke-linejoin:round;stroke-miterlimit:4;stroke-dasharray:none;stroke-opacity:1"
       id="circle1010"
       cx="68.561035"
       cy="48.92342"
       r="10.490329" />
    <circle
       style="fill:none;stroke:#000000;stroke-width:0.529167;stroke-linecap:round;stroke-linejoin:round;stroke-miterlimit:4;stroke-dasharray:none;stroke-opacity:1"
       id="path1012"
       cx="49.533169"
       cy="49.457958"
       r="3.0067821" />
    <path
       style="fill:none;stroke:#003399;stroke-width:1.05833;stroke-linecap:butt;stroke-linejoin:round;stroke-miterlimit:4;stroke-dasharray:none;stroke-opacity:1"
       d="M 42.650978,28.210032 49.599986,49.391142 33.8979,49.457962 45.056403,35.626764"
       id="path1014"
       sodipodi:nodetypes="cccc" />
    <path
       style="fill:none;stroke:#003399;stroke-width:1.05833;stroke-linecap:round;stroke-linejoin:round;stroke-miterlimit:4;stroke-dasharray:none;stroke-opacity:1"
       d="M 68.576122,48.990237 61.359844,28.945023 64.700711,28.009579"
       id="path1016" />
    <path
       style="fill:none;stroke:#003399;stroke-width:1.05833;stroke-linecap:butt;stroke-linejoin:miter;stroke-miterlimit:4;stroke-dasharray:none;stroke-opacity:1"
       d="M 49.599986,49.391142 63.898905,35.894031"
       id="path1018" />
    <path
       style="fill:none;stroke:#003399;stroke-width:1.05833;stroke-linecap:round;stroke-linejoin:miter;stroke-miterlimit:4;stroke-dasharray:none;stroke-opacity:1"
       d="m 44.455046,33.488604 18.513788,0.0054"
       id="path1020"
       sodipodi:nodetypes="cc" />
    <path
       style="fill:#996600;stroke:#000000;stroke-width:0.264583;stroke-linecap:round;stroke-linejoin:round;stroke-miterlimit:4;stroke-dasharray:none;stroke-opacity:1"
       d="m 38.708751,27.541858 7.508285,0.144901 1.653646,0.425223 -5.219705,0.09805 -2.576055,0.468914 -1.086681,-0.188988 z"
       id="path1022" />
    <path
       style="fill:#99ff66;stroke:#000000;stroke-width:0.529167;stroke-linecap:round;stroke-linejoin:round;stroke-miterlimit:4;stroke-dasharray:none;stroke-opacity:1"
       d="m 29.104165,15.119047 -8.787947,0.04725 -2.929315,0.566965 -1.984375,1.748139 -1.370164,1.464658 -2.031622,0.236235 -3.9687488,-0.09449 1.1339284,-4.063244 1.8426334,-2.598586 2.976562,-1.984375 4.299479,-1.0866814 4.677456,0.4724702 3.30729,1.3701632 2.598587,2.693081 z"
       id="path1074" />
  </g>
</svg>
