<?xml version="1.0" encoding="UTF-8" standalone="no"?>
<svg
   xmlns:dc="http://purl.org/dc/elements/1.1/"
   xmlns:cc="http://creativecommons.org/ns#"
   xmlns:rdf="http://www.w3.org/1999/02/22-rdf-syntax-ns#"
   xmlns:svg="http://www.w3.org/2000/svg"
   xmlns="http://www.w3.org/2000/svg"
   xmlns:xlink="http://www.w3.org/1999/xlink"
   xmlns:sodipodi="http://sodipodi.sourceforge.net/DTD/sodipodi-0.dtd"
   xmlns:inkscape="http://www.inkscape.org/namespaces/inkscape"
   width="400"
   height="250"
   viewBox="0 0 105.83333 66.145835"
   version="1.1"
   id="svg1498"
   inkscape:version="1.0.1 (3bc2e813f5, 2020-09-07)"
   sodipodi:docname="gleis.svg"
   inkscape:export-filename="C:\Users\User\Abstand Decke.png"
   inkscape:export-xdpi="96"
   inkscape:export-ydpi="96">
  <defs
     id="defs1492">
    <marker
       style="overflow:visible"
       id="marker1056"
       refX="0"
       refY="0"
       orient="auto"
       inkscape:stockid="Arrow1Mend"
       inkscape:isstock="true">
      <path
         transform="matrix(-0.4,0,0,-0.4,-4,0)"
         style="fill:#000000;fill-opacity:1;fill-rule:evenodd;stroke:#000000;stroke-width:1pt;stroke-opacity:1"
         d="M 0,0 5,-5 -12.5,0 5,5 Z"
         id="path1054" />
    </marker>
    <marker
       style="overflow:visible"
       id="marker1046"
       refX="0"
       refY="0"
       orient="auto"
       inkscape:stockid="Arrow1Mstart"
       inkscape:isstock="true">
      <path
         transform="matrix(0.4,0,0,0.4,4,0)"
         style="fill:#000000;fill-opacity:1;fill-rule:evenodd;stroke:#000000;stroke-width:1pt;stroke-opacity:1"
         d="M 0,0 5,-5 -12.5,0 5,5 Z"
         id="path1044" />
    </marker>
    <linearGradient
       inkscape:collect="always"
       id="linearGradient970">
      <stop
         style="stop-color:#000000;stop-opacity:1;"
         offset="0"
         id="stop966" />
      <stop
         style="stop-color:#000000;stop-opacity:0;"
         offset="1"
         id="stop968" />
    </linearGradient>
    <linearGradient
       inkscape:collect="always"
       id="linearGradient962">
      <stop
         style="stop-color:#996600;stop-opacity:1;"
         offset="0"
         id="stop958" />
      <stop
         style="stop-color:#996600;stop-opacity:0;"
         offset="1"
         id="stop960" />
    </linearGradient>
    <marker
       style="overflow:visible"
       id="marker2227"
       refX="0"
       refY="0"
       orient="auto"
       inkscape:stockid="Arrow1Mend"
       inkscape:isstock="true">
      <path
         transform="matrix(-0.4,0,0,-0.4,-4,0)"
         style="fill:#000000;fill-opacity:1;fill-rule:evenodd;stroke:#000000;stroke-width:1pt;stroke-opacity:1"
         d="M 0,0 5,-5 -12.5,0 5,5 Z"
         id="path2225" />
    </marker>
    <marker
       style="overflow:visible"
       id="marker2217"
       refX="0"
       refY="0"
       orient="auto"
       inkscape:stockid="Arrow1Mstart"
       inkscape:isstock="true">
      <path
         transform="matrix(0.4,0,0,0.4,4,0)"
         style="fill:#000000;fill-opacity:1;fill-rule:evenodd;stroke:#000000;stroke-width:1pt;stroke-opacity:1"
         d="M 0,0 5,-5 -12.5,0 5,5 Z"
         id="path2215" />
    </marker>
    <marker
       style="overflow:visible"
       id="Arrow1Mend"
       refX="0"
       refY="0"
       orient="auto"
       inkscape:stockid="Arrow1Mend"
       inkscape:isstock="true"
       inkscape:collect="always">
      <path
         transform="matrix(-0.4,0,0,-0.4,-4,0)"
         style="fill:#000000;fill-opacity:1;fill-rule:evenodd;stroke:#000000;stroke-width:1pt;stroke-opacity:1"
         d="M 0,0 5,-5 -12.5,0 5,5 Z"
         id="path1167" />
    </marker>
    <marker
       style="overflow:visible"
       id="Arrow1Mstart"
       refX="0"
       refY="0"
       orient="auto"
       inkscape:stockid="Arrow1Mstart"
       inkscape:isstock="true"
       inkscape:collect="always">
      <path
         transform="matrix(0.4,0,0,0.4,4,0)"
         style="fill:#000000;fill-opacity:1;fill-rule:evenodd;stroke:#000000;stroke-width:1pt;stroke-opacity:1"
         d="M 0,0 5,-5 -12.5,0 5,5 Z"
         id="path1164" />
    </marker>
    <rect
       x="23.623512"
       y="-30.994047"
       width="36.474701"
       height="14.552083"
       id="rect2118" />
    <rect
       x="23.623512"
       y="-30.994047"
       width="36.474701"
       height="14.552083"
       id="rect2213" />
    <rect
       x="23.623512"
       y="-30.994047"
       width="36.474701"
       height="14.552083"
       id="rect1022" />
    <linearGradient
       inkscape:collect="always"
       xlink:href="#linearGradient962"
       id="linearGradient964"
       x1="52.788414"
       y1="60.402908"
       x2="52.783043"
       y2="66.416473"
       gradientUnits="userSpaceOnUse"
       gradientTransform="matrix(1.5091033,0,0,0.98865663,-27.607122,0.71245818)" />
    <linearGradient
       inkscape:collect="always"
       xlink:href="#linearGradient970"
       id="linearGradient972"
       x1="52.788414"
       y1="60.402908"
       x2="52.783043"
       y2="66.416473"
       gradientUnits="userSpaceOnUse"
       gradientTransform="matrix(1.5091033,0,0,0.98865663,-27.607122,0.71245818)" />
    <rect
       x="23.623512"
       y="-30.994047"
       width="36.474701"
       height="14.552083"
       id="rect1166" />
  </defs>
  <sodipodi:namedview
     id="base"
     pagecolor="#ffffff"
     bordercolor="#666666"
     borderopacity="1.0"
     inkscape:pageopacity="0.0"
     inkscape:pageshadow="2"
     inkscape:zoom="1.979899"
     inkscape:cx="210.56907"
     inkscape:cy="100.06018"
     inkscape:document-units="mm"
     inkscape:current-layer="layer1"
     inkscape:document-rotation="0"
     showgrid="false"
     units="px"
     inkscape:window-width="1920"
     inkscape:window-height="1001"
     inkscape:window-x="-9"
     inkscape:window-y="-9"
     inkscape:window-maximized="1" />
  <metadata
     id="metadata1495">
    <rdf:RDF>
      <cc:Work
         rdf:about="">
        <dc:format>image/svg+xml</dc:format>
        <dc:type
           rdf:resource="http://purl.org/dc/dcmitype/StillImage" />
        <dc:title></dc:title>
      </cc:Work>
    </rdf:RDF>
  </metadata>
  <g
     inkscape:label="Ebene 1"
     inkscape:groupmode="layer"
     id="layer1">
    <text
       xml:space="preserve"
       id="text2116"
       style="font-style:normal;font-weight:normal;font-size:11.2889px;line-height:1.25;font-family:sans-serif;white-space:pre;shape-inside:url(#rect2118);fill:#000000;fill-opacity:1;stroke:none;stroke-opacity:1;"
       transform="translate(15.497025,53.257717)"><tspan
         x="23.623047"
         y="-21.00611"><tspan
           style="font-size:11.2889px;stroke:none;stroke-opacity:1">1,5m</tspan></tspan></text>
    <path
       style="fill:none;stroke:#000000;stroke-width:0.529167;stroke-linecap:butt;stroke-linejoin:miter;stroke-miterlimit:4;stroke-dasharray:none;stroke-opacity:1;marker-start:url(#Arrow1Mstart);marker-end:url(#Arrow1Mend)"
       d="m 28.803322,34.550674 h 47.24261"
       id="path2122"
       sodipodi:nodetypes="cc" />
    <rect
       style="fill:url(#linearGradient964);fill-opacity:1;stroke:url(#linearGradient972);stroke-width:0.646361;stroke-linecap:round;stroke-linejoin:round;stroke-miterlimit:4;stroke-dasharray:none;stroke-opacity:1"
       id="rect946"
       width="77.440758"
       height="5.0205178"
       x="13.936615"
       y="60.298077" />
    <path
       style="fill:#333366;stroke:#000000;stroke-width:0.529167;stroke-linecap:round;stroke-linejoin:round;stroke-miterlimit:4;stroke-dasharray:none;stroke-opacity:1"
       d="m 32.064781,59.939078 6.791166,-2.014228 2.929316,-0.377976 43.089284,-1.984375 19.082563,-0.09449 -46.485837,-0.0945 -18.520833,-0.283482 -8.310832,-1.054751 -1.233064,0.960257 0.09449,4.441222 z"
       id="path1014"
       sodipodi:nodetypes="ccccccccccc" />
    <path
       id="path942"
       style="fill:#333366;fill-opacity:1;stroke:#000000;stroke-width:0.529167;stroke-linecap:round;stroke-linejoin:round;stroke-miterlimit:4;stroke-dasharray:none;stroke-opacity:1"
       d="m 28.233267,54.035278 -0.542674,0.339302 v 1.221276 l 0.94994,0.271599 v 2.714417 l -1.967846,0.814272 0.135669,0.542935 h 2.270672 0.715079 2.270673 l 0.135669,-0.542935 -1.967847,-0.814272 v -2.714417 l 0.949941,-0.271599 V 54.37458 l -0.542936,-0.339302 h -0.8455 -0.715079 z" />
    <path
       style="fill:#333366;stroke:#000000;stroke-width:0.529167;stroke-linecap:round;stroke-linejoin:round;stroke-miterlimit:4;stroke-dasharray:none;stroke-opacity:1"
       d="m 72.845883,59.939078 -2.67444,-1.5569 -0.609464,-0.837591 0.09449,-1.249961 0.715423,-0.821377 3.356224,-1.098671 1.777352,0.337474 -0.04725,4.181361 -2.612343,1.045665"
       id="path1016"
       sodipodi:nodetypes="ccccccccc" />
    <path
       id="path944"
       style="fill:#333366;fill-opacity:1;stroke:#000000;stroke-width:0.529167;stroke-linecap:round;stroke-linejoin:round;stroke-miterlimit:4;stroke-dasharray:none;stroke-opacity:1"
       d="m 74.270796,54.035278 -0.542674,0.339302 v 1.221276 l 0.94994,0.271599 v 2.714417 l -1.967846,0.814272 0.135669,0.542935 h 2.270672 0.715079 2.270673 l 0.135669,-0.542935 -1.967847,-0.814272 v -2.714417 l 0.949941,-0.271599 V 54.37458 l -0.542936,-0.339302 h -0.8455 -0.715079 z" />
    <path
       style="fill:#333366;stroke:#000000;stroke-width:0.529167;stroke-linecap:butt;stroke-linejoin:round;stroke-miterlimit:4;stroke-dasharray:none;stroke-opacity:1"
       d="m 96.311771,60.072719 -3.741776,-28.46421 -1.336344,-1.46998 -1.469981,-0.80181 -2.271788,-1.46998 h -2.004528 l -2.939965,1.20271 -1.870888,2.53906 -0.400897,3.34087 -0.668177,24.9897 z"
       id="path2076" />
    <ellipse
       style="fill:#ffdb9d;stroke:#000000;stroke-width:0.529167;stroke-miterlimit:4;stroke-dasharray:none"
       id="ellipse1134"
       cx="-85.663246"
       cy="20.317659"
       rx="8.9506483"
       ry="8.5777054"
       transform="scale(-1,1)" />
    <path
       style="fill:#996600;stroke:#000000;stroke-width:0.529167;stroke-linecap:butt;stroke-linejoin:miter;stroke-miterlimit:4;stroke-dasharray:none;stroke-opacity:1"
       d="m 94.677933,27.404719 -1.606391,-1.13393 -0.944947,-2.078866 -0.472467,-3.590774 -2.078868,-2.362351 -2.645835,-2.645835 -3.118302,-0.944941 -1.511901,-0.566965 -0.944944,0.09449 h -3.212802 l 1.133934,-2.078866 1.417411,0.377977 2.551335,-1.984376 3.118302,0.850446 h 5.102683 l 1.700888,2.267859 2.645835,2.929317 v 2.07887 l 0.944937,2.740327 -1.889871,2.645834 1.133924,1.889884 z"
       id="path2096" />
    <path
       style="fill:#b4e2ff;stroke:#000000;stroke-width:0.529167;stroke-linecap:butt;stroke-linejoin:miter;stroke-miterlimit:4;stroke-dasharray:none;stroke-opacity:1"
       d="m 87.496392,23.530465 -2.362355,-2.55134 -8.693451,2.267857 1.5119,2.645837 1.889881,1.98437 z"
       id="path2098" />
    <path
       style="fill:#006600;stroke:#000000;stroke-width:0.529167;stroke-linecap:butt;stroke-linejoin:miter;stroke-miterlimit:4;stroke-dasharray:none;stroke-opacity:1"
       d="m 7.7123385,60.114301 2.4568435,-28.15923 1.700891,-1.5119 1.322924,-0.75595 2.078868,-0.94494 2.456845,-1.13393 h 0.944934 l 3.023812,1.32292 2.078871,1.88988 0.755954,2.45684 0.377977,26.64732 z"
       id="path2082"
       sodipodi:nodetypes="cccccccccccc" />
    <ellipse
       style="fill:#ffdb9d;stroke:#000000;stroke-width:0.529167;stroke-miterlimit:4;stroke-dasharray:none"
       id="ellipse2078"
       cx="16.934959"
       cy="20.804771"
       rx="8.9506483"
       ry="8.5777054" />
    <path
       style="fill:#b4e2ff;stroke:#000000;stroke-width:0.529167;stroke-linecap:butt;stroke-linejoin:miter;stroke-miterlimit:4;stroke-dasharray:none;stroke-opacity:1"
       d="m 15.630982,24.017577 2.362345,-2.55134 8.693452,2.267857 -1.511901,2.645837 -1.889881,1.98437 z"
       id="path2112" />
    <path
       style="fill:#990000;stroke:#000000;stroke-width:0.529167;stroke-linecap:round;stroke-linejoin:round;stroke-miterlimit:4;stroke-dasharray:none;stroke-opacity:1"
       d="m 23.389247,11.752242 -2.456845,3.307292 -1.984378,-1.039435 -2.362348,1.322916 -1.039434,0.283482 -1.322921,2.645834 -1.039434,2.645833 -0.37797,1.889881 -0.944944,1.88988 0.18899,1.606396 -0.661457,0.75595 -1.5119107,2.92932 -0.5669567,-0.0945 -1.0394334,-2.92932 -1.1339334,-1.889877 -0.3779767,-3.496278 -0.28348,-3.02381 0.8504467,-1.039435 v -1.795387 l 1.4174101,-1.606398 1.4174101,-1.984375 1.417414,-0.09449 4.157736,-1.228423 3.023802,-1.2284233 z"
       id="path1024"
       sodipodi:nodetypes="ccccccccccccccccccccccccc" />
    <path
       style="fill:none;stroke:#000000;stroke-width:0.264583;stroke-linecap:butt;stroke-linejoin:miter;stroke-miterlimit:4;stroke-dasharray:none;stroke-opacity:1;marker-start:url(#marker1046);marker-end:url(#marker1056)"
       d="M 30.941478,49.896517 H 72.705063"
       id="path1042"
       sodipodi:nodetypes="cc" />
    <text
       xml:space="preserve"
       id="text1164"
       style="font-style:normal;font-weight:normal;font-size:4.23333px;line-height:1.25;font-family:sans-serif;white-space:pre;shape-inside:url(#rect1166);fill:#000000;fill-opacity:1;stroke:none;stroke-opacity:1;"
       transform="translate(20.307876,76.087107)"><tspan
         x="23.623047"
         y="-27.248636"><tspan
           style="font-size:4.23333px;stroke:none;stroke-opacity:1">1435 mm</tspan></tspan></text>
  </g>
</svg>
