<?xml version="1.0" encoding="UTF-8" standalone="no"?>
<svg
   xmlns:dc="http://purl.org/dc/elements/1.1/"
   xmlns:cc="http://creativecommons.org/ns#"
   xmlns:rdf="http://www.w3.org/1999/02/22-rdf-syntax-ns#"
   xmlns:svg="http://www.w3.org/2000/svg"
   xmlns="http://www.w3.org/2000/svg"
   xmlns:xlink="http://www.w3.org/1999/xlink"
   xmlns:sodipodi="http://sodipodi.sourceforge.net/DTD/sodipodi-0.dtd"
   xmlns:inkscape="http://www.inkscape.org/namespaces/inkscape"
   width="600"
   height="200"
   viewBox="0 0 158.75 52.916668"
   version="1.1"
   id="svg1498"
   inkscape:version="1.0.1 (3bc2e813f5, 2020-09-07)"
   sodipodi:docname="Abstand Kaffee.svg"
   inkscape:export-filename="C:\Users\User\Abstand Kaffee.png"
   inkscape:export-xdpi="96"
   inkscape:export-ydpi="96">
  <defs
     id="defs1492">
    <linearGradient
       inkscape:collect="always"
       id="linearGradient920">
      <stop
         style="stop-color:#b4e2ff;stop-opacity:1;"
         offset="0"
         id="stop916" />
      <stop
         style="stop-color:#b4e2ff;stop-opacity:0;"
         offset="1"
         id="stop918" />
    </linearGradient>
    <marker
       style="overflow:visible;"
       id="marker2227"
       refX="0.0"
       refY="0.0"
       orient="auto"
       inkscape:stockid="Arrow1Mend"
       inkscape:isstock="true">
      <path
         transform="scale(0.4) rotate(180) translate(10,0)"
         style="fill-rule:evenodd;stroke:#000000;stroke-width:1pt;stroke-opacity:1;fill:#000000;fill-opacity:1"
         d="M 0.0,0.0 L 5.0,-5.0 L -12.5,0.0 L 5.0,5.0 L 0.0,0.0 z "
         id="path2225" />
    </marker>
    <marker
       style="overflow:visible"
       id="marker2217"
       refX="0.0"
       refY="0.0"
       orient="auto"
       inkscape:stockid="Arrow1Mstart"
       inkscape:isstock="true">
      <path
         transform="scale(0.4) translate(10,0)"
         style="fill-rule:evenodd;stroke:#000000;stroke-width:1pt;stroke-opacity:1;fill:#000000;fill-opacity:1"
         d="M 0.0,0.0 L 5.0,-5.0 L -12.5,0.0 L 5.0,5.0 L 0.0,0.0 z "
         id="path2215" />
    </marker>
    <marker
       style="overflow:visible;"
       id="Arrow1Mend"
       refX="0.0"
       refY="0.0"
       orient="auto"
       inkscape:stockid="Arrow1Mend"
       inkscape:isstock="true"
       inkscape:collect="always">
      <path
         transform="scale(0.4) rotate(180) translate(10,0)"
         style="fill-rule:evenodd;stroke:#000000;stroke-width:1pt;stroke-opacity:1;fill:#000000;fill-opacity:1"
         d="M 0.0,0.0 L 5.0,-5.0 L -12.5,0.0 L 5.0,5.0 L 0.0,0.0 z "
         id="path1167" />
    </marker>
    <marker
       style="overflow:visible"
       id="Arrow1Mstart"
       refX="0.0"
       refY="0.0"
       orient="auto"
       inkscape:stockid="Arrow1Mstart"
       inkscape:isstock="true"
       inkscape:collect="always">
      <path
         transform="scale(0.4) translate(10,0)"
         style="fill-rule:evenodd;stroke:#000000;stroke-width:1pt;stroke-opacity:1;fill:#000000;fill-opacity:1"
         d="M 0.0,0.0 L 5.0,-5.0 L -12.5,0.0 L 5.0,5.0 L 0.0,0.0 z "
         id="path1164" />
    </marker>
    <rect
       x="23.623512"
       y="-30.994048"
       width="36.474702"
       height="14.552083"
       id="rect2118" />
    <rect
       x="23.623512"
       y="-30.994048"
       width="36.474702"
       height="14.552083"
       id="rect2213" />
    <linearGradient
       inkscape:collect="always"
       xlink:href="#linearGradient920"
       id="linearGradient922"
       x1="41.444214"
       y1="25.489162"
       x2="47.003088"
       y2="25.489162"
       gradientUnits="userSpaceOnUse" />
    <linearGradient
       inkscape:collect="always"
       xlink:href="#linearGradient920"
       id="linearGradient922-1"
       x1="41.444214"
       y1="25.489162"
       x2="47.00309"
       y2="25.489162"
       gradientUnits="userSpaceOnUse"
       gradientTransform="translate(66.182386,0.52916667)" />
  </defs>
  <sodipodi:namedview
     id="base"
     pagecolor="#ffffff"
     bordercolor="#666666"
     borderopacity="1.0"
     inkscape:pageopacity="0.0"
     inkscape:pageshadow="2"
     inkscape:zoom="1.979899"
     inkscape:cx="414.23069"
     inkscape:cy="115.51941"
     inkscape:document-units="mm"
     inkscape:current-layer="layer1"
     inkscape:document-rotation="0"
     showgrid="false"
     units="px"
     inkscape:window-width="1920"
     inkscape:window-height="1001"
     inkscape:window-x="-9"
     inkscape:window-y="-9"
     inkscape:window-maximized="1" />
  <metadata
     id="metadata1495">
    <rdf:RDF>
      <cc:Work
         rdf:about="">
        <dc:format>image/svg+xml</dc:format>
        <dc:type
           rdf:resource="http://purl.org/dc/dcmitype/StillImage" />
        <dc:title></dc:title>
      </cc:Work>
    </rdf:RDF>
  </metadata>
  <g
     inkscape:label="Ebene 1"
     inkscape:groupmode="layer"
     id="layer1">
    <path
       style="fill:#0066cc;stroke:#000000;stroke-width:0.529167;stroke-linecap:butt;stroke-linejoin:round;stroke-miterlimit:4;stroke-dasharray:none;stroke-opacity:1"
       d="m 6.9651246,51.850287 3.7417724,-28.464204 1.336348,-1.469982 1.469982,-0.801809 2.271791,-1.469982 h 2.004522 l 2.939964,1.202713 1.870887,2.53906 0.400904,3.340868 0.668174,24.989703 z"
       id="path2076" />
    <ellipse
       style="fill:#ffdb9d;stroke:#000000;stroke-width:0.529167;stroke-miterlimit:4;stroke-dasharray:none"
       id="ellipse1134"
       cx="17.61367"
       cy="12.095238"
       rx="8.9506483"
       ry="8.5777054" />
    <path
       style="fill:none;stroke:#000000;stroke-width:0.79375;stroke-linecap:butt;stroke-linejoin:round;stroke-miterlimit:4;stroke-dasharray:none;stroke-opacity:1"
       d="m 112.91145,28.452157 1.44103,-0.165365 0.80631,-0.3625 0.7056,-1.574627 -0.0236,-1.511904 -0.63784,-1.181176 -0.94494,-0.4016 -1.29929,-0.07087"
       id="path924-8" />
    <path
       style="fill:#ffdb9d;stroke:#000000;stroke-width:0.529167;stroke-linecap:butt;stroke-linejoin:round;stroke-miterlimit:4;stroke-dasharray:none;stroke-opacity:1"
       d="m 101.42258,24.254709 1.57021,-0.567948 1.03567,-0.03341 0.73499,0.467722 0.50113,0.668173 0.16705,0.801809 -0.30068,1.26953 -0.7684,0.53454 -1.20272,0.03341 -1.77066,-0.467722 z"
       id="path2104" />
    <path
       style="fill:#666699;stroke:#000000;stroke-width:0.529167;stroke-linecap:butt;stroke-linejoin:round;stroke-miterlimit:4;stroke-dasharray:none;stroke-opacity:1"
       d="m 101.6189,23.906994 -12.511013,0.09449 -8.976934,-1.133929 -1.889882,0.188988 -0.377976,0.566965 -0.283482,0.850446 v 1.133929 l 0.377978,1.133929 1.228421,0.566965 10.394347,0.566962 11.944041,-0.377976 z"
       id="path2106"
       sodipodi:nodetypes="cccccccccccc" />
    <path
       style="fill:#666699;stroke:#000000;stroke-width:0.52916667;stroke-linecap:butt;stroke-linejoin:miter;stroke-opacity:1;stroke-miterlimit:4;stroke-dasharray:none"
       d="m 67.657738,51.40476 2.456844,-28.159225 1.700893,-1.511904 1.322917,-0.755953 2.078868,-0.94494 2.456847,-1.133929 h 0.94494 l 3.023809,1.322917 2.078869,1.889881 0.755951,2.456845 0.377979,26.269346 z"
       id="path2082" />
    <ellipse
       style="fill:#ffdb9d;stroke:#000000;stroke-width:0.529167;stroke-miterlimit:4;stroke-dasharray:none"
       id="ellipse2078"
       cx="76.880394"
       cy="12.095238"
       rx="8.9506483"
       ry="8.5777054" />
    <path
       style="fill:#006600;stroke:#000000;stroke-width:0.52916667;stroke-linecap:butt;stroke-linejoin:miter;stroke-opacity:1;stroke-miterlimit:4;stroke-dasharray:none"
       d="m 133.23661,51.593749 1.13392,-22.489583 0.94494,-5.102678 1.32292,-1.889881 1.70089,-1.511905 2.07887,-1.133928 2.26786,-0.566965 h 0.94494 l 1.88988,0.755953 0.94494,0.94494 0.56697,0.944941 0.94494,1.700892 1.13393,5.10268 -0.37798,22.867559 z"
       id="path2084" />
    <ellipse
       style="fill:#ffdb9d;stroke:#000000;stroke-width:0.529167;stroke-miterlimit:4;stroke-dasharray:none"
       id="ellipse2080"
       cx="142.49687"
       cy="12.095238"
       rx="8.9506483"
       ry="8.5777054" />
    <path
       style="fill:none;stroke:#000000;stroke-width:0.79375;stroke-linecap:butt;stroke-linejoin:round;stroke-opacity:1;stroke-miterlimit:4;stroke-dasharray:none"
       d="m 41.719121,27.92299 -1.441034,-0.165365 -0.806308,-0.3625 -0.705596,-1.574627 0.02363,-1.511904 0.637836,-1.181176 0.944941,-0.4016 1.299286,-0.07087"
       id="path924" />
    <path
       style="fill:#ffdb9d;stroke:#000000;stroke-width:0.529167;stroke-linecap:butt;stroke-linejoin:round;stroke-miterlimit:4;stroke-dasharray:none;stroke-opacity:1"
       d="m 36.531816,24.254709 1.570207,-0.567948 1.035669,-0.03341 0.734991,0.467722 0.501131,0.668173 0.167045,0.801809 -0.30068,1.26953 -0.768398,0.53454 -1.202714,0.03341 -1.77066,-0.467722 z"
       id="path2088" />
    <path
       style="fill:#0066cc;stroke:#000000;stroke-width:0.529167;stroke-linecap:butt;stroke-linejoin:round;stroke-miterlimit:4;stroke-dasharray:none;stroke-opacity:1"
       d="m 19.37128,23.245535 -2.267858,-1.228422 -1.133928,0.850446 -0.47247,1.889881 0.566964,1.700893 1.322917,0.661458 2.173363,0.472469 17.160117,-0.09449 -0.09449,-3.874255 z"
       id="path2086"
       sodipodi:nodetypes="cccccccccc" />
    <path
       style="fill:#ffdb9d;stroke:#000000;stroke-width:0.529167;stroke-linecap:butt;stroke-linejoin:round;stroke-miterlimit:4;stroke-dasharray:none;stroke-opacity:1"
       d="m 53.736625,24.254709 -1.570207,-0.567948 -1.035669,-0.03341 -0.734991,0.467722 -0.501131,0.668173 -0.167045,0.801809 0.30068,1.26953 0.768398,0.53454 1.202714,0.03341 1.77066,-0.467722 z"
       id="path2092" />
    <path
       style="fill:#666699;stroke:#000000;stroke-width:0.529167;stroke-linecap:butt;stroke-linejoin:round;stroke-miterlimit:4;stroke-dasharray:none;stroke-opacity:1"
       d="m 53.540326,23.906994 12.511013,0.09449 8.976934,-1.133929 1.889882,0.188988 0.377976,0.566965 0.283482,0.850446 v 1.133929 l -0.377978,1.133929 -1.228421,0.566965 -10.394347,0.566962 -11.944045,-0.377976 z"
       id="path2090"
       sodipodi:nodetypes="cccccccccccc" />
    <path
       style="fill:#996600;stroke:#000000;stroke-width:0.52916667;stroke-linecap:butt;stroke-linejoin:miter;stroke-opacity:1;stroke-miterlimit:4;stroke-dasharray:none"
       d="m 8.5989582,19.182291 1.6063988,-1.133928 0.94494,-2.078869 0.472471,-3.590774 2.078869,-2.362351 2.645833,-2.6458333 3.118304,-0.9449406 1.511904,-0.5669643 0.944941,0.094494 h 3.212797 L 24.001488,3.8742559 22.584077,4.2522322 20.032738,2.2678571 16.914434,3.1183035 H 11.811756 L 10.110863,5.3861607 7.4650297,8.315476 v 2.078869 l -0.9449405,2.740327 1.8898809,2.645834 -1.1339285,1.889881 z"
       id="path2096" />
    <path
       style="fill:#b4e2ff;stroke:#000000;stroke-width:0.52916667;stroke-linecap:butt;stroke-linejoin:miter;stroke-opacity:1;stroke-miterlimit:4;stroke-dasharray:none"
       d="m 15.780506,15.308036 2.362351,-2.55134 8.693452,2.267857 -1.511904,2.645834 -1.889881,1.984375 z"
       id="path2098" />
    <path
       style="fill:#dddddd;stroke:#000000;stroke-width:0.52916667;stroke-linecap:butt;stroke-linejoin:miter;stroke-opacity:1;stroke-miterlimit:4;stroke-dasharray:none;fill-opacity:1"
       d="m 71.626488,14.835565 -3.023811,2.740328 -1.41741,-3.118304 0.188989,-1.700893 -1.13393,-1.889881 1.889881,-4.3467258 2.267858,-1.6063987 3.307292,-1.9843749 h 2.55134 l 5.19717,-0.8504466 1.417413,1.1339285 1.984375,1.4174108 0.188986,1.3229166 -0.283482,0.8504465 -3.874254,-0.3779763 h -5.197173 l -2.078869,3.1183037 -1.606399,1.7008932 z"
       id="path2100" />
    <path
       style="fill:#cc9900;stroke:#000000;stroke-width:0.52916667;stroke-linecap:butt;stroke-linejoin:miter;stroke-opacity:1;stroke-miterlimit:4;stroke-dasharray:none"
       d="m 132.57515,16.063988 1.79538,1.039434 1.13393,-3.96875 2.64584,-4.3467256 5.00818,-1.984375 h 3.77976 4.15774 l -1.6064,-2.7403274 -2.55134,0.283482 -4.63021,-3.59077362 -0.28348,1.03943452 -4.81919,1.6063988 v 0.8504465 l -4.34673,0.094494 0.94494,1.3229167 -3.1183,2.7403274 0.75595,3.2127977 -1.03944,2.834821 1.51191,0.377976 z"
       id="path2102" />
    <path
       style="fill:#ffdb9d;stroke:#000000;stroke-width:0.529167;stroke-linecap:butt;stroke-linejoin:round;stroke-miterlimit:4;stroke-dasharray:none;stroke-opacity:1"
       d="m 118.05478,24.51293 -1.57021,-0.567948 -1.03567,-0.03341 -0.73499,0.467722 -0.50113,0.668173 -0.16705,0.801809 0.30068,1.26953 0.7684,0.53454 1.20272,0.03341 1.77066,-0.467722 z"
       id="path2110" />
    <path
       style="fill:#006600;stroke:#000000;stroke-width:0.529167;stroke-linecap:butt;stroke-linejoin:miter;stroke-miterlimit:4;stroke-dasharray:none;stroke-opacity:1"
       d="m 117.5317,24.095982 0.18898,3.590774 13.15358,0.472469 8.97693,-0.94494 1.70089,-1.41741 v -1.606399 l -0.75595,-0.661458 -0.85045,-0.09449 -4.63021,0.566964 -10.11086,0.09449 z"
       id="path2108"
       sodipodi:nodetypes="ccccccccccc" />
    <path
       style="fill:#b4e2ff;stroke:#000000;stroke-width:0.529167;stroke-linecap:butt;stroke-linejoin:miter;stroke-miterlimit:4;stroke-dasharray:none;stroke-opacity:1"
       d="m 75.576377,15.308036 2.362351,-2.55134 8.693452,2.267857 -1.511904,2.645834 -1.889881,1.984375 z"
       id="path2112" />
    <path
       style="fill:#b4e2ff;stroke:#000000;stroke-width:0.529167;stroke-linecap:butt;stroke-linejoin:miter;stroke-miterlimit:4;stroke-dasharray:none;stroke-opacity:1"
       d="m 140.66415,15.308036 2.36236,-2.55134 8.6935,2.267857 -1.51191,2.645834 -1.88989,1.984375 z"
       id="path2114" />
    <g
       id="g2179">
      <text
         xml:space="preserve"
         id="text2116"
         style="font-style:normal;font-weight:normal;font-size:7.05556px;line-height:1.25;font-family:sans-serif;white-space:pre;shape-inside:url(#rect2118);fill:#000000;fill-opacity:1;stroke:none;"
         transform="translate(12.85119,34.962798)"><tspan
           x="23.623047"
           y="-24.751624"><tspan
             style="font-size:7.05556px">1,5m</tspan></tspan></text>
      <path
         style="fill:none;stroke:#000000;stroke-width:0.52916667;stroke-linecap:butt;stroke-linejoin:miter;stroke-opacity:1;stroke-miterlimit:4;stroke-dasharray:none;marker-start:url(#Arrow1Mstart);marker-end:url(#Arrow1Mend)"
         d="M 29.765625,12.37872 H 61.988093"
         id="path2122" />
    </g>
    <g
       id="g2211"
       transform="translate(62.4417)">
      <text
         xml:space="preserve"
         id="text2207"
         style="font-style:normal;font-weight:normal;font-size:7.05556px;line-height:1.25;font-family:sans-serif;white-space:pre;shape-inside:url(#rect2213);fill:#000000;fill-opacity:1;stroke:none;"
         transform="translate(12.85119,34.962798)"><tspan
           x="23.623047"
           y="-24.751624"><tspan
             style="font-size:7.05556px">1,5m</tspan></tspan></text>
      <path
         style="fill:none;stroke:#000000;stroke-width:0.529167;stroke-linecap:butt;stroke-linejoin:miter;stroke-miterlimit:4;stroke-dasharray:none;stroke-opacity:1;marker-start:url(#marker2217);marker-end:url(#marker2227)"
         d="M 29.765625,12.37872 H 61.988093"
         id="path2209" />
    </g>
    <path
       style="fill:url(#linearGradient922);stroke:#000000;stroke-width:0.52916667;stroke-linecap:butt;stroke-linejoin:miter;stroke-opacity:1;fill-opacity:1;stroke-miterlimit:4;stroke-dasharray:none"
       d="m 41.577381,21.875372 5.197173,0.04725 0.09449,7.181547 h -5.24442 z"
       id="path906" />
    <path
       style="fill:url(#linearGradient922-1);fill-opacity:1;stroke:#000000;stroke-width:0.529167;stroke-linecap:butt;stroke-linejoin:miter;stroke-miterlimit:4;stroke-dasharray:none;stroke-opacity:1"
       d="m 107.75977,22.404539 5.19717,0.04725 0.0945,7.181547 h -5.24442 z"
       id="path906-2" />
  </g>
</svg>
