<?xml version="1.0" encoding="UTF-8" standalone="no"?>
<svg
   xmlns:osb="http://www.openswatchbook.org/uri/2009/osb"
   xmlns:dc="http://purl.org/dc/elements/1.1/"
   xmlns:cc="http://creativecommons.org/ns#"
   xmlns:rdf="http://www.w3.org/1999/02/22-rdf-syntax-ns#"
   xmlns:svg="http://www.w3.org/2000/svg"
   xmlns="http://www.w3.org/2000/svg"
   xmlns:sodipodi="http://sodipodi.sourceforge.net/DTD/sodipodi-0.dtd"
   xmlns:inkscape="http://www.inkscape.org/namespaces/inkscape"
   width="400"
   height="250"
   viewBox="0 0 105.83333 66.145835"
   version="1.1"
   id="svg1498"
   inkscape:version="1.0.1 (3bc2e813f5, 2020-09-07)"
   sodipodi:docname="pingpong.svg"
   inkscape:export-filename="C:\Users\User\Abstand Decke.png"
   inkscape:export-xdpi="96"
   inkscape:export-ydpi="96">
  <defs
     id="defs1492">
    <linearGradient
       id="linearGradient2835"
       osb:paint="solid">
      <stop
         style="stop-color:#000000;stop-opacity:1;"
         offset="0"
         id="stop2833" />
    </linearGradient>
    <marker
       style="overflow:visible"
       id="marker2227"
       refX="0"
       refY="0"
       orient="auto"
       inkscape:stockid="Arrow1Mend"
       inkscape:isstock="true">
      <path
         transform="matrix(-0.4,0,0,-0.4,-4,0)"
         style="fill:#000000;fill-opacity:1;fill-rule:evenodd;stroke:#000000;stroke-width:1pt;stroke-opacity:1"
         d="M 0,0 5,-5 -12.5,0 5,5 Z"
         id="path2225" />
    </marker>
    <marker
       style="overflow:visible"
       id="marker2217"
       refX="0"
       refY="0"
       orient="auto"
       inkscape:stockid="Arrow1Mstart"
       inkscape:isstock="true">
      <path
         transform="matrix(0.4,0,0,0.4,4,0)"
         style="fill:#000000;fill-opacity:1;fill-rule:evenodd;stroke:#000000;stroke-width:1pt;stroke-opacity:1"
         d="M 0,0 5,-5 -12.5,0 5,5 Z"
         id="path2215" />
    </marker>
    <marker
       style="overflow:visible"
       id="Arrow1Mend"
       refX="0"
       refY="0"
       orient="auto"
       inkscape:stockid="Arrow1Mend"
       inkscape:isstock="true"
       inkscape:collect="always">
      <path
         transform="matrix(-0.4,0,0,-0.4,-4,0)"
         style="fill:#000000;fill-opacity:1;fill-rule:evenodd;stroke:#000000;stroke-width:1pt;stroke-opacity:1"
         d="M 0,0 5,-5 -12.5,0 5,5 Z"
         id="path1167" />
    </marker>
    <marker
       style="overflow:visible"
       id="Arrow1Mstart"
       refX="0"
       refY="0"
       orient="auto"
       inkscape:stockid="Arrow1Mstart"
       inkscape:isstock="true"
       inkscape:collect="always">
      <path
         transform="matrix(0.4,0,0,0.4,4,0)"
         style="fill:#000000;fill-opacity:1;fill-rule:evenodd;stroke:#000000;stroke-width:1pt;stroke-opacity:1"
         d="M 0,0 5,-5 -12.5,0 5,5 Z"
         id="path1164" />
    </marker>
    <rect
       x="23.623512"
       y="-30.994047"
       width="36.474701"
       height="14.552083"
       id="rect2118" />
    <rect
       x="23.623512"
       y="-30.994047"
       width="36.474701"
       height="14.552083"
       id="rect2213" />
  </defs>
  <sodipodi:namedview
     id="base"
     pagecolor="#ffffff"
     bordercolor="#666666"
     borderopacity="1.0"
     inkscape:pageopacity="0.0"
     inkscape:pageshadow="2"
     inkscape:zoom="2.8"
     inkscape:cx="177.24942"
     inkscape:cy="135.27679"
     inkscape:document-units="mm"
     inkscape:current-layer="layer1"
     inkscape:document-rotation="0"
     showgrid="false"
     units="px"
     inkscape:window-width="1920"
     inkscape:window-height="1001"
     inkscape:window-x="-9"
     inkscape:window-y="-9"
     inkscape:window-maximized="1" />
  <metadata
     id="metadata1495">
    <rdf:RDF>
      <cc:Work
         rdf:about="">
        <dc:format>image/svg+xml</dc:format>
        <dc:type
           rdf:resource="http://purl.org/dc/dcmitype/StillImage" />
        <dc:title></dc:title>
      </cc:Work>
    </rdf:RDF>
  </metadata>
  <g
     inkscape:label="Ebene 1"
     inkscape:groupmode="layer"
     id="layer1">
    <path
       style="fill:#9999cc;fill-opacity:1;stroke:#808080;stroke-width:0.456218;stroke-linecap:butt;stroke-linejoin:round;stroke-miterlimit:4;stroke-dasharray:none;stroke-opacity:1"
       d="m 38.783576,55.681112 3.130303,-23.812745 1.117966,-1.229755 1.229763,-0.670792 1.900542,-1.229754 h 1.676948 l 2.459526,1.006162 1.565151,2.124139 0.33539,2.794914 0.558983,20.906041 z"
       id="path2076" />
    <rect
       style="fill:#eecc88;fill-opacity:1;stroke:#808080;stroke-width:0.435676;stroke-linecap:round;stroke-linejoin:round;stroke-miterlimit:4;stroke-dasharray:none;stroke-opacity:1"
       id="rect2917"
       width="0.85269248"
       height="3.2457302"
       x="56.296928"
       y="-13.056344"
       transform="matrix(0.64648343,0.76292802,-0.76292533,0.64648661,0,0)" />
    <ellipse
       style="fill:#ff9980;fill-opacity:1;stroke:#808080;stroke-width:0.435676;stroke-linecap:round;stroke-linejoin:round;stroke-miterlimit:4;stroke-dasharray:none;stroke-opacity:1"
       id="ellipse2919"
       cx="56.682018"
       cy="-15.421876"
       rx="1.7879033"
       ry="2.4480507"
       transform="matrix(0.64648343,0.76292802,-0.76292533,0.64648661,0,0)" />
    <path
       style="fill:#9999cc;fill-opacity:1;stroke:#808080;stroke-width:0.529167;stroke-linecap:round;stroke-linejoin:round;stroke-miterlimit:4;stroke-dasharray:none;stroke-opacity:1"
       d="m 41.913878,31.868367 -1.422545,-0.161009 -0.734992,0.534537 -0.534537,0.734992 0.200451,0.801809 3.541321,4.009043 1.804069,-1.403165 z"
       id="path2929" />
    <path
       style="fill:#ffdb9d;fill-opacity:1;stroke:#808080;stroke-width:0.529167;stroke-linecap:round;stroke-linejoin:round;stroke-miterlimit:4;stroke-dasharray:none;stroke-opacity:1"
       d="m 42.996985,36.351165 -0.133636,0.501129 0.701582,1.436574 h 0.467723 l 0.601358,-0.267269 0.534538,-0.53454 -0.0122,-0.530453 -0.2008,-0.330729 -0.755952,-0.555151 -0.555151,-0.04725 z"
       id="path2931" />
    <ellipse
       style="fill:#ffdb9d;stroke:#808080;stroke-width:0.456218;stroke-miterlimit:4;stroke-dasharray:none;stroke-opacity:1"
       id="ellipse1134"
       cx="47.691971"
       cy="22.951832"
       rx="7.4879608"
       ry="7.1759634" />
    <path
       style="fill:#ccaa88;fill-opacity:1;stroke:#808080;stroke-width:0.456218;stroke-linecap:butt;stroke-linejoin:miter;stroke-miterlimit:4;stroke-dasharray:none;stroke-opacity:1"
       d="m 40.150413,28.880707 1.343886,-0.948616 0.790521,-1.739147 0.395262,-3.003969 1.739146,-1.976296 2.213459,-2.21346 2.60872,-0.790522 1.264834,-0.474314 0.790522,0.07905 h 2.687771 l -0.948625,-1.739144 -1.185781,0.31621 -2.134408,-1.660096 -2.60872,0.711469 h -4.268815 l -1.422938,1.897252 -2.213459,2.450617 v 1.739148 l -0.790521,2.292505 1.581042,2.213445 -0.948625,1.581037 z"
       id="path2096" />
    <text
       xml:space="preserve"
       id="text2116"
       style="font-style:normal;font-weight:normal;font-size:12.672px;line-height:1.25;font-family:sans-serif;white-space:pre;shape-inside:url(#rect2118);fill:#000000;fill-opacity:1;stroke:none;stroke-width:0.594;stroke-miterlimit:4;stroke-dasharray:none;"
       transform="matrix(0.89085354,0,0,0.89085354,17.983868,39.301945)"><tspan
         x="23.623047"
         y="-19.782391"><tspan
           style="font-size:12.672px;stroke-width:0.594;stroke-miterlimit:4;stroke-dasharray:none">1,5m</tspan></tspan></text>
    <path
       style="fill:none;stroke:#000000;stroke-width:0.529167;stroke-linecap:butt;stroke-linejoin:miter;stroke-miterlimit:4;stroke-dasharray:none;stroke-opacity:1;marker-start:url(#Arrow1Mstart);marker-end:url(#Arrow1Mend)"
       d="m 29.312683,24.7955 44.202524,0"
       id="path2122"
       sodipodi:nodetypes="cc" />
    <rect
       style="fill:#006600;fill-opacity:1;stroke:#000000;stroke-width:0.529167;stroke-linecap:round;stroke-linejoin:round;stroke-opacity:0.941176"
       id="rect893"
       width="45.640625"
       height="2.0788691"
       x="28.631697"
       y="41.048222" />
    <path
       style="fill:#006600;fill-opacity:1;stroke:#000000;stroke-width:0.529167;stroke-linecap:round;stroke-linejoin:round;stroke-miterlimit:4;stroke-dasharray:none;stroke-opacity:1"
       d="m 28.631697,41.048221 -3.590773,-0.982745 v -4.913691 h -1.086683 l -0.04725,5.433412 4.724703,2.541892 v -2.078868"
       id="path897" />
    <rect
       style="fill:none;fill-opacity:1;stroke:#666666;stroke-width:0.264583;stroke-linecap:round;stroke-linejoin:round;stroke-miterlimit:4;stroke-dasharray:none;stroke-opacity:1"
       id="rect2839"
       width="52.785732"
       height="1.0379329"
       x="24.9897"
       y="38.124779" />
    <rect
       style="fill:none;fill-opacity:1;stroke:#666666;stroke-width:0.264583;stroke-linecap:round;stroke-linejoin:round;stroke-miterlimit:4;stroke-dasharray:none;stroke-opacity:1"
       id="rect2841"
       width="52.838181"
       height="1.0385939"
       x="24.963476"
       y="36.079002" />
    <rect
       style="fill:none;fill-opacity:1;stroke:#666666;stroke-width:0.264583;stroke-linecap:round;stroke-linejoin:round;stroke-miterlimit:4;stroke-dasharray:none;stroke-opacity:1"
       id="rect2843"
       width="1.2027128"
       height="4.8776689"
       x="26.292639"
       y="35.192448" />
    <rect
       style="fill:none;fill-opacity:1;stroke:#666666;stroke-width:0.264583;stroke-linecap:round;stroke-linejoin:round;stroke-miterlimit:4;stroke-dasharray:none;stroke-opacity:1"
       id="rect2845"
       width="1.2027128"
       height="4.8776689"
       x="28.771431"
       y="35.192448" />
    <rect
       style="fill:none;fill-opacity:1;stroke:#666666;stroke-width:0.264583;stroke-linecap:round;stroke-linejoin:round;stroke-miterlimit:4;stroke-dasharray:none;stroke-opacity:1"
       id="rect2847"
       width="1.2027128"
       height="4.8776689"
       x="31.289003"
       y="35.225857" />
    <rect
       style="fill:none;fill-opacity:1;stroke:#666666;stroke-width:0.264583;stroke-linecap:round;stroke-linejoin:round;stroke-miterlimit:4;stroke-dasharray:none;stroke-opacity:1"
       id="rect2849"
       width="1.2027128"
       height="4.8776689"
       x="33.767796"
       y="35.225857" />
    <rect
       style="fill:none;fill-opacity:1;stroke:#808080;stroke-width:0.264583;stroke-linecap:round;stroke-linejoin:round;stroke-miterlimit:4;stroke-dasharray:none;stroke-opacity:1"
       id="rect2851"
       width="1.2027128"
       height="4.8776689"
       x="36.346813"
       y="35.192448" />
    <rect
       style="fill:none;fill-opacity:1;stroke:#808080;stroke-width:0.264583;stroke-linecap:round;stroke-linejoin:round;stroke-miterlimit:4;stroke-dasharray:none;stroke-opacity:1"
       id="rect2853"
       width="1.2027128"
       height="4.8776689"
       x="38.825607"
       y="35.192448" />
    <rect
       style="fill:none;fill-opacity:1;stroke:#808080;stroke-width:0.264583;stroke-linecap:round;stroke-linejoin:round;stroke-miterlimit:4;stroke-dasharray:none;stroke-opacity:1"
       id="rect2855"
       width="1.2027128"
       height="4.8776689"
       x="41.343178"
       y="35.225857" />
    <rect
       style="fill:none;fill-opacity:1;stroke:#808080;stroke-width:0.264583;stroke-linecap:round;stroke-linejoin:round;stroke-miterlimit:4;stroke-dasharray:none;stroke-opacity:1"
       id="rect2857"
       width="1.2027128"
       height="4.8776689"
       x="43.821972"
       y="35.225857" />
    <rect
       style="fill:none;fill-opacity:1;stroke:#808080;stroke-width:0.264583;stroke-linecap:round;stroke-linejoin:round;stroke-miterlimit:4;stroke-dasharray:none;stroke-opacity:1"
       id="rect2859"
       width="1.2027128"
       height="4.8776689"
       x="46.40099"
       y="35.192448" />
    <rect
       style="fill:none;fill-opacity:1;stroke:#808080;stroke-width:0.264583;stroke-linecap:round;stroke-linejoin:round;stroke-miterlimit:4;stroke-dasharray:none;stroke-opacity:1"
       id="rect2861"
       width="1.2027128"
       height="4.8776689"
       x="48.879784"
       y="35.192448" />
    <rect
       style="fill:none;fill-opacity:1;stroke:#808080;stroke-width:0.264583;stroke-linecap:round;stroke-linejoin:round;stroke-miterlimit:4;stroke-dasharray:none;stroke-opacity:1"
       id="rect2863"
       width="1.2027128"
       height="4.8776689"
       x="51.397354"
       y="35.225857" />
    <rect
       style="fill:none;fill-opacity:1;stroke:#666666;stroke-width:0.264583;stroke-linecap:round;stroke-linejoin:round;stroke-miterlimit:4;stroke-dasharray:none;stroke-opacity:1"
       id="rect2865"
       width="1.2027128"
       height="4.8776689"
       x="53.876148"
       y="35.225857" />
    <rect
       style="fill:none;fill-opacity:1;stroke:#666666;stroke-width:0.264583;stroke-linecap:round;stroke-linejoin:round;stroke-miterlimit:4;stroke-dasharray:none;stroke-opacity:1"
       id="rect2867"
       width="1.2027128"
       height="4.8776689"
       x="56.455166"
       y="35.192448" />
    <rect
       style="fill:none;fill-opacity:1;stroke:#666666;stroke-width:0.264583;stroke-linecap:round;stroke-linejoin:round;stroke-miterlimit:4;stroke-dasharray:none;stroke-opacity:1"
       id="rect2869"
       width="1.2027128"
       height="4.8776689"
       x="58.93396"
       y="35.192448" />
    <rect
       style="fill:none;fill-opacity:1;stroke:#666666;stroke-width:0.264583;stroke-linecap:round;stroke-linejoin:round;stroke-miterlimit:4;stroke-dasharray:none;stroke-opacity:1"
       id="rect2871"
       width="1.2027128"
       height="4.8776689"
       x="61.45153"
       y="35.225857" />
    <rect
       style="fill:none;fill-opacity:1;stroke:#666666;stroke-width:0.264583;stroke-linecap:round;stroke-linejoin:round;stroke-miterlimit:4;stroke-dasharray:none;stroke-opacity:1"
       id="rect2873"
       width="1.2027128"
       height="4.8776689"
       x="63.930325"
       y="35.225857" />
    <rect
       style="fill:none;fill-opacity:1;stroke:#666666;stroke-width:0.264583;stroke-linecap:round;stroke-linejoin:round;stroke-miterlimit:4;stroke-dasharray:none;stroke-opacity:1"
       id="rect2875"
       width="1.2027128"
       height="4.8776689"
       x="66.509338"
       y="35.192448" />
    <rect
       style="fill:none;fill-opacity:1;stroke:#666666;stroke-width:0.264583;stroke-linecap:round;stroke-linejoin:round;stroke-miterlimit:4;stroke-dasharray:none;stroke-opacity:1"
       id="rect2877"
       width="1.2027128"
       height="4.8776689"
       x="68.988136"
       y="35.192448" />
    <rect
       style="fill:none;fill-opacity:1;stroke:#666666;stroke-width:0.264583;stroke-linecap:round;stroke-linejoin:round;stroke-miterlimit:4;stroke-dasharray:none;stroke-opacity:1"
       id="rect2879"
       width="1.2027128"
       height="4.8776689"
       x="71.505707"
       y="35.225857" />
    <rect
       style="fill:none;fill-opacity:1;stroke:#666666;stroke-width:0.264583;stroke-linecap:round;stroke-linejoin:round;stroke-miterlimit:4;stroke-dasharray:none;stroke-opacity:1"
       id="rect2881"
       width="1.2027128"
       height="4.8776689"
       x="73.984497"
       y="35.225857" />
    <rect
       style="fill:none;fill-opacity:1;stroke:#666666;stroke-width:0.264583;stroke-linecap:round;stroke-linejoin:round;stroke-miterlimit:4;stroke-dasharray:none;stroke-opacity:1"
       id="rect2883"
       width="1.2027128"
       height="4.8776689"
       x="76.563515"
       y="35.192448" />
    <rect
       style="fill:none;fill-opacity:1;stroke:#000000;stroke-width:0.396875;stroke-linecap:round;stroke-linejoin:round;stroke-miterlimit:4;stroke-dasharray:none;stroke-opacity:1"
       id="rect895"
       width="52.689167"
       height="4.9143233"
       x="25.040607"
       y="35.15147" />
    <path
       style="fill:#006600;fill-opacity:1;stroke:#000000;stroke-width:0.529167;stroke-linecap:round;stroke-linejoin:round;stroke-miterlimit:4;stroke-dasharray:none;stroke-opacity:1"
       d="m 74.177856,41.048221 3.590773,-0.982745 v -4.913691 h 1.086683 l 0.04725,5.433412 -4.724703,2.541892 v -2.078868"
       id="path899" />
    <path
       style="fill:#333366;stroke:#000000;stroke-width:0.529167;stroke-linecap:butt;stroke-linejoin:miter;stroke-miterlimit:4;stroke-dasharray:none;stroke-opacity:1"
       d="M 94.015587,59.344986 91.698399,32.488474 90.047933,31.021396 88.764238,30.287851 86.747004,29.370925 84.362996,28.270626 h -0.916924 l -2.934161,1.283683 -2.017235,1.833855 -0.733538,2.384001 -0.366773,25.490386 z"
       id="path2082"
       sodipodi:nodetypes="cccccccccccc" />
    <ellipse
       style="fill:#ffdb9d;stroke:#000000;stroke-width:0.529167;stroke-miterlimit:4;stroke-dasharray:none"
       id="ellipse2078"
       cx="-85.133171"
       cy="21.668747"
       rx="8.6852827"
       ry="8.3233967"
       transform="scale(-1,1)" />
    <path
       style="fill:#ff9933;stroke:#000000;stroke-width:0.529167;stroke-linecap:round;stroke-linejoin:round;stroke-miterlimit:4;stroke-dasharray:none;stroke-opacity:1"
       d="m 82.239035,16.231638 -2.676094,-0.61756 -0.61756,-1.132193 -0.617557,-1.029265 2.367309,-0.92634 1.543902,-0.102922 4.322917,0.205854 1.955603,0.102922 1.440973,1.132192 2.470239,1.543899 0.720486,1.338046 0.514631,1.440972 v 2.264385 l 0.617561,2.470238 v 1.440973 l -0.617561,4.014137 0.205854,1.749752 -1.543898,0.205851 -1.132194,-1.646823 -1.646825,-1.235121 0.102923,-2.67609 -1.235119,-1.440973 -0.823414,-4.837549 -1.64682,-0.926339 -1.646826,-1.029267 z"
       id="path992" />
    <rect
       style="fill:#333333;fill-opacity:1;stroke:#000000;stroke-width:0.529167;stroke-linecap:round;stroke-linejoin:round;stroke-miterlimit:4;stroke-dasharray:none;stroke-opacity:1"
       id="rect2891"
       width="2.1757257"
       height="15.785915"
       x="31.785095"
       y="43.105484" />
    <rect
       style="fill:#333333;fill-opacity:1;stroke:#000000;stroke-width:0.529167;stroke-linecap:round;stroke-linejoin:round;stroke-miterlimit:4;stroke-dasharray:none;stroke-opacity:1"
       id="rect2893"
       width="2.1757257"
       height="15.785915"
       x="69.396805"
       y="43.105484" />
    <path
       style="fill:#003399;stroke:#000000;stroke-width:0.52916667;stroke-linecap:butt;stroke-linejoin:miter;stroke-opacity:1;stroke-miterlimit:4;stroke-dasharray:none"
       d="M 9.2604166,58.586308 H 25.702381 l -2.834822,-25.702381 -0.755952,-1.700892 -0.944941,-0.944941 -2.551339,-0.850445 -5.575149,-0.188989 -0.850446,0.661458 -1.322917,1.417413 -1.2284224,7.087052 z"
       id="path2897" />
    <ellipse
       style="fill:#ffdb9d;stroke:#000000;stroke-width:0.529167;stroke-miterlimit:4;stroke-dasharray:none"
       id="ellipse2895"
       cx="17.278908"
       cy="22.642128"
       rx="8.6852827"
       ry="8.3233967" />
    <rect
       style="fill:#cc9900;fill-opacity:1;stroke:#000000;stroke-width:0.529167;stroke-linecap:round;stroke-linejoin:round;stroke-miterlimit:4;stroke-dasharray:none;stroke-opacity:1"
       id="rect2905"
       width="1.0356694"
       height="3.9422255"
       x="42.860855"
       y="24.95396"
       transform="rotate(12.830657)" />
    <path
       style="fill:#ffdb9d;stroke:#000000;stroke-width:0.52916667;stroke-linecap:butt;stroke-linejoin:miter;stroke-opacity:1;stroke-miterlimit:4;stroke-dasharray:none"
       d="m 33.208237,37.78523 2.57247,1.00226 h 0.801809 l 0.434314,-0.300678 0.46772,-0.734991 -0.167042,-1.002263 -0.501132,-0.334086 h -3.407685 z"
       id="path2903" />
    <ellipse
       style="fill:#ff3300;fill-opacity:1;stroke:#000000;stroke-width:0.529167;stroke-linecap:round;stroke-linejoin:round;stroke-miterlimit:4;stroke-dasharray:none;stroke-opacity:1"
       id="path2907"
       cx="43.328575"
       cy="22.080814"
       rx="2.1715648"
       ry="2.9733737"
       transform="rotate(12.830657)" />
    <path
       style="fill:#003399;stroke:#000000;stroke-width:0.52916667;stroke-linecap:butt;stroke-linejoin:miter;stroke-opacity:1;stroke-miterlimit:4;stroke-dasharray:none"
       d="m 19.087797,31.655506 -1.228422,0.472469 -0.755953,1.41741 0.377977,1.6064 0.47247,0.755954 16.457082,2.712707 0.601356,-2.605876 z"
       id="path2901" />
    <path
       style="fill:#996600;stroke:#000000;stroke-width:0.529167;stroke-linecap:round;stroke-linejoin:round;stroke-miterlimit:4;stroke-dasharray:none;stroke-opacity:1"
       d="m 20.883184,31.230281 0.472471,-6.425594 0.425223,0.04725 -0.472471,-2.598586 0.850447,-2.362351 -0.661458,-1.181176 3.921503,-1.511904 -3.260045,-2.882069 -0.992188,0.141741 -3.307291,-1.086682 -0.897694,0.566965 -6.236607,0.236235 v 0.803199 l -0.708705,0.236235 0.330729,0.992188 -1.2756696,1.464658 v 0.377976 L 7.6067707,19.938244 8.031994,20.31622 7.6540176,24.143229 H 8.315476 l -0.2362351,3.260045 0.8504465,-0.188989 0.6614583,1.606399 0.047247,1.322916 0.9449403,-0.755951 1.464658,1.984375 0.614211,1.464656 0.8032,-1.22842 0.897693,1.133927 1.889881,-0.992187 0.566964,0.188989 z"
       id="path2915"
       sodipodi:nodetypes="ccccccccccccccccccccccccccccccccc" />
    <rect
       style="fill:#cc9900;fill-opacity:1;stroke:#000000;stroke-width:0.529167;stroke-linecap:round;stroke-linejoin:round;stroke-miterlimit:4;stroke-dasharray:none;stroke-opacity:1"
       id="rect2921"
       width="1.0356694"
       height="3.9422255"
       x="-29.014402"
       y="74.828964"
       transform="matrix(-0.77351603,0.63377673,0.63377673,0.77351603,0,0)" />
    <ellipse
       style="fill:#ff3300;fill-opacity:1;stroke:#000000;stroke-width:0.529167;stroke-linecap:round;stroke-linejoin:round;stroke-miterlimit:4;stroke-dasharray:none;stroke-opacity:1"
       id="ellipse2923"
       cx="-28.546682"
       cy="71.955818"
       rx="2.1715648"
       ry="2.9733737"
       transform="matrix(-0.77351603,0.63377673,0.63377673,0.77351603,0,0)" />
    <path
       style="fill:#ffdb9d;stroke:#000000;stroke-width:0.529167;stroke-linecap:butt;stroke-linejoin:miter;stroke-miterlimit:4;stroke-dasharray:none;stroke-opacity:1"
       d="m 73.876118,41.374691 -1.898282,2.004658 -0.725052,0.342341 -0.521115,-0.08646 -0.736758,-0.464933 -0.276875,-0.977637 0.310517,-0.516067 3.081467,-1.454948 z"
       id="path2927" />
    <path
       style="fill:#333366;stroke:#000000;stroke-width:0.52916667;stroke-linecap:butt;stroke-linejoin:miter;stroke-opacity:1;stroke-miterlimit:4;stroke-dasharray:none"
       d="m 82.051744,31.470986 0.935445,-0.133633 1.269529,0.534537 0.267268,0.734992 v 0.801809 L 84.1899,34.67822 73.599346,42.228584 72.112658,40.307585 Z"
       id="path2925" />
    <circle
       style="opacity:1;fill:#cccccc;fill-opacity:1;stroke:#666666;stroke-width:0.26458333;stroke-linecap:round;stroke-linejoin:round;stroke-miterlimit:4;stroke-dasharray:none;stroke-opacity:1"
       id="path2933"
       cx="55.326263"
       cy="32.836678"
       r="1.1811756" />
  </g>
</svg>
