<?xml version="1.0" encoding="UTF-8" standalone="no"?>
<svg
   xmlns:dc="http://purl.org/dc/elements/1.1/"
   xmlns:cc="http://creativecommons.org/ns#"
   xmlns:rdf="http://www.w3.org/1999/02/22-rdf-syntax-ns#"
   xmlns:svg="http://www.w3.org/2000/svg"
   xmlns="http://www.w3.org/2000/svg"
   xmlns:sodipodi="http://sodipodi.sourceforge.net/DTD/sodipodi-0.dtd"
   xmlns:inkscape="http://www.inkscape.org/namespaces/inkscape"
   width="500"
   height="200"
   viewBox="0 0 132.29167 52.916668"
   version="1.1"
   id="svg900"
   inkscape:version="1.0.1 (3bc2e813f5, 2020-09-07)"
   sodipodi:docname="Abstand Pinwand.svg"
   inkscape:export-filename="C:\Users\User\Abstand Pinwand.png"
   inkscape:export-xdpi="96"
   inkscape:export-ydpi="96">
  <defs
     id="defs894">
    <rect
       x="16.933332"
       y="-31.617708"
       width="43.259377"
       height="24.606251"
       id="rect1857" />
    <marker
       style="overflow:visible"
       id="Arrow1Mend"
       refX="0"
       refY="0"
       orient="auto"
       inkscape:stockid="Arrow1Mend"
       inkscape:isstock="true">
      <path
         transform="matrix(-0.4,0,0,-0.4,-4,0)"
         style="fill:#000000;fill-opacity:1;fill-rule:evenodd;stroke:#000000;stroke-width:1pt;stroke-opacity:1"
         d="M 0,0 5,-5 -12.5,0 5,5 Z"
         id="path1512" />
    </marker>
    <marker
       style="overflow:visible"
       id="Arrow1Mstart"
       refX="0"
       refY="0"
       orient="auto"
       inkscape:stockid="Arrow1Mstart"
       inkscape:isstock="true">
      <path
         transform="matrix(0.4,0,0,0.4,4,0)"
         style="fill:#000000;fill-opacity:1;fill-rule:evenodd;stroke:#000000;stroke-width:1pt;stroke-opacity:1"
         d="M 0,0 5,-5 -12.5,0 5,5 Z"
         id="path1509" />
    </marker>
  </defs>
  <sodipodi:namedview
     id="base"
     pagecolor="#ffffff"
     bordercolor="#666666"
     borderopacity="1.0"
     inkscape:pageopacity="0.0"
     inkscape:pageshadow="2"
     inkscape:zoom="2"
     inkscape:cx="306.56203"
     inkscape:cy="65.644936"
     inkscape:document-units="mm"
     inkscape:current-layer="layer1"
     inkscape:document-rotation="0"
     showgrid="false"
     units="px"
     inkscape:window-width="1920"
     inkscape:window-height="1001"
     inkscape:window-x="-9"
     inkscape:window-y="-9"
     inkscape:window-maximized="1" />
  <metadata
     id="metadata897">
    <rdf:RDF>
      <cc:Work
         rdf:about="">
        <dc:format>image/svg+xml</dc:format>
        <dc:type
           rdf:resource="http://purl.org/dc/dcmitype/StillImage" />
        <dc:title></dc:title>
      </cc:Work>
    </rdf:RDF>
  </metadata>
  <g
     inkscape:label="Ebene 1"
     inkscape:groupmode="layer"
     id="layer1">
    <rect
       style="fill:#ffffff;fill-opacity:1;stroke:#000000;stroke-width:0.529167;stroke-linecap:round;stroke-linejoin:round;stroke-miterlimit:4;stroke-dasharray:none"
       id="rect1463"
       width="7.8844509"
       height="11.893495"
       x="36.866417"
       y="9.6217022" />
    <rect
       style="fill:#ffffff;fill-opacity:1;stroke:#000000;stroke-width:0.529167;stroke-linecap:round;stroke-linejoin:round;stroke-miterlimit:4;stroke-dasharray:none"
       id="rect1465"
       width="7.8844509"
       height="11.893495"
       x="36.866417"
       y="9.6217022" />
    <rect
       style="fill:#ffffff;fill-opacity:1;stroke:#000000;stroke-width:0.529167;stroke-linecap:round;stroke-linejoin:round;stroke-miterlimit:4;stroke-dasharray:none"
       id="rect1467"
       width="7.8844509"
       height="11.893495"
       x="45.862259"
       y="9.6217022" />
    <rect
       style="fill:#ffffff;fill-opacity:1;stroke:#000000;stroke-width:0.529167;stroke-linecap:round;stroke-linejoin:round;stroke-miterlimit:4;stroke-dasharray:none"
       id="rect1469"
       width="7.8844509"
       height="11.893495"
       x="54.858101"
       y="9.6217022" />
    <rect
       style="fill:#ffffff;fill-opacity:1;stroke:#000000;stroke-width:0.529167;stroke-linecap:round;stroke-linejoin:round;stroke-miterlimit:4;stroke-dasharray:none"
       id="rect1471"
       width="7.8844509"
       height="11.893495"
       x="63.853943"
       y="9.6217022" />
    <rect
       style="fill:#ffffff;fill-opacity:1;stroke:#000000;stroke-width:0.529167;stroke-linecap:round;stroke-linejoin:round;stroke-miterlimit:4;stroke-dasharray:none"
       id="rect1473"
       width="7.8844509"
       height="11.893495"
       x="72.849785"
       y="9.6217022" />
    <rect
       style="fill:#ffffff;fill-opacity:1;stroke:#000000;stroke-width:0.529167;stroke-linecap:round;stroke-linejoin:round;stroke-miterlimit:4;stroke-dasharray:none"
       id="rect1475"
       width="7.8844509"
       height="11.893495"
       x="81.845627"
       y="9.6217022" />
    <rect
       style="fill:#ffffff;fill-opacity:1;stroke:#000000;stroke-width:0.529167;stroke-linecap:round;stroke-linejoin:round;stroke-miterlimit:4;stroke-dasharray:none"
       id="rect1477"
       width="7.8844509"
       height="11.893495"
       x="90.841469"
       y="9.6217022" />
    <path
       style="fill:#003399;stroke:#000000;stroke-width:0.529167;stroke-linecap:butt;stroke-linejoin:miter;stroke-miterlimit:4;stroke-dasharray:none;stroke-opacity:1"
       d="m 13.363476,49.578496 2.939965,-22.717909 0.668174,-1.069078 1.737252,-1.737252 1.870886,-0.935443 1.603617,-0.133635 h 1.202713 l 1.469983,1.069078 1.202713,1.202713 1.336348,4.142678 0.801807,20.17885 z"
       id="path1481"
       sodipodi:nodetypes="cccccccccccc" />
    <circle
       style="fill:#ffdb9d;fill-opacity:1;stroke:#000000;stroke-width:0.529167;stroke-linecap:round;stroke-linejoin:round;stroke-miterlimit:4;stroke-dasharray:none"
       id="path1479"
       cx="21.715651"
       cy="17.572969"
       r="7.0158248" />
    <path
       style="fill:#cc9900;stroke:#000000;stroke-width:0.529167;stroke-linecap:butt;stroke-linejoin:round;stroke-miterlimit:4;stroke-dasharray:none;stroke-opacity:1"
       d="m 26.726951,12.160763 -2.405424,1.870887 -0.534539,3.741773 -0.400905,5.211756 -0.376783,2.480967 -1.559151,-0.04725 -0.992188,-0.850447 -0.614211,0.519717 -1.134883,-1.033912 -1.36921,0.372454 -0.803199,-0.992187 -1.181176,0.141741 -0.803199,-1.511905 -0.47247,-1.322917 -0.283482,-1.700893 v -1.370163 l 0.425223,-2.315105 -0.188988,-0.614211 0.519717,-0.708705 0.566964,-1.795387 0.519718,0.330729 1.370163,-1.653646 2.267858,-0.9921871 0.330729,0.5669641 2.456845,-1.3701634 0.897693,0.8031993 1.937128,-0.047247 1.133929,0.7559521 1.133928,0.614212 z"
       id="path1483" />
    <rect
       style="fill:#ff9933;fill-opacity:1;stroke:#000000;stroke-width:0.529167;stroke-linecap:round;stroke-linejoin:round;stroke-miterlimit:4;stroke-dasharray:none"
       id="rect1491"
       width="7.3666162"
       height="0.96885204"
       x="17.566635"
       y="34.734467"
       transform="rotate(-37.806111)" />
    <path
       style="fill:#ffdb9d;stroke:#000000;stroke-width:0.529167;stroke-linecap:butt;stroke-linejoin:miter;stroke-miterlimit:4;stroke-dasharray:none;stroke-opacity:1"
       d="m 35.931046,18.541823 0.08352,-1.419869 0.417607,-1.102487 0.935443,-0.918739 h 0.484425 l 0.417611,0.06682 0.417607,0.400904 0.267269,0.50113 -0.01669,0.801809 -0.300678,0.601356 -0.400904,0.634765 -0.751697,1.102487 z"
       id="path1489" />
    <path
       style="fill:#003399;stroke:#000000;stroke-width:0.529167;stroke-linecap:butt;stroke-linejoin:miter;stroke-miterlimit:4;stroke-dasharray:none;stroke-opacity:1"
       d="m 25.655134,27.167038 -0.566965,0.755952 v 0.897694 l 0.09449,1.181176 0.661458,0.33073 0.992187,0.14174 1.41741,-0.283483 6.709079,-4.252231 0.755952,-0.992188 0.755951,-1.937128 1.653646,-4.157738 -2.362351,-0.94494 -2.740326,5.338913 -2.69308,2.07887 z"
       id="path1485" />
    <path
       style="fill:#ccddff;fill-opacity:1;stroke:#000000;stroke-width:0.529167;stroke-linecap:butt;stroke-linejoin:miter;stroke-miterlimit:4;stroke-dasharray:none;stroke-opacity:1"
       d="m 119.1827,49.578496 -2.93998,-22.717909 -0.66818,-1.069078 -1.73726,-1.737252 -1.87089,-0.935443 -1.60363,-0.133635 h -1.20272 l -1.46999,1.069078 -1.20272,1.202713 -1.33636,4.142678 -0.80181,20.17885 z"
       id="path1493"
       sodipodi:nodetypes="cccccccccccc" />
    <circle
       style="fill:#ffdb9d;fill-opacity:1;stroke:#000000;stroke-width:0.529167;stroke-linecap:round;stroke-linejoin:round;stroke-miterlimit:4;stroke-dasharray:none"
       id="circle1495"
       cx="-110.83039"
       cy="17.572969"
       r="7.0158248"
       transform="scale(-1,1)" />
    <path
       style="fill:#996600;stroke:#000000;stroke-width:0.529167;stroke-linecap:butt;stroke-linejoin:miter;stroke-miterlimit:4;stroke-dasharray:none;stroke-opacity:1"
       d="m 104.94511,12.000744 -0.37798,1.511905 1.79539,-0.09449 1.03943,1.41741 h 1.98438 l 1.6064,1.606399 1.70089,-0.09449 0.66146,0.850446 h 0.28348 v 1.889881 l 0.47247,0.944941 0.85045,1.228422 v 1.228423 l 0.75595,1.228423 1.13393,-1.039435 1.22842,-1.039434 V 19.37128 l 0.94494,-0.944941 v -1.511905 -0.850446 -1.133929 l -0.47247,-0.661458 -0.94494,-0.94494 V 11.90625 l -1.98437,-0.755953 -1.13393,-1.3229162 h -1.6064 l -1.51191,-0.7559524 -1.32291,1.1339286 -2.07887,-1.1339286 -0.56697,0.9449406 h -1.6064 v 0.661458 z"
       id="path1499" />
    <path
       style="fill:none;stroke:#000000;stroke-width:0.79375;stroke-linecap:butt;stroke-linejoin:miter;stroke-miterlimit:4;stroke-dasharray:none;stroke-opacity:1;marker-start:url(#Arrow1Mstart);marker-end:url(#Arrow1Mend)"
       d="M 37.041666,46.774552 H 97.990325"
       id="path1501" />
    <text
       xml:space="preserve"
       id="text1855"
       style="font-style:normal;font-weight:normal;font-size:10.5833px;line-height:1.25;font-family:sans-serif;white-space:pre;shape-inside:url(#rect1857);fill:#000000;fill-opacity:1;stroke:none;"
       transform="translate(36.909375,65.616667)"><tspan
         x="16.933594"
         y="-22.253448"><tspan>1,5m</tspan></tspan></text>
  </g>
</svg>
