<?xml version="1.0" encoding="UTF-8" standalone="no"?>
<svg
   xmlns:dc="http://purl.org/dc/elements/1.1/"
   xmlns:cc="http://creativecommons.org/ns#"
   xmlns:rdf="http://www.w3.org/1999/02/22-rdf-syntax-ns#"
   xmlns:svg="http://www.w3.org/2000/svg"
   xmlns="http://www.w3.org/2000/svg"
   xmlns:sodipodi="http://sodipodi.sourceforge.net/DTD/sodipodi-0.dtd"
   xmlns:inkscape="http://www.inkscape.org/namespaces/inkscape"
   width="400"
   height="200"
   viewBox="0 0 105.83333 52.916666"
   version="1.1"
   id="svg959"
   inkscape:version="1.0.1 (3bc2e813f5, 2020-09-07)"
   sodipodi:docname="Abstand Polo.svg"
   inkscape:export-filename="C:\Users\User\Abstand Polo.png"
   inkscape:export-xdpi="96"
   inkscape:export-ydpi="96">
  <defs
     id="defs953">
    <rect
       x="46.772167"
       y="-6.5481033"
       width="37.1371"
       height="14.125195"
       id="rect1920" />
    <marker
       style="overflow:visible"
       id="Arrow1Mend"
       refX="0"
       refY="0"
       orient="auto"
       inkscape:stockid="Arrow1Mend"
       inkscape:isstock="true">
      <path
         transform="matrix(-0.4,0,0,-0.4,-4,0)"
         style="fill:#000000;fill-opacity:1;fill-rule:evenodd;stroke:#000000;stroke-width:1pt;stroke-opacity:1"
         d="M 0,0 5,-5 -12.5,0 5,5 Z"
         id="path1613" />
    </marker>
    <marker
       style="overflow:visible"
       id="Arrow1Mstart"
       refX="0"
       refY="0"
       orient="auto"
       inkscape:stockid="Arrow1Mstart"
       inkscape:isstock="true">
      <path
         transform="matrix(0.4,0,0,0.4,4,0)"
         style="fill:#000000;fill-opacity:1;fill-rule:evenodd;stroke:#000000;stroke-width:1pt;stroke-opacity:1"
         d="M 0,0 5,-5 -12.5,0 5,5 Z"
         id="path1610" />
    </marker>
  </defs>
  <sodipodi:namedview
     id="base"
     pagecolor="#ffffff"
     bordercolor="#666666"
     borderopacity="1.0"
     inkscape:pageopacity="0.0"
     inkscape:pageshadow="2"
     inkscape:zoom="5.6568542"
     inkscape:cx="247.32589"
     inkscape:cy="116.00687"
     inkscape:document-units="mm"
     inkscape:current-layer="layer1"
     inkscape:document-rotation="0"
     showgrid="false"
     inkscape:window-width="1920"
     inkscape:window-height="1001"
     inkscape:window-x="-9"
     inkscape:window-y="-9"
     inkscape:window-maximized="1" />
  <metadata
     id="metadata956">
    <rdf:RDF>
      <cc:Work
         rdf:about="">
        <dc:format>image/svg+xml</dc:format>
        <dc:type
           rdf:resource="http://purl.org/dc/dcmitype/StillImage" />
        <dc:title></dc:title>
      </cc:Work>
    </rdf:RDF>
  </metadata>
  <g
     inkscape:label="Ebene 1"
     inkscape:groupmode="layer"
     id="layer1">
    <rect
       style="fill:#222222;fill-opacity:1;stroke:#000000;stroke-width:0.529167;stroke-linecap:round;stroke-linejoin:round;stroke-miterlimit:4;stroke-dasharray:none;stroke-opacity:1"
       id="rect1562"
       width="3.4254091"
       height="9.8982515"
       x="66.750572"
       y="40.4907" />
    <rect
       style="fill:#222222;fill-opacity:1;stroke:#000000;stroke-width:0.529167;stroke-linecap:round;stroke-linejoin:round;stroke-miterlimit:4;stroke-dasharray:none;stroke-opacity:1"
       id="rect1564"
       width="3.4254091"
       height="9.8982515"
       x="35.000542"
       y="40.4907" />
    <path
       style="fill:#550000;fill-opacity:1;stroke:#000000;stroke-width:0.529167;stroke-linecap:butt;stroke-linejoin:round;stroke-miterlimit:4;stroke-dasharray:none;stroke-opacity:1"
       d="m 33.361674,35.413211 1.024697,6.400403 1.748139,3.590775 3.590774,-0.519716 25.844121,-0.0945 3.212799,0.661458 1.606399,-4.11049 1.25943,-6.328841 -38.286359,0.400907"
       id="path1546" />
    <path
       style="fill:#990000;fill-opacity:1;stroke:#000000;stroke-width:0.529167;stroke-linecap:butt;stroke-linejoin:round;stroke-miterlimit:4;stroke-dasharray:none;stroke-opacity:1"
       d="m 35.232565,29.733734 -2.004523,-2.539061 0.868627,-0.46772 1.469982,2.271789 z"
       id="path1582" />
    <path
       style="fill:#990000;fill-opacity:1;stroke:#000000;stroke-width:0.529167;stroke-linecap:butt;stroke-linejoin:round;stroke-miterlimit:4;stroke-dasharray:none;stroke-opacity:1"
       d="m 69.643512,29.666917 2.004523,-2.539061 -0.868627,-0.46772 -1.469982,2.271789 z"
       id="path1578" />
    <path
       style="fill:#990000;stroke:#000000;stroke-width:0.529167;stroke-linecap:butt;stroke-linejoin:round;stroke-miterlimit:4;stroke-dasharray:none;stroke-opacity:1"
       d="m 40.3775,16.637528 -1.069078,0.668174 -4.34313,11.96031 -1.00226,2.539061 -0.334087,1.804069 -0.267271,1.804069 2.204974,4.543584 34.745038,-0.06682 1.336349,-4.87767 -0.400904,-4.075859 -5.846522,-13.463703 -0.801809,-0.734991 -7.182869,-0.467722 -8.15172,0.133635 z"
       id="path1542" />
    <path
       style="fill:#444444;fill-opacity:1;stroke:#000000;stroke-width:0.529167;stroke-linecap:butt;stroke-linejoin:round;stroke-miterlimit:4;stroke-dasharray:none;stroke-opacity:1"
       d="m 35.851027,32.789434 -0.09449,3.685267 33.450892,-0.188986 -0.377976,-3.496281 z"
       id="path1536" />
    <path
       style="fill:#deffff;stroke:#000000;stroke-width:0.529167;stroke-linecap:butt;stroke-linejoin:round;stroke-miterlimit:4;stroke-dasharray:none;stroke-opacity:1"
       d="m 40.339495,18.190104 -3.827009,8.929687 0.283482,0.850448 9.071427,-0.566965 10.205358,-0.09449 7.559524,0.09449 3.685267,0.472469 1.039434,-0.755952 -3.590774,-8.88244 -12.662201,-0.47247 z"
       id="path1538"
       sodipodi:nodetypes="ccccccccccc" />
    <path
       style="fill:#444444;fill-opacity:1;stroke:#000000;stroke-width:0.529167;stroke-linecap:butt;stroke-linejoin:round;stroke-miterlimit:4;stroke-dasharray:none;stroke-opacity:1"
       d="m 35.756537,36.474701 -1.793505,0.475311 0.801809,1.670434 36.081385,-0.200451 0.601356,-1.469983 -0.80181,-0.601356 -1.438343,-0.06294 -33.450892,0.188986"
       id="path1540" />
    <path
       style="fill:none;stroke:#000000;stroke-width:0.529167;stroke-linecap:butt;stroke-linejoin:round;stroke-miterlimit:4;stroke-dasharray:none;stroke-opacity:1"
       d="m 36.795968,27.970239 v 0 l 0.775203,4.770279 29.733734,0.200451 0.01265,-5.065226"
       id="path1544" />
    <rect
       style="fill:#b4e2ff;stroke:#000000;stroke-width:0.529167;stroke-linecap:round;stroke-linejoin:round;stroke-miterlimit:4;stroke-dasharray:none;stroke-opacity:1"
       id="rect1548"
       width="13.370907"
       height="2.9765625"
       x="45.961884"
       y="37.892113" />
    <circle
       style="fill:#b4e2ff;stroke:#000000;stroke-width:0.529167;stroke-linecap:round;stroke-linejoin:round;stroke-miterlimit:4;stroke-dasharray:none;stroke-opacity:1"
       id="path1552"
       cx="41.615158"
       cy="34.58482"
       r="1.1811756" />
    <ellipse
       style="fill:#b4e2ff;stroke:#000000;stroke-width:0.558895;stroke-linecap:round;stroke-linejoin:round;stroke-miterlimit:4;stroke-dasharray:none;stroke-opacity:1"
       id="ellipse1554"
       cx="-66.806313"
       cy="34.632065"
       rx="1.5594172"
       ry="1.4970405"
       transform="scale(-1,1)" />
    <circle
       style="fill:#b4e2ff;stroke:#000000;stroke-width:0.529167;stroke-linecap:round;stroke-linejoin:round;stroke-miterlimit:4;stroke-dasharray:none;stroke-opacity:1"
       id="circle1556"
       cx="-63.325157"
       cy="34.513947"
       r="1.1811756"
       transform="scale(-1,1)" />
    <ellipse
       style="fill:#333333;fill-opacity:1;stroke:#000000;stroke-width:0.529167;stroke-linecap:round;stroke-linejoin:round;stroke-miterlimit:4;stroke-dasharray:none;stroke-opacity:1"
       id="path1558"
       cx="52.5056"
       cy="34.738377"
       rx="1.3701636"
       ry="1.2402344" />
    <rect
       style="fill:#ff9933;fill-opacity:1;stroke:#000000;stroke-width:0.529167;stroke-linecap:round;stroke-linejoin:round;stroke-miterlimit:4;stroke-dasharray:none;stroke-opacity:1"
       id="rect1566"
       width="3.0710537"
       height="1.9371284"
       x="35.756531"
       y="36.474705" />
    <rect
       style="fill:#ff9933;fill-opacity:1;stroke:#000000;stroke-width:0.529167;stroke-linecap:round;stroke-linejoin:round;stroke-miterlimit:4;stroke-dasharray:none;stroke-opacity:1"
       id="rect1568"
       width="3.0710537"
       height="1.9371284"
       x="65.91906"
       y="36.474705" />
    <ellipse
       style="fill:#b4e2ff;stroke:#000000;stroke-width:0.558895;stroke-linecap:round;stroke-linejoin:round;stroke-miterlimit:4;stroke-dasharray:none;stroke-opacity:1"
       id="ellipse1570"
       cx="-38.080093"
       cy="34.632065"
       rx="1.5594172"
       ry="1.4970405"
       transform="scale(-1,1)" />
    <path
       style="fill:#333366;stroke:#000000;stroke-width:0.529167;stroke-linecap:butt;stroke-linejoin:round;stroke-miterlimit:4;stroke-dasharray:none;stroke-opacity:1"
       d="m 54.542784,27.261492 0.801809,-4.810852 h 8.352173 l 0.768401,5.07812 -0.832893,-0.125486 z"
       id="path1574" />
    <path
       style="fill:none;fill-opacity:1;stroke:#000000;stroke-width:0.529167;stroke-linecap:round;stroke-linejoin:round;stroke-miterlimit:4;stroke-dasharray:none;stroke-opacity:1"
       id="path1572"
       sodipodi:type="arc"
       sodipodi:cx="59.728455"
       sodipodi:cy="29.625444"
       sodipodi:rx="4.543582"
       sodipodi:ry="4.3431296"
       sodipodi:start="3.7162923"
       sodipodi:end="5.746079"
       sodipodi:arc-type="arc"
       d="m 55.914774,27.264594 a 4.543582,4.3431296 0 0 1 3.89908,-1.981512 4.543582,4.3431296 0 0 1 3.818414,2.120192"
       sodipodi:open="true" />
    <path
       style="fill:#333366;stroke:#000000;stroke-width:0.529167;stroke-linecap:butt;stroke-linejoin:round;stroke-miterlimit:4;stroke-dasharray:none;stroke-opacity:1"
       d="m 49.965796,27.2949 -0.601358,-5.044712 h -7.617182 l -1.5368,5.378799 5.679479,-0.267269 z"
       id="path1576"
       sodipodi:nodetypes="cccccc" />
    <path
       style="fill:#990000;fill-opacity:1;stroke:#000000;stroke-width:0.529167;stroke-linecap:butt;stroke-linejoin:round;stroke-miterlimit:4;stroke-dasharray:none;stroke-opacity:1"
       d="m 70.378504,24.922883 4.009043,-0.334087 -0.06682,2.939964 -3.942225,0.100227 z"
       id="path1580" />
    <path
       style="fill:#990000;fill-opacity:1;stroke:#000000;stroke-width:0.529167;stroke-linecap:butt;stroke-linejoin:round;stroke-miterlimit:4;stroke-dasharray:none;stroke-opacity:1"
       d="m 34.497573,24.9897 -4.009043,-0.334087 0.06682,2.939964 3.942225,0.100227 z"
       id="path1584" />
    <path
       style="fill:#003399;stroke:#000000;stroke-width:0.529167;stroke-linecap:butt;stroke-linejoin:round;stroke-miterlimit:4;stroke-dasharray:none;stroke-opacity:1"
       d="m 74.21561,50.176339 3.023809,-26.647321 1.322914,-1.606399 1.133924,-0.850447 2.267848,-0.283482 h 2.740312 l 1.606391,0.944941 1.795371,5.008185 1.700881,23.245534 z"
       id="path1592" />
    <circle
       style="fill:#ffdb9d;fill-opacity:1;stroke:#000000;stroke-width:0.529167;stroke-linecap:round;stroke-linejoin:round;stroke-miterlimit:4;stroke-dasharray:none;stroke-opacity:1"
       id="path1588"
       cx="82.105865"
       cy="14.977307"
       r="6.6948953" />
    <path
       style="fill:#cc9900;stroke:#000000;stroke-width:0.529167;stroke-linecap:butt;stroke-linejoin:miter;stroke-miterlimit:4;stroke-dasharray:none;stroke-opacity:1"
       d="m 90.279537,17.386905 -3.401772,0.47247 -0.0945,-3.779762 -0.850444,-1.606399 -2.078858,-1.889881 H 81.775105 L 79.03479,10.205357 77.617385,10.016369 76.105482,9.5438988 78.18435,7.2760416 l 0.94494,0.5669642 3.496259,-1.6063986 0.37797,0.9449403 3.779746,1.0394347 v 0.6614583 l 2.362338,1.8898805 v 1.417411 L 90.185027,14.835565 89.90155,15.875 Z"
       id="path1594" />
    <path
       style="fill:#0066cc;stroke:#000000;stroke-width:0.529167;stroke-linecap:butt;stroke-linejoin:round;stroke-miterlimit:4;stroke-dasharray:none;stroke-opacity:1"
       d="M 30.540356,50.176339 27.516561,23.529018 26.19366,21.922619 25.059736,21.072172 22.791888,20.78869 h -2.740312 l -1.606399,0.944941 -1.79538,5.008185 -1.70089,23.245534 z"
       id="path1596" />
    <circle
       style="fill:#ffdb9d;fill-opacity:1;stroke:#000000;stroke-width:0.529167;stroke-linecap:round;stroke-linejoin:round;stroke-miterlimit:4;stroke-dasharray:none;stroke-opacity:1"
       id="circle1598"
       cx="-22.650162"
       cy="14.977307"
       r="6.6948953"
       transform="scale(-1,1)" />
    <path
       style="fill:#111111;fill-opacity:1;stroke:#000000;stroke-width:0.529167;stroke-linecap:butt;stroke-linejoin:round;stroke-miterlimit:4;stroke-dasharray:none;stroke-opacity:1"
       d="m 15.345819,22.773065 -1.41741,-4.252232 0.850445,-6.142113 2.078871,-3.3072916 2.551337,-1.7008927 2.173365,-0.4724702 3.496278,0.4724702 2.173364,1.0394344 0.377976,0.4724704 -1.889882,1.1339285 -2.83482,-0.7559524 -1.322916,0.8504464 -2.078869,1.700893 -0.755954,1.700893 -0.850445,2.362351 -0.472472,3.212797 -0.755951,4.913691 z"
       id="path1600" />
    <path
       style="fill:none;stroke:#000000;stroke-width:0.529167;stroke-linecap:butt;stroke-linejoin:miter;stroke-miterlimit:4;stroke-dasharray:none;stroke-opacity:1;marker-start:url(#Arrow1Mstart);marker-end:url(#Arrow1Mend)"
       d="M 34.244628,12.37872 H 69.679895"
       id="path1602" />
    <text
       xml:space="preserve"
       id="text1918"
       style="font-style:normal;font-weight:normal;font-size:7.05556px;line-height:1.25;font-family:sans-serif;white-space:pre;shape-inside:url(#rect1920);fill:#000000;fill-opacity:1;stroke:none;"
       transform="translate(-3.5482379,10.102788)"><tspan
         x="46.771484"
         y="-0.30631107"><tspan
           style="font-size:7.05556px">1,5m</tspan></tspan></text>
    <path
       style="fill:#b4e2ff;stroke:#000000;stroke-width:0.52916667;stroke-linecap:butt;stroke-linejoin:round;stroke-opacity:1;stroke-miterlimit:4;stroke-dasharray:none"
       d="m 21.234564,17.305702 5.612659,3.601457 1.777344,-1.730571 0.888669,-1.73057 -7.109368,-2.338608 z"
       id="path3365" />
    <path
       style="fill:#b4e2ff;stroke:#000000;stroke-width:0.529167;stroke-linecap:butt;stroke-linejoin:round;stroke-miterlimit:4;stroke-dasharray:none;stroke-opacity:1"
       d="m 83.488267,17.305702 -5.612659,3.601457 -1.777344,-1.730571 -0.888669,-1.73057 7.109368,-2.338608 z"
       id="path3367" />
  </g>
</svg>
