<?xml version="1.0" encoding="UTF-8" standalone="no"?>
<svg
   xmlns:dc="http://purl.org/dc/elements/1.1/"
   xmlns:cc="http://creativecommons.org/ns#"
   xmlns:rdf="http://www.w3.org/1999/02/22-rdf-syntax-ns#"
   xmlns:svg="http://www.w3.org/2000/svg"
   xmlns="http://www.w3.org/2000/svg"
   xmlns:sodipodi="http://sodipodi.sourceforge.net/DTD/sodipodi-0.dtd"
   xmlns:inkscape="http://www.inkscape.org/namespaces/inkscape"
   width="400"
   height="250"
   viewBox="0 0 105.83333 66.145835"
   version="1.1"
   id="svg1498"
   inkscape:version="1.0.1 (3bc2e813f5, 2020-09-07)"
   sodipodi:docname="santa.svg"
   inkscape:export-filename="C:\Users\User\Abstand Decke.png"
   inkscape:export-xdpi="96"
   inkscape:export-ydpi="96">
  <defs
     id="defs1492">
    <marker
       style="overflow:visible"
       id="marker2227"
       refX="0"
       refY="0"
       orient="auto"
       inkscape:stockid="Arrow1Mend"
       inkscape:isstock="true">
      <path
         transform="matrix(-0.4,0,0,-0.4,-4,0)"
         style="fill:#000000;fill-opacity:1;fill-rule:evenodd;stroke:#000000;stroke-width:1pt;stroke-opacity:1"
         d="M 0,0 5,-5 -12.5,0 5,5 Z"
         id="path2225" />
    </marker>
    <marker
       style="overflow:visible"
       id="marker2217"
       refX="0"
       refY="0"
       orient="auto"
       inkscape:stockid="Arrow1Mstart"
       inkscape:isstock="true">
      <path
         transform="matrix(0.4,0,0,0.4,4,0)"
         style="fill:#000000;fill-opacity:1;fill-rule:evenodd;stroke:#000000;stroke-width:1pt;stroke-opacity:1"
         d="M 0,0 5,-5 -12.5,0 5,5 Z"
         id="path2215" />
    </marker>
    <rect
       x="23.623512"
       y="-30.994047"
       width="36.474701"
       height="14.552083"
       id="rect2118" />
    <rect
       x="23.623512"
       y="-30.994047"
       width="36.474701"
       height="14.552083"
       id="rect2213" />
    <rect
       x="23.623512"
       y="-30.994047"
       width="36.474701"
       height="14.552083"
       id="rect2118-1" />
    <rect
       x="23.623512"
       y="-30.994047"
       width="36.474701"
       height="14.552083"
       id="rect1779" />
    <marker
       style="overflow:visible"
       id="Arrow1Mstart"
       refX="0"
       refY="0"
       orient="auto"
       inkscape:stockid="Arrow1Mstart"
       inkscape:isstock="true"
       inkscape:collect="always">
      <path
         transform="matrix(0.4,0,0,0.4,4,0)"
         style="fill:#000000;fill-opacity:1;fill-rule:evenodd;stroke:#000000;stroke-width:1pt;stroke-opacity:1"
         d="M 0,0 5,-5 -12.5,0 5,5 Z"
         id="path1164" />
    </marker>
    <marker
       style="overflow:visible"
       id="Arrow1Mend"
       refX="0"
       refY="0"
       orient="auto"
       inkscape:stockid="Arrow1Mend"
       inkscape:isstock="true"
       inkscape:collect="always">
      <path
         transform="matrix(-0.4,0,0,-0.4,-4,0)"
         style="fill:#000000;fill-opacity:1;fill-rule:evenodd;stroke:#000000;stroke-width:1pt;stroke-opacity:1"
         d="M 0,0 5,-5 -12.5,0 5,5 Z"
         id="path1167" />
    </marker>
  </defs>
  <sodipodi:namedview
     id="base"
     pagecolor="#ffffff"
     bordercolor="#666666"
     borderopacity="1.0"
     inkscape:pageopacity="0.0"
     inkscape:pageshadow="2"
     inkscape:zoom="1.979899"
     inkscape:cx="329.93445"
     inkscape:cy="161.07143"
     inkscape:document-units="mm"
     inkscape:current-layer="layer1"
     inkscape:document-rotation="0"
     showgrid="false"
     units="px"
     inkscape:window-width="1920"
     inkscape:window-height="1001"
     inkscape:window-x="-9"
     inkscape:window-y="-9"
     inkscape:window-maximized="1" />
  <metadata
     id="metadata1495">
    <rdf:RDF>
      <cc:Work
         rdf:about="">
        <dc:format>image/svg+xml</dc:format>
        <dc:type
           rdf:resource="http://purl.org/dc/dcmitype/StillImage" />
        <dc:title></dc:title>
      </cc:Work>
    </rdf:RDF>
  </metadata>
  <g
     inkscape:label="Ebene 1"
     inkscape:groupmode="layer"
     id="layer1">
    <path
       style="fill:#ff0000;stroke:#000000;stroke-width:0.52916667;stroke-linecap:butt;stroke-linejoin:round;stroke-opacity:1;stroke-miterlimit:4;stroke-dasharray:none;fill-opacity:1"
       d="m 81.249934,61.20472 h 16.303443 l -2.539061,-31.270535 -2.672697,-3.207234 -2.271789,-0.801807 -4.543583,0.400904 -2.004521,3.741773 -1.336347,8.68626 z"
       id="path1093" />
    <ellipse
       style="fill:#ffdb9d;stroke:#000000;stroke-width:0.529167;stroke-miterlimit:4;stroke-dasharray:none"
       id="ellipse2078"
       cx="-88.726349"
       cy="19.936245"
       rx="8.6852827"
       ry="8.3233967"
       transform="scale(-1,1)" />
    <path
       style="fill:#b4e2ff;stroke:#000000;stroke-width:0.529167;stroke-linecap:butt;stroke-linejoin:miter;stroke-miterlimit:4;stroke-dasharray:none;stroke-opacity:1"
       d="m 89.991709,23.053788 -2.292313,-2.475685 -8.435711,2.200598 1.46708,2.567388 1.83385,1.925547 z"
       id="path2112" />
    <path
       style="fill:#996600;stroke:#000000;stroke-width:0.529167;stroke-linecap:butt;stroke-linejoin:round;stroke-miterlimit:4;stroke-dasharray:none;stroke-opacity:1"
       d="m 14.930058,27.119791 3.221017,-2.931899 2.973373,-1.753956 3.123713,-3.57473 1.135896,-3.19053 1.837478,-2.004522 -0.133636,-2.271791 -0.434313,1.637026 -1.369756,1.369757 -0.567947,-3.407687 -0.434313,2.706104 -4.543582,-2.53906 2.438834,2.939964 0.200452,1.770661 -1.169304,4.042452 -0.534539,-4.276313 -0.367496,2.405426 -0.233861,3.207234 -0.968852,1.102487 -2.305199,0.801808 -0.668174,-4.409947 -0.467722,-0.100226 v 4.443356 l -1.102486,3.0736 z"
       id="path967" />
    <path
       style="fill:#996600;stroke:#000000;stroke-width:0.529167;stroke-linecap:butt;stroke-linejoin:round;stroke-miterlimit:4;stroke-dasharray:none;stroke-opacity:1"
       d="m 15.780504,59.247767 2.173363,-0.09449 0.47247,-2.315104 0.330729,-13.18192 -2.976562,-0.897694 1.27567,6.803573 0.188988,6.567336 z"
       id="path957" />
    <path
       style="fill:#996600;stroke:#000000;stroke-width:0.529167;stroke-linecap:butt;stroke-linejoin:round;stroke-miterlimit:4;stroke-dasharray:none;stroke-opacity:1"
       d="m 23.245534,58.066593 1.417412,-0.0945 1.133927,-1.795386 3.071056,-8.031993 -2.69308,-6.142114 -2.69308,-0.14174 1.322916,4.11049 1.842636,3.118302 -0.566966,3.260045 -2.929315,5.197173 z"
       id="path965" />
    <path
       style="fill:#996600;stroke:#000000;stroke-width:0.529167;stroke-linecap:butt;stroke-linejoin:round;stroke-miterlimit:4;stroke-dasharray:none;stroke-opacity:1"
       d="m 11.906248,30.190847 0.47247,6.567337 1.322917,4.346725 2.315104,3.118305 3.354539,1.322917 7.984747,-0.661458 1.88988,-0.566965 3.071058,-3.354538 0.519716,-4.110493 L 32.17522,35.671503 28.773435,33.02567 22.34784,32.647694 20.741441,31.844493 H 19.040549 L 15.68601,27.828496 Z"
       id="path955" />
    <path
       style="fill:#996600;stroke:#000000;stroke-width:0.529167;stroke-linecap:butt;stroke-linejoin:round;stroke-miterlimit:4;stroke-dasharray:none;stroke-opacity:1"
       d="M 13.323519,26.893996 7.6440435,24.121075 3.3009134,21.080884 1.6638876,18.742275 0.96230503,17.10525 3.568183,19.544084 3.0670527,17.138658 1.8977483,15.601859 l 2.2049737,1.369756 0.9020347,-3.0736 0.033409,4.34313 0.7349911,2.53906 1.069078,0.7684 0.066817,-3.30746 0.9020347,4.576991 3.4076845,1.469982 -1.8040684,-3.708365 0.7683994,-0.23386 2.238382,4.276312 1.403166,1.369756 z"
       id="path969" />
    <path
       style="fill:#996600;stroke:#000000;stroke-width:0.529167;stroke-linecap:butt;stroke-linejoin:round;stroke-miterlimit:4;stroke-dasharray:none;stroke-opacity:1"
       d="m 14.454391,22.450918 2.175042,0.776801 1.475919,1.47592 0.310722,2.175043 -0.388402,4.194718 -0.7768,1.70896 -0.776799,1.864323 -2.175042,1.553601 -1.5536,0.07768 -0.93216,-0.466081 -0.543761,-0.699119 -0.3884,-1.631281 -0.7768,-4.117043 -0.3883997,-2.641121 0.6214397,-1.087522 1.708961,-2.097358 z"
       id="path931" />
    <path
       style="fill:#996600;stroke:#000000;stroke-width:0.529167;stroke-linecap:butt;stroke-linejoin:round;stroke-miterlimit:4;stroke-dasharray:none;stroke-opacity:1"
       d="m 18.105352,24.703639 2.913002,-2.330401 2.563442,-0.971001 0.85448,-0.03883 v 0.85448 l -0.971001,2.252721 -1.126361,1.320562 -1.90316,0.737957 -2.01968,0.349564 -0.310722,-2.175043"
       id="path951" />
    <path
       style="fill:#996600;stroke:#000000;stroke-width:0.529167;stroke-linecap:butt;stroke-linejoin:round;stroke-miterlimit:4;stroke-dasharray:none;stroke-opacity:1"
       d="m 10.997631,24.936679 -1.8254804,-0.427241 -5.1657209,-2.175039 0.077685,1.009839 2.1750414,3.029522 3.4567592,0.349562 z"
       id="path953" />
    <path
       style="fill:#ffdb9d;stroke:#000000;stroke-width:0.529167;stroke-linecap:butt;stroke-linejoin:round;stroke-miterlimit:4;stroke-dasharray:none;stroke-opacity:1"
       d="m 10.919951,33.015403 0.7768,-0.932161 2.913,-0.155354 0.893321,0.388402 1.398241,1.43708 -0.42724,0.893319 -2.175042,1.553602 -1.5536,0.07769 -0.93216,-0.46608 -0.543761,-0.69912 z"
       id="path947" />
    <ellipse
       style="fill:#ff3300;fill-opacity:1;stroke:#000000;stroke-width:0.529167;stroke-linecap:round;stroke-linejoin:round;stroke-miterlimit:4;stroke-dasharray:none;stroke-opacity:1"
       id="path949"
       cx="13.328035"
       cy="33.539742"
       rx="1.2040404"
       ry="1.1846205" />
    <path
       style="fill:#996600;stroke:#000000;stroke-width:0.529167;stroke-linecap:butt;stroke-linejoin:round;stroke-miterlimit:4;stroke-dasharray:none;stroke-opacity:1"
       d="m 30.75781,58.350073 1.370164,0.09449 0.519718,-1.748141 -0.614212,-1.842633 0.04725,-7.843006 -0.614212,-1.228424 0.614212,-2.83482 -0.283482,-5.008184 -0.708705,-1.086683 -0.708705,-0.09449 -0.566965,0.283482 -0.708705,0.755952 -0.09449,1.228423 -0.04725,3.118303 0.330729,3.165551 1.606396,4.630209 0.283483,4.960937 z"
       id="path961" />
    <path
       style="fill:#996600;stroke:#000000;stroke-width:0.529167;stroke-linecap:butt;stroke-linejoin:round;stroke-miterlimit:4;stroke-dasharray:none;stroke-opacity:1"
       d="m 19.560266,60.334448 1.74814,0.09449 0.236235,-0.283482 V 57.877598 L 21.072171,56.176706 20.93043,52.113463 21.591888,48.050217 21.87537,44.03422 22.111605,40.301706 21.922617,39.356765 21.4029,38.931543 h -0.330729 l -0.614212,0.14174 -0.803199,0.614212 -0.47247,0.755951 -0.236235,0.850448 0.188988,0.992187 0.897693,4.346726 -0.330729,3.779761 -0.330729,0.94494 0.47247,1.6064 0.188988,5.197173 z"
       id="path963" />
    <path
       style="fill:none;fill-opacity:1;stroke:#000000;stroke-width:1.32292;stroke-linecap:round;stroke-linejoin:round;stroke-miterlimit:4;stroke-dasharray:none;stroke-opacity:1"
       id="path1007"
       sodipodi:type="arc"
       sodipodi:cx="41.235889"
       sodipodi:cy="54.222305"
       sodipodi:rx="6.581512"
       sodipodi:ry="6.581512"
       sodipodi:start="1.5707963"
       sodipodi:end="4.7065067"
       sodipodi:open="true"
       sodipodi:arc-type="arc"
       d="m 41.235889,60.803817 a 6.581512,6.581512 0 0 1 -6.581483,-6.562154 6.581512,6.581512 0 0 1 6.542769,-6.600756" />
    <path
       style="fill:none;stroke:#000000;stroke-width:1.32292;stroke-linecap:butt;stroke-linejoin:miter;stroke-miterlimit:4;stroke-dasharray:none;stroke-opacity:1"
       d="M 41.235891,60.803816 H 77.417503"
       id="path1013" />
    <path
       style="fill:none;stroke:#000000;stroke-width:1.32292;stroke-linecap:butt;stroke-linejoin:miter;stroke-miterlimit:4;stroke-dasharray:none;stroke-opacity:1"
       d="m 45.345162,52.785732 h 32.33961"
       id="path1015" />
    <path
       style="fill:none;stroke:#000000;stroke-width:1.32292;stroke-linecap:butt;stroke-linejoin:miter;stroke-miterlimit:4;stroke-dasharray:none;stroke-opacity:1"
       d="m 52.160534,52.652096 v 7.750818"
       id="path1017" />
    <path
       style="fill:none;stroke:#000000;stroke-width:1.32292;stroke-linecap:butt;stroke-linejoin:miter;stroke-miterlimit:4;stroke-dasharray:none;stroke-opacity:1"
       d="m 68.330341,52.652096 v 8.018087"
       id="path1019" />
    <path
       style="fill:#ffffff;stroke:#000000;stroke-width:0.52916667;stroke-linecap:butt;stroke-linejoin:round;stroke-opacity:1;stroke-miterlimit:4;stroke-dasharray:none;fill-opacity:1"
       d="m 97.553377,61.20472 0.90942,-0.539543 0.236233,-0.992188 -0.236233,-0.614209 -0.472472,-0.614212 -0.897691,-0.236235 -15.638767,0.14174 -0.661458,0.188989 -0.377976,0.472469 -0.188986,0.566965 v 0.803201 l 1.024485,0.823023 h 16.303445"
       id="path1095" />
    <path
       style="fill:#ff0000;stroke:#000000;stroke-width:0.52916667;stroke-linecap:butt;stroke-linejoin:miter;stroke-opacity:1;stroke-miterlimit:4;stroke-dasharray:none;fill-opacity:1"
       d="m 84.383183,12.000744 8.031993,-3.6380209 4.866444,-0.4252232 5.24442,1.0866816 0.75595,0.8031993 -0.0945,0.6142112 -2.69308,2.740328 -1.889883,2.69308 -0.472469,1.795387 -0.519718,4.110495 -1.653646,-0.377981 z"
       id="path1099" />
    <path
       style="fill:#ffffff;stroke:#000000;stroke-width:0.52916667;stroke-linecap:butt;stroke-linejoin:round;stroke-opacity:1;fill-opacity:1;stroke-miterlimit:4;stroke-dasharray:none"
       d="m 83.060266,12.284226 0.18899,-0.755952 0.566962,-0.566965 0.897694,-0.09449 0.425223,0.236236 3.82701,2.645833 6.472843,5.433407 2.173362,2.598587 0.04725,0.803199 -0.14174,0.188988 -0.236236,0.330729 -0.330729,0.188988 h -0.283482 l -2.598587,-2.69308 -6.472841,-5.669643 -4.157739,-2.409598 z"
       id="path1097" />
    <circle
       style="fill:#ffffff;fill-opacity:1;stroke:#000000;stroke-width:0.529167;stroke-linecap:round;stroke-linejoin:round;stroke-miterlimit:4;stroke-dasharray:none;stroke-opacity:1"
       id="path1101"
       cx="102.62053"
       cy="9.8273811"
       r="1.5591518" />
    <rect
       style="fill:#003399;fill-opacity:1;stroke:#000000;stroke-width:0.529167;stroke-linecap:round;stroke-linejoin:round;stroke-miterlimit:4;stroke-dasharray:none;stroke-opacity:1"
       id="rect1127"
       width="14.930058"
       height="9.4494047"
       x="50.648811"
       y="39.120537" />
    <rect
       style="fill:#ff794b;fill-opacity:1;stroke:#000000;stroke-width:0.529167;stroke-linecap:round;stroke-linejoin:round;stroke-miterlimit:4;stroke-dasharray:none;stroke-opacity:1"
       id="rect1129"
       width="12.095239"
       height="6.9925594"
       x="72.719292"
       y="-27.408821"
       transform="rotate(50.2555)" />
    <rect
       style="fill:#6666cc;fill-opacity:1;stroke:#000000;stroke-width:0.529167;stroke-linecap:round;stroke-linejoin:round;stroke-miterlimit:4;stroke-dasharray:none;stroke-opacity:1"
       id="rect1131"
       width="13.040178"
       height="7.3705359"
       x="56.885414"
       y="44.79018" />
    <rect
       style="fill:#006600;fill-opacity:1;stroke:#000000;stroke-width:0.529167;stroke-linecap:round;stroke-linejoin:round;stroke-miterlimit:4;stroke-dasharray:none;stroke-opacity:1"
       id="rect1133"
       width="11.150297"
       height="6.9925594"
       x="54.428574"
       y="32.127975" />
    <rect
       style="fill:#009900;fill-opacity:1;stroke:#000000;stroke-width:0.529167;stroke-linecap:round;stroke-linejoin:round;stroke-miterlimit:4;stroke-dasharray:none;stroke-opacity:1"
       id="rect1135"
       width="13.040178"
       height="6.8035712"
       x="48.002979"
       y="45.168156" />
    <text
       xml:space="preserve"
       id="text2116"
       style="font-style:normal;font-weight:normal;font-size:7.05556px;line-height:1.25;font-family:sans-serif;white-space:pre;shape-inside:url(#rect2118-1);fill:#000000;fill-opacity:1;stroke:none;stroke-width:0.594;stroke-miterlimit:4;stroke-dasharray:none;"
       transform="matrix(0.89085354,0,0,0.89085354,27.741389,42.897801)"><tspan
         x="23.623047"
         y="-24.751624"><tspan
           style="font-size:7.05556px;stroke-width:0.594;stroke-miterlimit:4;stroke-dasharray:none">1,5m</tspan></tspan></text>
    <path
       style="fill:none;stroke:#000000;stroke-width:0.529167;stroke-linecap:butt;stroke-linejoin:miter;stroke-miterlimit:4;stroke-dasharray:none;stroke-opacity:1;marker-start:url(#Arrow1Mstart);marker-end:url(#Arrow1Mend)"
       d="M 35.061161,22.778701 H 76.190085"
       id="path2122"
       sodipodi:nodetypes="cc" />
  </g>
</svg>
