<?xml version="1.0" encoding="UTF-8" standalone="no"?>
<svg
   xmlns:dc="http://purl.org/dc/elements/1.1/"
   xmlns:cc="http://creativecommons.org/ns#"
   xmlns:rdf="http://www.w3.org/1999/02/22-rdf-syntax-ns#"
   xmlns:svg="http://www.w3.org/2000/svg"
   xmlns="http://www.w3.org/2000/svg"
   xmlns:sodipodi="http://sodipodi.sourceforge.net/DTD/sodipodi-0.dtd"
   xmlns:inkscape="http://www.inkscape.org/namespaces/inkscape"
   width="400"
   height="250"
   viewBox="0 0 105.83333 66.145835"
   version="1.1"
   id="svg1498"
   inkscape:version="1.0.1 (3bc2e813f5, 2020-09-07)"
   sodipodi:docname="tueren.svg"
   inkscape:export-filename="C:\Users\User\Abstand Decke.png"
   inkscape:export-xdpi="96"
   inkscape:export-ydpi="96">
  <defs
     id="defs1492">
    <marker
       style="overflow:visible"
       id="marker2227"
       refX="0"
       refY="0"
       orient="auto"
       inkscape:stockid="Arrow1Mend"
       inkscape:isstock="true">
      <path
         transform="matrix(-0.4,0,0,-0.4,-4,0)"
         style="fill:#000000;fill-opacity:1;fill-rule:evenodd;stroke:#000000;stroke-width:1pt;stroke-opacity:1"
         d="M 0,0 5,-5 -12.5,0 5,5 Z"
         id="path2225" />
    </marker>
    <marker
       style="overflow:visible"
       id="marker2217"
       refX="0"
       refY="0"
       orient="auto"
       inkscape:stockid="Arrow1Mstart"
       inkscape:isstock="true">
      <path
         transform="matrix(0.4,0,0,0.4,4,0)"
         style="fill:#000000;fill-opacity:1;fill-rule:evenodd;stroke:#000000;stroke-width:1pt;stroke-opacity:1"
         d="M 0,0 5,-5 -12.5,0 5,5 Z"
         id="path2215" />
    </marker>
    <marker
       style="overflow:visible"
       id="Arrow1Mend"
       refX="0"
       refY="0"
       orient="auto"
       inkscape:stockid="Arrow1Mend"
       inkscape:isstock="true"
       inkscape:collect="always">
      <path
         transform="matrix(-0.4,0,0,-0.4,-4,0)"
         style="fill:#000000;fill-opacity:1;fill-rule:evenodd;stroke:#000000;stroke-width:1pt;stroke-opacity:1"
         d="M 0,0 5,-5 -12.5,0 5,5 Z"
         id="path1167" />
    </marker>
    <marker
       style="overflow:visible"
       id="Arrow1Mstart"
       refX="0"
       refY="0"
       orient="auto"
       inkscape:stockid="Arrow1Mstart"
       inkscape:isstock="true"
       inkscape:collect="always">
      <path
         transform="matrix(0.4,0,0,0.4,4,0)"
         style="fill:#000000;fill-opacity:1;fill-rule:evenodd;stroke:#000000;stroke-width:1pt;stroke-opacity:1"
         d="M 0,0 5,-5 -12.5,0 5,5 Z"
         id="path1164" />
    </marker>
    <rect
       x="23.623512"
       y="-30.994047"
       width="36.474701"
       height="14.552083"
       id="rect2118" />
    <rect
       x="23.623512"
       y="-30.994047"
       width="36.474701"
       height="14.552083"
       id="rect2213" />
    <rect
       x="23.623512"
       y="-30.994047"
       width="36.474701"
       height="14.552083"
       id="rect1022" />
  </defs>
  <sodipodi:namedview
     id="base"
     pagecolor="#ffffff"
     bordercolor="#666666"
     borderopacity="1.0"
     inkscape:pageopacity="0.0"
     inkscape:pageshadow="2"
     inkscape:zoom="1.979899"
     inkscape:cx="166.69181"
     inkscape:cy="118.39435"
     inkscape:document-units="mm"
     inkscape:current-layer="layer1"
     inkscape:document-rotation="0"
     showgrid="false"
     units="px"
     inkscape:window-width="1920"
     inkscape:window-height="1001"
     inkscape:window-x="-9"
     inkscape:window-y="-9"
     inkscape:window-maximized="1" />
  <metadata
     id="metadata1495">
    <rdf:RDF>
      <cc:Work
         rdf:about="">
        <dc:format>image/svg+xml</dc:format>
        <dc:type
           rdf:resource="http://purl.org/dc/dcmitype/StillImage" />
        <dc:title></dc:title>
      </cc:Work>
    </rdf:RDF>
  </metadata>
  <g
     inkscape:label="Ebene 1"
     inkscape:groupmode="layer"
     id="layer1">
    <path
       id="rect931"
       style="fill:#cccccc;fill-opacity:1;stroke:#000000;stroke-width:0.529167;stroke-linecap:round;stroke-linejoin:round;stroke-opacity:1"
       d="M 17.078545,6.9489298 V 62.540885 H 18.70997 V 8.5043903 H 46.679838 V 62.540885 h 1.66915 V 6.9489298 Z" />
    <path
       style="fill:#333366;stroke:#000000;stroke-width:0.529167;stroke-linecap:butt;stroke-linejoin:round;stroke-miterlimit:4;stroke-dasharray:none;stroke-opacity:1"
       d="m 5.9067912,64.021128 3.7417721,-28.464204 1.3363477,-1.469982 1.469982,-0.801809 2.271791,-1.469982 h 2.004522 l 2.939964,1.202713 1.870887,2.53906 0.400904,3.340868 0.668174,24.989703 z"
       id="path2076" />
    <ellipse
       style="fill:#ffdb9d;stroke:#000000;stroke-width:0.529167;stroke-miterlimit:4;stroke-dasharray:none"
       id="ellipse1134"
       cx="16.555336"
       cy="24.266075"
       rx="8.9506483"
       ry="8.5777054" />
    <path
       style="fill:#996600;stroke:#000000;stroke-width:0.529167;stroke-linecap:butt;stroke-linejoin:miter;stroke-miterlimit:4;stroke-dasharray:none;stroke-opacity:1"
       d="m 7.5406245,31.353132 1.6063991,-1.133928 0.9449394,-2.078869 0.472471,-3.590774 2.078869,-2.362351 2.645833,-2.645835 3.118304,-0.944941 1.511904,-0.566965 0.944941,0.09449 h 3.212797 L 22.943154,16.045093 21.525743,16.42307 18.974404,14.438694 15.8561,15.28914 h -5.102678 l -1.7008924,2.267859 -2.6458335,2.929317 v 2.07887 l -0.9449403,2.740327 1.889881,2.645834 -1.1339286,1.889881 z"
       id="path2096" />
    <path
       style="fill:#b4e2ff;stroke:#000000;stroke-width:0.529167;stroke-linecap:butt;stroke-linejoin:miter;stroke-miterlimit:4;stroke-dasharray:none;stroke-opacity:1"
       d="m 14.722172,27.478877 2.362351,-2.55134 8.693452,2.267857 -1.511904,2.645834 -1.889881,1.984375 z"
       id="path2098" />
    <path
       style="fill:#bbbbbb;fill-opacity:1;stroke:#000000;stroke-width:0.529167;stroke-linecap:butt;stroke-linejoin:miter;stroke-miterlimit:4;stroke-dasharray:none;stroke-opacity:1"
       d="M 46.679838,62.540885 H 41.860865 V 10.016369 L 46.679838,8.5043903 V 62.540885"
       id="path938" />
    <path
       style="fill:none;stroke:#000000;stroke-width:0.529167;stroke-linecap:round;stroke-linejoin:round;stroke-miterlimit:4;stroke-dasharray:none;stroke-opacity:1"
       d="M 43.183782,36.096725 H 40.34896 l 1.322916,0.755952"
       id="path940" />
    <path
       id="path946"
       style="fill:#cccccc;fill-opacity:1;stroke:#000000;stroke-width:0.529167;stroke-linecap:round;stroke-linejoin:round;stroke-opacity:1"
       d="M 83.803177,6.9489298 V 62.540885 H 82.171752 V 8.5043903 H 54.201885 V 62.540885 h -1.66915 V 6.9489298 Z" />
    <path
       style="fill:#006600;stroke:#000000;stroke-width:0.529167;stroke-linecap:butt;stroke-linejoin:miter;stroke-miterlimit:4;stroke-dasharray:none;stroke-opacity:1"
       d="M 95.902357,63.575601 93.445513,35.416376 91.74462,33.904472 90.421703,33.148519 88.342835,32.203579 85.885988,31.06965 h -0.94494 l -3.023809,1.322917 -2.078869,1.889881 -0.755951,2.456845 -0.377979,26.647322 z"
       id="path2082"
       sodipodi:nodetypes="cccccccccccc" />
    <ellipse
       style="fill:#ffdb9d;stroke:#000000;stroke-width:0.529167;stroke-miterlimit:4;stroke-dasharray:none"
       id="ellipse2078"
       cx="-86.679703"
       cy="24.266075"
       rx="8.9506483"
       ry="8.5777054"
       transform="scale(-1,1)" />
    <path
       style="fill:#b4e2ff;stroke:#000000;stroke-width:0.529167;stroke-linecap:butt;stroke-linejoin:miter;stroke-miterlimit:4;stroke-dasharray:none;stroke-opacity:1"
       d="m 87.983718,27.478877 -2.362351,-2.55134 -8.693452,2.267857 1.511904,2.645834 1.889881,1.984375 z"
       id="path2112" />
    <path
       style="fill:#dddddd;fill-opacity:1;stroke:#000000;stroke-width:0.529167;stroke-linecap:butt;stroke-linejoin:miter;stroke-miterlimit:4;stroke-dasharray:none;stroke-opacity:1"
       d="m 54.201885,62.540885 h 4.818973 V 10.016369 L 54.201885,8.5043903 V 62.540885"
       id="path948" />
    <text
       xml:space="preserve"
       id="text1020"
       style="font-style:normal;font-weight:normal;font-size:11.2889px;line-height:1.25;font-family:sans-serif;white-space:pre;shape-inside:url(#rect1022);fill:#000000;fill-opacity:1;stroke:#ffffff;stroke-width:1.05833333;stroke-miterlimit:4;stroke-dasharray:none;stroke-opacity:1;"
       transform="translate(15.497025,41.652978)"><tspan
         x="23.623047"
         y="-21.00611"><tspan
           style="font-size:11.2889px;stroke:#ffffff;stroke-width:1.05833;stroke-miterlimit:4;stroke-dasharray:none;stroke-opacity:1">1,5m</tspan></tspan></text>
    <text
       xml:space="preserve"
       id="text2116"
       style="font-style:normal;font-weight:normal;font-size:11.2889px;line-height:1.25;font-family:sans-serif;white-space:pre;shape-inside:url(#rect2118);fill:#000000;fill-opacity:1;stroke:none;stroke-opacity:1;"
       transform="translate(15.497025,41.652978)"><tspan
         x="23.623047"
         y="-21.00611"><tspan
           style="font-size:11.2889px;stroke:none;stroke-opacity:1">1,5m</tspan></tspan></text>
    <path
       style="fill:none;stroke:#000000;stroke-width:0.529167;stroke-linecap:butt;stroke-linejoin:miter;stroke-miterlimit:4;stroke-dasharray:none;stroke-opacity:1;marker-start:url(#Arrow1Mstart);marker-end:url(#Arrow1Mend)"
       d="m 28.135148,24.549555 h 47.24261"
       id="path2122"
       sodipodi:nodetypes="cc" />
    <path
       style="fill:none;stroke:#000000;stroke-width:0.529167;stroke-linecap:round;stroke-linejoin:round;stroke-miterlimit:4;stroke-dasharray:none;stroke-opacity:1"
       d="m 57.697941,36.096725 h 2.834822 l -1.322916,0.755952"
       id="path950" />
    <path
       style="fill:#990000;stroke:#000000;stroke-width:0.529167;stroke-linecap:round;stroke-linejoin:round;stroke-miterlimit:4;stroke-dasharray:none;stroke-opacity:1"
       d="m 80.225449,15.213542 2.456845,3.307292 1.984375,-1.039435 2.362351,1.322916 1.039434,0.283482 1.322917,2.645834 1.039436,2.645833 0.377976,1.889881 0.944941,1.88988 -0.188989,1.6064 0.661458,0.755951 1.511906,2.929316 0.566962,-0.09449 1.039434,-2.929316 1.133931,-1.889882 0.377975,-3.496278 0.283483,-3.02381 -0.850448,-1.039435 v -1.795387 l -1.41741,-1.606398 -1.41741,-1.984375 -1.417412,-0.09449 -4.157737,-1.228423 -3.023809,-1.228423 z"
       id="path1024"
       sodipodi:nodetypes="ccccccccccccccccccccccccc" />
  </g>
</svg>
